%TF.GenerationSoftware,KiCad,Pcbnew,6.0.1-79c1e3a40b~116~ubuntu20.04.1*%
%TF.CreationDate,2022-02-14T03:59:37+01:00*%
%TF.ProjectId,USB-to-UART-Bridge,5553422d-746f-42d5-9541-52542d427269,rev?*%
%TF.SameCoordinates,Original*%
%TF.FileFunction,Copper,L1,Top*%
%TF.FilePolarity,Positive*%
%FSLAX46Y46*%
G04 Gerber Fmt 4.6, Leading zero omitted, Abs format (unit mm)*
G04 Created by KiCad (PCBNEW 6.0.1-79c1e3a40b~116~ubuntu20.04.1) date 2022-02-14 03:59:37*
%MOMM*%
%LPD*%
G01*
G04 APERTURE LIST*
G04 Aperture macros list*
%AMRoundRect*
0 Rectangle with rounded corners*
0 $1 Rounding radius*
0 $2 $3 $4 $5 $6 $7 $8 $9 X,Y pos of 4 corners*
0 Add a 4 corners polygon primitive as box body*
4,1,4,$2,$3,$4,$5,$6,$7,$8,$9,$2,$3,0*
0 Add four circle primitives for the rounded corners*
1,1,$1+$1,$2,$3*
1,1,$1+$1,$4,$5*
1,1,$1+$1,$6,$7*
1,1,$1+$1,$8,$9*
0 Add four rect primitives between the rounded corners*
20,1,$1+$1,$2,$3,$4,$5,0*
20,1,$1+$1,$4,$5,$6,$7,0*
20,1,$1+$1,$6,$7,$8,$9,0*
20,1,$1+$1,$8,$9,$2,$3,0*%
G04 Aperture macros list end*
%TA.AperFunction,SMDPad,CuDef*%
%ADD10RoundRect,0.150000X-0.587500X-0.150000X0.587500X-0.150000X0.587500X0.150000X-0.587500X0.150000X0*%
%TD*%
%TA.AperFunction,SMDPad,CuDef*%
%ADD11R,2.000000X1.500000*%
%TD*%
%TA.AperFunction,SMDPad,CuDef*%
%ADD12R,2.000000X3.800000*%
%TD*%
%TA.AperFunction,SMDPad,CuDef*%
%ADD13RoundRect,0.200000X-0.275000X0.200000X-0.275000X-0.200000X0.275000X-0.200000X0.275000X0.200000X0*%
%TD*%
%TA.AperFunction,ComponentPad*%
%ADD14R,1.700000X1.700000*%
%TD*%
%TA.AperFunction,ComponentPad*%
%ADD15O,1.700000X1.700000*%
%TD*%
%TA.AperFunction,SMDPad,CuDef*%
%ADD16RoundRect,0.218750X-0.256250X0.218750X-0.256250X-0.218750X0.256250X-0.218750X0.256250X0.218750X0*%
%TD*%
%TA.AperFunction,SMDPad,CuDef*%
%ADD17RoundRect,0.200000X0.200000X0.275000X-0.200000X0.275000X-0.200000X-0.275000X0.200000X-0.275000X0*%
%TD*%
%TA.AperFunction,SMDPad,CuDef*%
%ADD18RoundRect,0.225000X0.250000X-0.225000X0.250000X0.225000X-0.250000X0.225000X-0.250000X-0.225000X0*%
%TD*%
%TA.AperFunction,SMDPad,CuDef*%
%ADD19RoundRect,0.200000X0.275000X-0.200000X0.275000X0.200000X-0.275000X0.200000X-0.275000X-0.200000X0*%
%TD*%
%TA.AperFunction,SMDPad,CuDef*%
%ADD20RoundRect,0.200000X-0.200000X-0.275000X0.200000X-0.275000X0.200000X0.275000X-0.200000X0.275000X0*%
%TD*%
%TA.AperFunction,SMDPad,CuDef*%
%ADD21RoundRect,0.150000X-0.512500X-0.150000X0.512500X-0.150000X0.512500X0.150000X-0.512500X0.150000X0*%
%TD*%
%TA.AperFunction,SMDPad,CuDef*%
%ADD22RoundRect,0.225000X-0.250000X0.225000X-0.250000X-0.225000X0.250000X-0.225000X0.250000X0.225000X0*%
%TD*%
%TA.AperFunction,SMDPad,CuDef*%
%ADD23RoundRect,0.062500X-0.062500X0.350000X-0.062500X-0.350000X0.062500X-0.350000X0.062500X0.350000X0*%
%TD*%
%TA.AperFunction,SMDPad,CuDef*%
%ADD24RoundRect,0.062500X-0.350000X0.062500X-0.350000X-0.062500X0.350000X-0.062500X0.350000X0.062500X0*%
%TD*%
%TA.AperFunction,SMDPad,CuDef*%
%ADD25R,2.600000X2.600000*%
%TD*%
%TA.AperFunction,SMDPad,CuDef*%
%ADD26RoundRect,0.225000X0.225000X0.250000X-0.225000X0.250000X-0.225000X-0.250000X0.225000X-0.250000X0*%
%TD*%
%TA.AperFunction,ComponentPad*%
%ADD27RoundRect,0.250000X0.725000X-0.600000X0.725000X0.600000X-0.725000X0.600000X-0.725000X-0.600000X0*%
%TD*%
%TA.AperFunction,ComponentPad*%
%ADD28O,1.950000X1.700000*%
%TD*%
%TA.AperFunction,SMDPad,CuDef*%
%ADD29RoundRect,0.218750X0.218750X0.256250X-0.218750X0.256250X-0.218750X-0.256250X0.218750X-0.256250X0*%
%TD*%
%TA.AperFunction,SMDPad,CuDef*%
%ADD30R,1.000000X0.520000*%
%TD*%
%TA.AperFunction,SMDPad,CuDef*%
%ADD31R,1.000000X0.270000*%
%TD*%
%TA.AperFunction,ComponentPad*%
%ADD32O,2.500000X1.200000*%
%TD*%
%TA.AperFunction,SMDPad,CuDef*%
%ADD33R,2.000000X1.000000*%
%TD*%
%TA.AperFunction,ComponentPad*%
%ADD34O,2.200000X1.200000*%
%TD*%
%TA.AperFunction,SMDPad,CuDef*%
%ADD35RoundRect,0.150000X0.587500X0.150000X-0.587500X0.150000X-0.587500X-0.150000X0.587500X-0.150000X0*%
%TD*%
%TA.AperFunction,SMDPad,CuDef*%
%ADD36RoundRect,0.250000X-0.625000X0.375000X-0.625000X-0.375000X0.625000X-0.375000X0.625000X0.375000X0*%
%TD*%
%TA.AperFunction,ViaPad*%
%ADD37C,0.600000*%
%TD*%
%TA.AperFunction,ViaPad*%
%ADD38C,0.800000*%
%TD*%
%TA.AperFunction,Conductor*%
%ADD39C,0.400000*%
%TD*%
%TA.AperFunction,Conductor*%
%ADD40C,0.500000*%
%TD*%
%TA.AperFunction,Conductor*%
%ADD41C,0.300000*%
%TD*%
%TA.AperFunction,Conductor*%
%ADD42C,0.200000*%
%TD*%
%TA.AperFunction,Conductor*%
%ADD43C,0.800000*%
%TD*%
G04 APERTURE END LIST*
D10*
%TO.P,Q1,1,B*%
%TO.N,Net-(Q1-Pad1)*%
X135562500Y-80300000D03*
%TO.P,Q1,2,E*%
%TO.N,/~{RTS}*%
X135562500Y-82200000D03*
%TO.P,Q1,3,C*%
%TO.N,/EN*%
X137437500Y-81250000D03*
%TD*%
D11*
%TO.P,U3,1,VI*%
%TO.N,VBUS*%
X89100000Y-73950000D03*
%TO.P,U3,2,GND*%
%TO.N,GND*%
X89100000Y-76250000D03*
D12*
X95400000Y-76250000D03*
D11*
%TO.P,U3,3,VO*%
%TO.N,+3V3*%
X89100000Y-78550000D03*
%TD*%
D13*
%TO.P,R1,1*%
%TO.N,GND*%
X94000000Y-57525000D03*
%TO.P,R1,2*%
%TO.N,Net-(J1-PadA5)*%
X94000000Y-59175000D03*
%TD*%
D14*
%TO.P,J2,1,Pin_1*%
%TO.N,VBUS*%
X109356000Y-58616000D03*
D15*
%TO.P,J2,2,Pin_2*%
X111896000Y-58616000D03*
%TO.P,J2,3,Pin_3*%
%TO.N,+3V3*%
X109356000Y-61156000D03*
%TO.P,J2,4,Pin_4*%
X111896000Y-61156000D03*
%TO.P,J2,5,Pin_5*%
%TO.N,GND*%
X109356000Y-63696000D03*
%TO.P,J2,6,Pin_6*%
X111896000Y-63696000D03*
%TO.P,J2,7,Pin_7*%
%TO.N,/~{DCD}*%
X109356000Y-66236000D03*
%TO.P,J2,8,Pin_8*%
%TO.N,/~{RI}{slash}CLK*%
X111896000Y-66236000D03*
%TO.P,J2,9,Pin_9*%
%TO.N,/~{DTR}*%
X109356000Y-68776000D03*
%TO.P,J2,10,Pin_10*%
%TO.N,/SUSPEND*%
X111896000Y-68776000D03*
%TO.P,J2,11,Pin_11*%
%TO.N,/~{DSR}*%
X109356000Y-71316000D03*
%TO.P,J2,12,Pin_12*%
%TO.N,/~{SUSPEND}*%
X111896000Y-71316000D03*
%TO.P,J2,13,Pin_13*%
%TO.N,/TXD*%
X109356000Y-73856000D03*
%TO.P,J2,14,Pin_14*%
%TO.N,/~{TXT}{slash}GPIO0*%
X111896000Y-73856000D03*
%TO.P,J2,15,Pin_15*%
%TO.N,/RXD*%
X109356000Y-76396000D03*
%TO.P,J2,16,Pin_16*%
%TO.N,/~{RXT}{slash}GPIO1*%
X111896000Y-76396000D03*
%TO.P,J2,17,Pin_17*%
%TO.N,/~{RTS}*%
X109356000Y-78936000D03*
%TO.P,J2,18,Pin_18*%
%TO.N,/GPIO2*%
X111896000Y-78936000D03*
%TO.P,J2,19,Pin_19*%
%TO.N,/~{CTS}*%
X109356000Y-81476000D03*
%TO.P,J2,20,Pin_20*%
%TO.N,/GPIO3*%
X111896000Y-81476000D03*
%TD*%
D16*
%TO.P,D3,1,K*%
%TO.N,/~{TXT}{slash}GPIO0*%
X99500000Y-80712500D03*
%TO.P,D3,2,A*%
%TO.N,Net-(D3-Pad2)*%
X99500000Y-82287500D03*
%TD*%
D17*
%TO.P,R11,1*%
%TO.N,/~{RTS}*%
X133575000Y-82250000D03*
%TO.P,R11,2*%
%TO.N,Net-(Q2-Pad1)*%
X131925000Y-82250000D03*
%TD*%
%TO.P,R3,1*%
%TO.N,VBUS*%
X92325000Y-70000000D03*
%TO.P,R3,2*%
%TO.N,Net-(D1-Pad2)*%
X90675000Y-70000000D03*
%TD*%
D18*
%TO.P,C1,1*%
%TO.N,+3V3*%
X95500000Y-65525000D03*
%TO.P,C1,2*%
%TO.N,GND*%
X95500000Y-63975000D03*
%TD*%
D19*
%TO.P,R2,1*%
%TO.N,GND*%
X94000000Y-65575000D03*
%TO.P,R2,2*%
%TO.N,Net-(J1-PadB5)*%
X94000000Y-63925000D03*
%TD*%
D18*
%TO.P,C4,1*%
%TO.N,+3V3*%
X98500000Y-65525000D03*
%TO.P,C4,2*%
%TO.N,GND*%
X98500000Y-63975000D03*
%TD*%
D20*
%TO.P,R4,1*%
%TO.N,VBUS*%
X93925000Y-70000000D03*
%TO.P,R4,2*%
%TO.N,Net-(R4-Pad2)*%
X95575000Y-70000000D03*
%TD*%
D21*
%TO.P,U1,1,I/O1*%
%TO.N,/USB_CONN_DP*%
X94175000Y-60600000D03*
%TO.P,U1,2,GND*%
%TO.N,GND*%
X94175000Y-61550000D03*
%TO.P,U1,3,I/O2*%
%TO.N,/USB_CONN_DN*%
X94175000Y-62500000D03*
%TO.P,U1,4,I/O2*%
%TO.N,/USB_DN*%
X96450000Y-62500000D03*
%TO.P,U1,5,VBUS*%
%TO.N,VBUS*%
X96450000Y-61550000D03*
%TO.P,U1,6,I/O1*%
%TO.N,/USB_DP*%
X96450000Y-60600000D03*
%TD*%
D20*
%TO.P,R6,1*%
%TO.N,+3V3*%
X93925000Y-71500000D03*
%TO.P,R6,2*%
%TO.N,Net-(R6-Pad2)*%
X95575000Y-71500000D03*
%TD*%
D16*
%TO.P,D2,1,K*%
%TO.N,/~{RXT}{slash}GPIO1*%
X101000000Y-80712500D03*
%TO.P,D2,2,A*%
%TO.N,Net-(D2-Pad2)*%
X101000000Y-82287500D03*
%TD*%
D22*
%TO.P,C5,1*%
%TO.N,VBUS*%
X86750000Y-73475000D03*
%TO.P,C5,2*%
%TO.N,GND*%
X86750000Y-75025000D03*
%TD*%
D23*
%TO.P,U2,1,~{RI}/CLK*%
%TO.N,/~{RI}{slash}CLK*%
X101000000Y-67562500D03*
%TO.P,U2,2,GND*%
%TO.N,GND*%
X100500000Y-67562500D03*
%TO.P,U2,3,D+*%
%TO.N,/USB_DP*%
X100000000Y-67562500D03*
%TO.P,U2,4,D-*%
%TO.N,/USB_DN*%
X99500000Y-67562500D03*
%TO.P,U2,5,VIO*%
%TO.N,+3V3*%
X99000000Y-67562500D03*
%TO.P,U2,6,VDD*%
X98500000Y-67562500D03*
D24*
%TO.P,U2,7,VREGIN*%
X97812500Y-68250000D03*
%TO.P,U2,8,VBUS*%
%TO.N,Net-(R4-Pad2)*%
X97812500Y-68750000D03*
%TO.P,U2,9,~{RST}*%
%TO.N,Net-(R6-Pad2)*%
X97812500Y-69250000D03*
%TO.P,U2,10,NC*%
%TO.N,unconnected-(U2-Pad10)*%
X97812500Y-69750000D03*
%TO.P,U2,11,~{WAKEUP}/GPIO.3*%
%TO.N,/GPIO3*%
X97812500Y-70250000D03*
%TO.P,U2,12,RS485/GPIO.2*%
%TO.N,/GPIO2*%
X97812500Y-70750000D03*
D23*
%TO.P,U2,13,~{RXT}/GPIO.1*%
%TO.N,/~{RXT}{slash}GPIO1*%
X98500000Y-71437500D03*
%TO.P,U2,14,~{TXT}/GPIO.0*%
%TO.N,/~{TXT}{slash}GPIO0*%
X99000000Y-71437500D03*
%TO.P,U2,15,~{SUSPEND}*%
%TO.N,/~{SUSPEND}*%
X99500000Y-71437500D03*
%TO.P,U2,16,NC*%
%TO.N,unconnected-(U2-Pad16)*%
X100000000Y-71437500D03*
%TO.P,U2,17,SUSPEND*%
%TO.N,/SUSPEND*%
X100500000Y-71437500D03*
%TO.P,U2,18,~{CTS}*%
%TO.N,/~{CTS}*%
X101000000Y-71437500D03*
D24*
%TO.P,U2,19,~{RTS}*%
%TO.N,/~{RTS}*%
X101687500Y-70750000D03*
%TO.P,U2,20,RXD*%
%TO.N,/RXD*%
X101687500Y-70250000D03*
%TO.P,U2,21,TXD*%
%TO.N,/TXD*%
X101687500Y-69750000D03*
%TO.P,U2,22,~{DSR}*%
%TO.N,/~{DSR}*%
X101687500Y-69250000D03*
%TO.P,U2,23,~{DTR}*%
%TO.N,/~{DTR}*%
X101687500Y-68750000D03*
%TO.P,U2,24,~{DCD}*%
%TO.N,/~{DCD}*%
X101687500Y-68250000D03*
D25*
%TO.P,U2,25,GND*%
%TO.N,GND*%
X99750000Y-69500000D03*
%TD*%
D26*
%TO.P,C2,1*%
%TO.N,+3V3*%
X95525000Y-67000000D03*
%TO.P,C2,2*%
%TO.N,GND*%
X93975000Y-67000000D03*
%TD*%
D13*
%TO.P,R9,1*%
%TO.N,+3V3*%
X98000000Y-80675000D03*
%TO.P,R9,2*%
%TO.N,Net-(D3-Pad2)*%
X98000000Y-82325000D03*
%TD*%
D18*
%TO.P,C3,1*%
%TO.N,+3V3*%
X97000000Y-65525000D03*
%TO.P,C3,2*%
%TO.N,GND*%
X97000000Y-63975000D03*
%TD*%
D20*
%TO.P,R10,1*%
%TO.N,/~{DTR}*%
X131925000Y-80250000D03*
%TO.P,R10,2*%
%TO.N,Net-(Q1-Pad1)*%
X133575000Y-80250000D03*
%TD*%
D27*
%TO.P,J4,1,Pin_1*%
%TO.N,/~{DTR}*%
X128750000Y-76000000D03*
D28*
%TO.P,J4,2,Pin_2*%
%TO.N,/~{RTS}*%
X128750000Y-73500000D03*
%TO.P,J4,3,Pin_3*%
%TO.N,/RXD*%
X128750000Y-71000000D03*
%TO.P,J4,4,Pin_4*%
%TO.N,/TXD*%
X128750000Y-68500000D03*
%TO.P,J4,5,Pin_5*%
%TO.N,GND*%
X128750000Y-66000000D03*
%TO.P,J4,6,Pin_6*%
%TO.N,+3V3*%
X128750000Y-63500000D03*
%TD*%
D29*
%TO.P,D1,1,K*%
%TO.N,GND*%
X92287500Y-68500000D03*
%TO.P,D1,2,A*%
%TO.N,Net-(D1-Pad2)*%
X90712500Y-68500000D03*
%TD*%
D30*
%TO.P,J1,A1,GND*%
%TO.N,GND*%
X91600000Y-58717011D03*
%TO.P,J1,A4,VBUS*%
%TO.N,Net-(F1-Pad1)*%
X91600000Y-59467011D03*
D31*
%TO.P,J1,A5,CC1*%
%TO.N,Net-(J1-PadA5)*%
X91600000Y-60067011D03*
%TO.P,J1,A6,D+*%
%TO.N,/USB_CONN_DP*%
X91600000Y-61567011D03*
%TO.P,J1,A7,D-*%
%TO.N,/USB_CONN_DN*%
X91600000Y-62567011D03*
%TO.P,J1,A8,SBU1*%
%TO.N,unconnected-(J1-PadA8)*%
X91600000Y-63567011D03*
D30*
%TO.P,J1,A9,VBUS*%
%TO.N,Net-(F1-Pad1)*%
X91600000Y-64167011D03*
%TO.P,J1,A12,GND*%
%TO.N,GND*%
X91600000Y-64917011D03*
D31*
%TO.P,J1,B5,CC2*%
%TO.N,Net-(J1-PadB5)*%
X91600000Y-63067011D03*
%TO.P,J1,B6,D+*%
%TO.N,/USB_CONN_DP*%
X91600000Y-62067011D03*
%TO.P,J1,B7,D-*%
%TO.N,/USB_CONN_DN*%
X91600000Y-61067011D03*
%TO.P,J1,B8,SBU2*%
%TO.N,unconnected-(J1-PadB8)*%
X91600000Y-60567011D03*
D32*
%TO.P,J1,S1,SHIELD*%
%TO.N,Earth*%
X87400000Y-57497011D03*
D33*
X87400000Y-63217011D03*
D32*
X87400000Y-66137011D03*
D33*
X87400000Y-60417011D03*
D34*
X91225000Y-66137011D03*
X91225000Y-57497011D03*
%TD*%
D35*
%TO.P,Q2,1,B*%
%TO.N,Net-(Q2-Pad1)*%
X129937500Y-82200000D03*
%TO.P,Q2,2,E*%
%TO.N,/~{DTR}*%
X129937500Y-80300000D03*
%TO.P,Q2,3,C*%
%TO.N,/IO0*%
X128062500Y-81250000D03*
%TD*%
D13*
%TO.P,R7,1*%
%TO.N,/~{SUSPEND}*%
X98000000Y-77675000D03*
%TO.P,R7,2*%
%TO.N,GND*%
X98000000Y-79325000D03*
%TD*%
D36*
%TO.P,F1,1*%
%TO.N,Net-(F1-Pad1)*%
X87150000Y-68400000D03*
%TO.P,F1,2*%
%TO.N,VBUS*%
X87150000Y-71200000D03*
%TD*%
D17*
%TO.P,R5,1*%
%TO.N,Net-(R4-Pad2)*%
X95575000Y-68500000D03*
%TO.P,R5,2*%
%TO.N,GND*%
X93925000Y-68500000D03*
%TD*%
D27*
%TO.P,J3,1,Pin_1*%
%TO.N,/EN*%
X136000000Y-76000000D03*
D28*
%TO.P,J3,2,Pin_2*%
%TO.N,/IO0*%
X136000000Y-73500000D03*
%TO.P,J3,3,Pin_3*%
%TO.N,/RXD*%
X136000000Y-71000000D03*
%TO.P,J3,4,Pin_4*%
%TO.N,/TXD*%
X136000000Y-68500000D03*
%TO.P,J3,5,Pin_5*%
%TO.N,GND*%
X136000000Y-66000000D03*
%TO.P,J3,6,Pin_6*%
%TO.N,+3V3*%
X136000000Y-63500000D03*
%TD*%
D18*
%TO.P,C6,1*%
%TO.N,+3V3*%
X86750000Y-79025000D03*
%TO.P,C6,2*%
%TO.N,GND*%
X86750000Y-77475000D03*
%TD*%
D13*
%TO.P,R8,1*%
%TO.N,+3V3*%
X96500000Y-80675000D03*
%TO.P,R8,2*%
%TO.N,Net-(D2-Pad2)*%
X96500000Y-82325000D03*
%TD*%
D37*
%TO.N,VBUS*%
X97562500Y-61550000D03*
D38*
X89000000Y-72000000D03*
X91000000Y-72000000D03*
X90000000Y-72000000D03*
%TO.N,GND*%
X91750000Y-75000000D03*
X91750000Y-77500000D03*
D37*
X99000000Y-70250000D03*
X97100000Y-79300000D03*
D38*
X120000000Y-66250000D03*
X97000000Y-56750000D03*
X120000000Y-63500000D03*
X107000000Y-56750000D03*
X112000000Y-56750000D03*
D37*
X100599500Y-66721993D03*
X93150000Y-61550000D03*
D38*
X101000000Y-61500000D03*
X142000000Y-56750000D03*
D37*
X100500000Y-68750000D03*
X86300000Y-76200000D03*
X100500000Y-70250000D03*
D38*
X137000000Y-56750000D03*
X117000000Y-56750000D03*
D37*
X87200000Y-76200000D03*
D38*
X93500000Y-76250000D03*
X93500000Y-75000000D03*
X132000000Y-56750000D03*
X142000000Y-81000000D03*
D37*
X99750000Y-69500000D03*
D38*
X94750000Y-79000000D03*
X94750000Y-73500000D03*
X92750000Y-64625000D03*
D37*
X94000000Y-56809022D03*
D38*
X96000000Y-79000000D03*
X96000000Y-73500000D03*
X91750000Y-76250000D03*
X142000000Y-61500000D03*
X122000000Y-56750000D03*
X127000000Y-56750000D03*
X102000000Y-56750000D03*
X122000000Y-81000000D03*
X125000000Y-81000000D03*
D37*
X99000000Y-68750000D03*
D38*
X92750000Y-58875000D03*
X142000000Y-77750000D03*
X93500000Y-77500000D03*
D37*
%TO.N,+3V3*%
X97750000Y-67250000D03*
X95600000Y-80700000D03*
X98500000Y-66500000D03*
X97750000Y-66500000D03*
D38*
X86800000Y-80700000D03*
X88250000Y-80700000D03*
X89700000Y-80700000D03*
D37*
X93950000Y-72350000D03*
D38*
%TO.N,Earth*%
X88250000Y-59375000D03*
X88250000Y-61875000D03*
X88250000Y-64375000D03*
X86500000Y-64375000D03*
X86500000Y-59375000D03*
X86500000Y-61875000D03*
D37*
%TO.N,/~{RXT}{slash}GPIO1*%
X101000000Y-79750000D03*
X102000000Y-75500000D03*
%TO.N,/~{TXT}{slash}GPIO0*%
X102000000Y-74500000D03*
X99500000Y-79750000D03*
%TO.N,/SUSPEND*%
X102000000Y-72500000D03*
%TO.N,/~{SUSPEND}*%
X102000000Y-73500000D03*
X98000000Y-76750000D03*
%TO.N,/GPIO2*%
X102000000Y-77750000D03*
%TO.N,/GPIO3*%
X102000000Y-78750000D03*
%TD*%
D39*
%TO.N,VBUS*%
X96450000Y-61550000D02*
X97562500Y-61550000D01*
%TO.N,GND*%
X94175000Y-61550000D02*
X93150000Y-61550000D01*
D40*
X92457989Y-64917011D02*
X92750000Y-64625000D01*
D41*
X97125000Y-79325000D02*
X97100000Y-79300000D01*
D40*
X91600000Y-58717011D02*
X92592011Y-58717011D01*
X92592011Y-58717011D02*
X92750000Y-58875000D01*
D41*
X100500000Y-67562500D02*
X100500000Y-66821493D01*
X94000000Y-57525000D02*
X94000000Y-56809022D01*
X100500000Y-66821493D02*
X100599500Y-66721993D01*
D40*
X91600000Y-64917011D02*
X92457989Y-64917011D01*
D41*
X98000000Y-79325000D02*
X97125000Y-79325000D01*
%TO.N,+3V3*%
X96500000Y-80675000D02*
X95625000Y-80675000D01*
X93950000Y-72350000D02*
X93950000Y-71525000D01*
X98000000Y-80675000D02*
X96500000Y-80675000D01*
X95625000Y-80675000D02*
X95600000Y-80700000D01*
%TO.N,Net-(J1-PadA5)*%
X91600000Y-60067011D02*
X93107989Y-60067011D01*
X93107989Y-60067011D02*
X94000000Y-59175000D01*
%TO.N,/USB_CONN_DN*%
X90800000Y-61067011D02*
X90571786Y-61295225D01*
X91600000Y-61067011D02*
X90800000Y-61067011D01*
X90571786Y-62428214D02*
X90710583Y-62567011D01*
X91600000Y-62567011D02*
X94107989Y-62567011D01*
X90710583Y-62567011D02*
X91600000Y-62567011D01*
X90571786Y-61295225D02*
X90571786Y-62428214D01*
%TO.N,/USB_CONN_DP*%
X92234022Y-61567011D02*
X92550000Y-61251033D01*
X92550000Y-61251033D02*
X92550000Y-60900000D01*
X92182989Y-62067011D02*
X92250000Y-62000000D01*
X92250000Y-62000000D02*
X92250000Y-61582989D01*
X92250000Y-61582989D02*
X92234022Y-61567011D01*
X92850000Y-60600000D02*
X94175000Y-60600000D01*
X91600000Y-61567011D02*
X92234022Y-61567011D01*
X91600000Y-62067011D02*
X92182989Y-62067011D01*
X92550000Y-60900000D02*
X92850000Y-60600000D01*
%TO.N,Net-(J1-PadB5)*%
X93100000Y-63925000D02*
X94000000Y-63925000D01*
X92242011Y-63067011D02*
X93100000Y-63925000D01*
X91600000Y-63067011D02*
X92242011Y-63067011D01*
%TO.N,/TXD*%
X125937500Y-68500000D02*
X128750000Y-68500000D01*
D42*
X101687500Y-69750000D02*
X105944981Y-69750000D01*
D41*
X109356000Y-73856000D02*
X110650000Y-75150000D01*
D42*
X105944981Y-69750000D02*
X109356000Y-73161019D01*
D41*
X119287500Y-75150000D02*
X125937500Y-68500000D01*
X110650000Y-75150000D02*
X119287500Y-75150000D01*
%TO.N,/RXD*%
X126000000Y-71000000D02*
X128750000Y-71000000D01*
X109356000Y-76396000D02*
X110610000Y-77650000D01*
D42*
X108000000Y-75040000D02*
X108000000Y-72370011D01*
X105879989Y-70250000D02*
X101687500Y-70250000D01*
X108000000Y-72370011D02*
X105879989Y-70250000D01*
D41*
X110610000Y-77650000D02*
X119350000Y-77650000D01*
D42*
X109356000Y-76396000D02*
X108000000Y-75040000D01*
D41*
X119350000Y-77650000D02*
X126000000Y-71000000D01*
D42*
%TO.N,/USB_DP*%
X100000000Y-62500000D02*
X98100000Y-60600000D01*
X98100000Y-60600000D02*
X96450000Y-60600000D01*
X100000000Y-67562500D02*
X100000000Y-62500000D01*
%TO.N,/USB_DN*%
X96450000Y-62500000D02*
X98750000Y-62500000D01*
X99500000Y-63250000D02*
X99500000Y-67562500D01*
X98750000Y-62500000D02*
X99500000Y-63250000D01*
%TO.N,Net-(D1-Pad2)*%
X90712500Y-68500000D02*
X90712500Y-69962500D01*
%TO.N,Net-(D2-Pad2)*%
X96500000Y-82325000D02*
X97274520Y-81550480D01*
X97274520Y-81550480D02*
X100262980Y-81550480D01*
X100262980Y-81550480D02*
X101000000Y-82287500D01*
%TO.N,Net-(D3-Pad2)*%
X99500000Y-82287500D02*
X98037500Y-82287500D01*
D39*
%TO.N,Net-(F1-Pad1)*%
X90000000Y-63825000D02*
X89500000Y-63325000D01*
X91600000Y-59467011D02*
X90876033Y-59467011D01*
D43*
X88350000Y-68400000D02*
X87150000Y-68400000D01*
X89500000Y-60825000D02*
X90500000Y-59825000D01*
D39*
X89750000Y-64075000D02*
X89500000Y-64075000D01*
X90000000Y-63825000D02*
X89750000Y-64075000D01*
D43*
X89500000Y-63325000D02*
X89500000Y-64075000D01*
D39*
X91600000Y-64167011D02*
X91034981Y-64167011D01*
D43*
X89500000Y-67250000D02*
X88350000Y-68400000D01*
X89500000Y-64075000D02*
X89500000Y-67250000D01*
X89500000Y-63325000D02*
X89500000Y-60825000D01*
D39*
X90000000Y-63825000D02*
X89500000Y-63825000D01*
X90692970Y-63825000D02*
X90000000Y-63825000D01*
X90876033Y-59467011D02*
X90518044Y-59825000D01*
X90518044Y-59825000D02*
X90500000Y-59825000D01*
X91034981Y-64167011D02*
X90692970Y-63825000D01*
D42*
%TO.N,Net-(R4-Pad2)*%
X95575000Y-70000000D02*
X95575000Y-68500000D01*
X97812500Y-68750000D02*
X96750000Y-68750000D01*
X96500000Y-68500000D02*
X95575000Y-68500000D01*
X96750000Y-68750000D02*
X96500000Y-68500000D01*
%TO.N,Net-(R6-Pad2)*%
X96500000Y-71250000D02*
X96500000Y-69750000D01*
X96500000Y-69750000D02*
X97000000Y-69250000D01*
X96250000Y-71500000D02*
X96500000Y-71250000D01*
X97000000Y-69250000D02*
X97812500Y-69250000D01*
X95575000Y-71500000D02*
X96250000Y-71500000D01*
D41*
%TO.N,/EN*%
X137437500Y-81250000D02*
X137437500Y-77437500D01*
X137437500Y-77437500D02*
X136000000Y-76000000D01*
%TO.N,/IO0*%
X132250000Y-81250000D02*
X132750000Y-80750000D01*
X132750000Y-80750000D02*
X132750000Y-76500000D01*
X128062500Y-81250000D02*
X132250000Y-81250000D01*
X132750000Y-76500000D02*
X135750000Y-73500000D01*
%TO.N,Net-(Q1-Pad1)*%
X135562500Y-80300000D02*
X133625000Y-80300000D01*
%TO.N,Net-(Q2-Pad1)*%
X129937500Y-82200000D02*
X131875000Y-82200000D01*
D42*
%TO.N,/~{RXT}{slash}GPIO1*%
X101000000Y-80712500D02*
X101000000Y-79750000D01*
X98500000Y-71437500D02*
X98500000Y-73250000D01*
X100750000Y-75500000D02*
X102000000Y-75500000D01*
X98500000Y-73250000D02*
X100750000Y-75500000D01*
%TO.N,/~{TXT}{slash}GPIO0*%
X100750000Y-74500000D02*
X102000000Y-74500000D01*
X99500000Y-80712500D02*
X99500000Y-79750000D01*
X99000000Y-71437500D02*
X99000000Y-72750000D01*
X99000000Y-72750000D02*
X100750000Y-74500000D01*
%TO.N,/~{DCD}*%
X101687500Y-68250000D02*
X107342000Y-68250000D01*
X107342000Y-68250000D02*
X109356000Y-66236000D01*
%TO.N,/SUSPEND*%
X100500000Y-72250000D02*
X100750000Y-72500000D01*
X100750000Y-72500000D02*
X102000000Y-72500000D01*
X100500000Y-71437500D02*
X100500000Y-72250000D01*
D41*
%TO.N,/~{DTR}*%
X129750000Y-67250000D02*
X122250000Y-67250000D01*
D42*
X101713500Y-68776000D02*
X109356000Y-68776000D01*
D41*
X129937500Y-80300000D02*
X129050000Y-80300000D01*
X128750000Y-80000000D02*
X128750000Y-76000000D01*
X110630000Y-70050000D02*
X109356000Y-68776000D01*
X129050000Y-80300000D02*
X128750000Y-80000000D01*
X128750000Y-76000000D02*
X130750000Y-74000000D01*
X130750000Y-68250000D02*
X129750000Y-67250000D01*
X129937500Y-80300000D02*
X131875000Y-80300000D01*
X122250000Y-67250000D02*
X119450000Y-70050000D01*
X130750000Y-74000000D02*
X130750000Y-68250000D01*
X119450000Y-70050000D02*
X110630000Y-70050000D01*
D42*
%TO.N,/~{SUSPEND}*%
X99500000Y-71437500D02*
X99500000Y-72250000D01*
X98000000Y-77675000D02*
X98000000Y-76750000D01*
X100750000Y-73500000D02*
X102000000Y-73500000D01*
X99500000Y-72250000D02*
X100750000Y-73500000D01*
%TO.N,/~{DSR}*%
X101687500Y-69250000D02*
X107290000Y-69250000D01*
X107290000Y-69250000D02*
X109356000Y-71316000D01*
%TO.N,/GPIO2*%
X97812500Y-70750000D02*
X97812500Y-73562500D01*
X97812500Y-73562500D02*
X102000000Y-77750000D01*
%TO.N,/~{RTS}*%
X105814994Y-70750000D02*
X107500000Y-72435006D01*
X107500000Y-77080000D02*
X109356000Y-78936000D01*
D41*
X126750000Y-82000000D02*
X126750000Y-75500000D01*
X126125000Y-73500000D02*
X128750000Y-73500000D01*
X135562500Y-82200000D02*
X133625000Y-82200000D01*
X133575000Y-82250000D02*
X132750480Y-83074520D01*
D42*
X107500000Y-72435006D02*
X107500000Y-77080000D01*
D41*
X109356000Y-78936000D02*
X110670000Y-80250000D01*
X126750000Y-75500000D02*
X128750000Y-73500000D01*
X119375000Y-80250000D02*
X126125000Y-73500000D01*
X110670000Y-80250000D02*
X119375000Y-80250000D01*
X132750480Y-83074520D02*
X127824520Y-83074520D01*
X127824520Y-83074520D02*
X126750000Y-82000000D01*
D42*
X101687500Y-70750000D02*
X105814994Y-70750000D01*
%TO.N,/GPIO3*%
X97000000Y-70500000D02*
X97000000Y-73750000D01*
X97250000Y-70250000D02*
X97000000Y-70500000D01*
X97812500Y-70250000D02*
X97250000Y-70250000D01*
X97000000Y-73750000D02*
X102000000Y-78750000D01*
%TO.N,/~{CTS}*%
X101000000Y-71437500D02*
X105937500Y-71437500D01*
X105937500Y-71437500D02*
X107000000Y-72500000D01*
X107000000Y-79120000D02*
X109356000Y-81476000D01*
X107000000Y-72500000D02*
X107000000Y-79120000D01*
%TO.N,/~{RI}{slash}CLK*%
X111896000Y-66236000D02*
X110660000Y-65000000D01*
X105937500Y-67562500D02*
X101000000Y-67562500D01*
X110660000Y-65000000D02*
X108500000Y-65000000D01*
X108500000Y-65000000D02*
X105937500Y-67562500D01*
%TD*%
%TA.AperFunction,Conductor*%
%TO.N,GND*%
G36*
X142238227Y-56235507D02*
G01*
X142249642Y-56238132D01*
X142260517Y-56235671D01*
X142271664Y-56235691D01*
X142271664Y-56235852D01*
X142281669Y-56235065D01*
X142353759Y-56239790D01*
X142478475Y-56247964D01*
X142491302Y-56249652D01*
X142709516Y-56293057D01*
X142722016Y-56296407D01*
X142858988Y-56342903D01*
X142932691Y-56367922D01*
X142944653Y-56372878D01*
X143019596Y-56409835D01*
X143144180Y-56471273D01*
X143155386Y-56477742D01*
X143340385Y-56601354D01*
X143350639Y-56609222D01*
X143498038Y-56738488D01*
X143517914Y-56755919D01*
X143527069Y-56765074D01*
X143673767Y-56932350D01*
X143681635Y-56942604D01*
X143805247Y-57127603D01*
X143811716Y-57138809D01*
X143910111Y-57338335D01*
X143915067Y-57350297D01*
X143968645Y-57508131D01*
X143986581Y-57560969D01*
X143989932Y-57573473D01*
X144024300Y-57746252D01*
X144033336Y-57791680D01*
X144035025Y-57804512D01*
X144047891Y-58000805D01*
X144047101Y-58010617D01*
X144047375Y-58010617D01*
X144047355Y-58021767D01*
X144044857Y-58032631D01*
X144047317Y-58043503D01*
X144047317Y-58043505D01*
X144047559Y-58044572D01*
X144050000Y-58066421D01*
X144050000Y-81999029D01*
X144047482Y-82021216D01*
X144044857Y-82032631D01*
X144047318Y-82043506D01*
X144047298Y-82054653D01*
X144047137Y-82054653D01*
X144047924Y-82064658D01*
X144046385Y-82088138D01*
X144035482Y-82254503D01*
X144035026Y-82261458D01*
X144033337Y-82274291D01*
X143996110Y-82461446D01*
X143989933Y-82492500D01*
X143986582Y-82505005D01*
X143922079Y-82695024D01*
X143915067Y-82715680D01*
X143910111Y-82727643D01*
X143811716Y-82927169D01*
X143805247Y-82938375D01*
X143681635Y-83123374D01*
X143673767Y-83133628D01*
X143541003Y-83285016D01*
X143527070Y-83300903D01*
X143517915Y-83310058D01*
X143350639Y-83456756D01*
X143340385Y-83464624D01*
X143155386Y-83588236D01*
X143144180Y-83594705D01*
X142965697Y-83682723D01*
X142944654Y-83693100D01*
X142932692Y-83698056D01*
X142722016Y-83769571D01*
X142709516Y-83772921D01*
X142491302Y-83816326D01*
X142478477Y-83818014D01*
X142282181Y-83830880D01*
X142272372Y-83830090D01*
X142272372Y-83830364D01*
X142261222Y-83830344D01*
X142250358Y-83827846D01*
X142239486Y-83830306D01*
X142239484Y-83830306D01*
X142238417Y-83830548D01*
X142216568Y-83832989D01*
X87283960Y-83832989D01*
X87261773Y-83830471D01*
X87250358Y-83827846D01*
X87239483Y-83830307D01*
X87228336Y-83830287D01*
X87228336Y-83830126D01*
X87218331Y-83830913D01*
X87146241Y-83826188D01*
X87021525Y-83818014D01*
X87008698Y-83816326D01*
X86790484Y-83772921D01*
X86777984Y-83769571D01*
X86567308Y-83698056D01*
X86555346Y-83693100D01*
X86534304Y-83682723D01*
X86355820Y-83594705D01*
X86344614Y-83588236D01*
X86159615Y-83464624D01*
X86149361Y-83456756D01*
X85982085Y-83310058D01*
X85972930Y-83300903D01*
X85958997Y-83285016D01*
X85826233Y-83133628D01*
X85818365Y-83123374D01*
X85694753Y-82938375D01*
X85688284Y-82927169D01*
X85589889Y-82727643D01*
X85584933Y-82715680D01*
X85577921Y-82695024D01*
X85513418Y-82505005D01*
X85510067Y-82492500D01*
X85503890Y-82461446D01*
X85466663Y-82274291D01*
X85464974Y-82261459D01*
X85464519Y-82254503D01*
X85452109Y-82065170D01*
X85452899Y-82055361D01*
X85452625Y-82055361D01*
X85452645Y-82044211D01*
X85455143Y-82033347D01*
X85452683Y-82022475D01*
X85452683Y-82022473D01*
X85452441Y-82021406D01*
X85450000Y-81999557D01*
X85450000Y-81240248D01*
X85900000Y-81240248D01*
X85900963Y-81259850D01*
X85901082Y-81261055D01*
X85901083Y-81261073D01*
X85901110Y-81261345D01*
X85902865Y-81279163D01*
X85905745Y-81298578D01*
X85919031Y-81365373D01*
X85930411Y-81402891D01*
X85945193Y-81438579D01*
X85963675Y-81473157D01*
X85965018Y-81475167D01*
X85977544Y-81493913D01*
X85995987Y-81521516D01*
X86020861Y-81551824D01*
X86048176Y-81579139D01*
X86078484Y-81604013D01*
X86080506Y-81605364D01*
X86080510Y-81605367D01*
X86090647Y-81612140D01*
X86126843Y-81636325D01*
X86161421Y-81654807D01*
X86178145Y-81661734D01*
X86194868Y-81668661D01*
X86194872Y-81668662D01*
X86197109Y-81669589D01*
X86234627Y-81680969D01*
X86301422Y-81694255D01*
X86320837Y-81697135D01*
X86322039Y-81697253D01*
X86322044Y-81697254D01*
X86338927Y-81698917D01*
X86338945Y-81698918D01*
X86340150Y-81699037D01*
X86341349Y-81699096D01*
X86341364Y-81699097D01*
X86349574Y-81699500D01*
X86359752Y-81700000D01*
X90540248Y-81700000D01*
X90550426Y-81699500D01*
X90558636Y-81699097D01*
X90558651Y-81699096D01*
X90559850Y-81699037D01*
X90561055Y-81698918D01*
X90561073Y-81698917D01*
X90577956Y-81697254D01*
X90577961Y-81697253D01*
X90579163Y-81697135D01*
X90598578Y-81694255D01*
X90665373Y-81680969D01*
X90702891Y-81669589D01*
X90705128Y-81668662D01*
X90705132Y-81668661D01*
X90721855Y-81661734D01*
X90738579Y-81654807D01*
X90773157Y-81636325D01*
X90809353Y-81612140D01*
X90819490Y-81605367D01*
X90819494Y-81605364D01*
X90821516Y-81604013D01*
X90851824Y-81579139D01*
X90879139Y-81551824D01*
X90904013Y-81521516D01*
X90922457Y-81493913D01*
X90934982Y-81475167D01*
X90936325Y-81473157D01*
X90954807Y-81438579D01*
X90969589Y-81402891D01*
X90980969Y-81365373D01*
X90994255Y-81298578D01*
X90997135Y-81279163D01*
X90998890Y-81261345D01*
X90998917Y-81261073D01*
X90998918Y-81261055D01*
X90999037Y-81259850D01*
X91000000Y-81240248D01*
X91000000Y-80693823D01*
X95094391Y-80693823D01*
X95095306Y-80700820D01*
X95095306Y-80700821D01*
X95110480Y-80816859D01*
X95112980Y-80835979D01*
X95115821Y-80842435D01*
X95115821Y-80842436D01*
X95146371Y-80911865D01*
X95170720Y-80967203D01*
X95203667Y-81006398D01*
X95258431Y-81071549D01*
X95258434Y-81071551D01*
X95262970Y-81076948D01*
X95382313Y-81156390D01*
X95460290Y-81180751D01*
X95512425Y-81197039D01*
X95512426Y-81197039D01*
X95519157Y-81199142D01*
X95590828Y-81200456D01*
X95655445Y-81201641D01*
X95655447Y-81201641D01*
X95662499Y-81201770D01*
X95669302Y-81199915D01*
X95669304Y-81199915D01*
X95791988Y-81166467D01*
X95800817Y-81164060D01*
X95809886Y-81158492D01*
X95825232Y-81149069D01*
X95884714Y-81134732D01*
X95941262Y-81158097D01*
X95947038Y-81163430D01*
X95986658Y-81203050D01*
X95993595Y-81206585D01*
X95993597Y-81206586D01*
X96082564Y-81251917D01*
X96099696Y-81260646D01*
X96107390Y-81261865D01*
X96107391Y-81261865D01*
X96189635Y-81274891D01*
X96189637Y-81274891D01*
X96193481Y-81275500D01*
X96499960Y-81275500D01*
X96806518Y-81275499D01*
X96810361Y-81274890D01*
X96810366Y-81274890D01*
X96847221Y-81269053D01*
X96883437Y-81263317D01*
X96943868Y-81272889D01*
X96987132Y-81316154D01*
X96996703Y-81376586D01*
X96968926Y-81431102D01*
X96704524Y-81695504D01*
X96650007Y-81723281D01*
X96634520Y-81724500D01*
X96235286Y-81724501D01*
X96193482Y-81724501D01*
X96189639Y-81725110D01*
X96189634Y-81725110D01*
X96153405Y-81730848D01*
X96099696Y-81739354D01*
X96059327Y-81759923D01*
X95993597Y-81793414D01*
X95993595Y-81793415D01*
X95986658Y-81796950D01*
X95896950Y-81886658D01*
X95893415Y-81893595D01*
X95893414Y-81893597D01*
X95861574Y-81956087D01*
X95839354Y-81999696D01*
X95838135Y-82007390D01*
X95838135Y-82007391D01*
X95827099Y-82077071D01*
X95824500Y-82093481D01*
X95824501Y-82556518D01*
X95825110Y-82560361D01*
X95825110Y-82560366D01*
X95826542Y-82569407D01*
X95839354Y-82650304D01*
X95856405Y-82683768D01*
X95889547Y-82748812D01*
X95896950Y-82763342D01*
X95986658Y-82853050D01*
X95993595Y-82856585D01*
X95993597Y-82856586D01*
X96091392Y-82906415D01*
X96099696Y-82910646D01*
X96107390Y-82911865D01*
X96107391Y-82911865D01*
X96189635Y-82924891D01*
X96189637Y-82924891D01*
X96193481Y-82925500D01*
X96499960Y-82925500D01*
X96806518Y-82925499D01*
X96810361Y-82924890D01*
X96810366Y-82924890D01*
X96847217Y-82919053D01*
X96900304Y-82910646D01*
X96956823Y-82881848D01*
X97006403Y-82856586D01*
X97006405Y-82856585D01*
X97013342Y-82853050D01*
X97103050Y-82763342D01*
X97110454Y-82748812D01*
X97160646Y-82650304D01*
X97162886Y-82651445D01*
X97191808Y-82611636D01*
X97249999Y-82592728D01*
X97308190Y-82611635D01*
X97337114Y-82651445D01*
X97339354Y-82650304D01*
X97389547Y-82748812D01*
X97396950Y-82763342D01*
X97486658Y-82853050D01*
X97493595Y-82856585D01*
X97493597Y-82856586D01*
X97591392Y-82906415D01*
X97599696Y-82910646D01*
X97607390Y-82911865D01*
X97607391Y-82911865D01*
X97689635Y-82924891D01*
X97689637Y-82924891D01*
X97693481Y-82925500D01*
X97999960Y-82925500D01*
X98306518Y-82925499D01*
X98310361Y-82924890D01*
X98310366Y-82924890D01*
X98347217Y-82919053D01*
X98400304Y-82910646D01*
X98456823Y-82881848D01*
X98506403Y-82856586D01*
X98506405Y-82856585D01*
X98513342Y-82853050D01*
X98603050Y-82763342D01*
X98610454Y-82748812D01*
X98643595Y-82683768D01*
X98660646Y-82650304D01*
X98661501Y-82650739D01*
X98693343Y-82606909D01*
X98751536Y-82588000D01*
X98754201Y-82588000D01*
X98812392Y-82606907D01*
X98842410Y-82642054D01*
X98850150Y-82657244D01*
X98883053Y-82721819D01*
X98900342Y-82755751D01*
X98994249Y-82849658D01*
X99001186Y-82853193D01*
X99001188Y-82853194D01*
X99105640Y-82906415D01*
X99112580Y-82909951D01*
X99120273Y-82911170D01*
X99120275Y-82911170D01*
X99206908Y-82924891D01*
X99206910Y-82924891D01*
X99210754Y-82925500D01*
X99789246Y-82925500D01*
X99793090Y-82924891D01*
X99793092Y-82924891D01*
X99879725Y-82911170D01*
X99879727Y-82911170D01*
X99887420Y-82909951D01*
X99894360Y-82906415D01*
X99998812Y-82853194D01*
X99998814Y-82853193D01*
X100005751Y-82849658D01*
X100099658Y-82755751D01*
X100116948Y-82721819D01*
X100159951Y-82637420D01*
X100161564Y-82638242D01*
X100191809Y-82596613D01*
X100249999Y-82577705D01*
X100308190Y-82596612D01*
X100338436Y-82638242D01*
X100340049Y-82637420D01*
X100383053Y-82721819D01*
X100400342Y-82755751D01*
X100494249Y-82849658D01*
X100501186Y-82853193D01*
X100501188Y-82853194D01*
X100605640Y-82906415D01*
X100612580Y-82909951D01*
X100620273Y-82911170D01*
X100620275Y-82911170D01*
X100706908Y-82924891D01*
X100706910Y-82924891D01*
X100710754Y-82925500D01*
X101289246Y-82925500D01*
X101293090Y-82924891D01*
X101293092Y-82924891D01*
X101379725Y-82911170D01*
X101379727Y-82911170D01*
X101387420Y-82909951D01*
X101394360Y-82906415D01*
X101498812Y-82853194D01*
X101498814Y-82853193D01*
X101505751Y-82849658D01*
X101599658Y-82755751D01*
X101616948Y-82721819D01*
X101656415Y-82644360D01*
X101656415Y-82644359D01*
X101659951Y-82637420D01*
X101664784Y-82606909D01*
X101674891Y-82543092D01*
X101674891Y-82543090D01*
X101675500Y-82539246D01*
X101675500Y-82035754D01*
X101673228Y-82021406D01*
X101661170Y-81945275D01*
X101661170Y-81945273D01*
X101659951Y-81937580D01*
X101641188Y-81900755D01*
X101603194Y-81826188D01*
X101603193Y-81826186D01*
X101599658Y-81819249D01*
X101505751Y-81725342D01*
X101498814Y-81721807D01*
X101498812Y-81721806D01*
X101394360Y-81668585D01*
X101394359Y-81668585D01*
X101387420Y-81665049D01*
X101379727Y-81663830D01*
X101379725Y-81663830D01*
X101293092Y-81650109D01*
X101293090Y-81650109D01*
X101289246Y-81649500D01*
X100827979Y-81649500D01*
X100769788Y-81630593D01*
X100757975Y-81620504D01*
X100656975Y-81519504D01*
X100629198Y-81464987D01*
X100638769Y-81404555D01*
X100682034Y-81361290D01*
X100726979Y-81350500D01*
X101289246Y-81350500D01*
X101293090Y-81349891D01*
X101293092Y-81349891D01*
X101379725Y-81336170D01*
X101379727Y-81336170D01*
X101387420Y-81334951D01*
X101455118Y-81300457D01*
X101498812Y-81278194D01*
X101498814Y-81278193D01*
X101505751Y-81274658D01*
X101599658Y-81180751D01*
X101635262Y-81110876D01*
X101656415Y-81069360D01*
X101656415Y-81069359D01*
X101659951Y-81062420D01*
X101665799Y-81025500D01*
X101674891Y-80968092D01*
X101674891Y-80968090D01*
X101675500Y-80964246D01*
X101675500Y-80460754D01*
X101674891Y-80456908D01*
X101661170Y-80370275D01*
X101661170Y-80370273D01*
X101659951Y-80362580D01*
X101640548Y-80324500D01*
X101603194Y-80251188D01*
X101603193Y-80251186D01*
X101599658Y-80244249D01*
X101505751Y-80150342D01*
X101492154Y-80143414D01*
X101477100Y-80135743D01*
X101433837Y-80092478D01*
X101424266Y-80032045D01*
X101432953Y-80004369D01*
X101478633Y-79910085D01*
X101478634Y-79910082D01*
X101481710Y-79903733D01*
X101485875Y-79878982D01*
X101504862Y-79766124D01*
X101504862Y-79766120D01*
X101505496Y-79762354D01*
X101505647Y-79750000D01*
X101485323Y-79608082D01*
X101444963Y-79519314D01*
X101428905Y-79483996D01*
X101428904Y-79483995D01*
X101425984Y-79477572D01*
X101332400Y-79368963D01*
X101212095Y-79290985D01*
X101074739Y-79249907D01*
X100991497Y-79249398D01*
X100938427Y-79249074D01*
X100938426Y-79249074D01*
X100931376Y-79249031D01*
X100924599Y-79250968D01*
X100924598Y-79250968D01*
X100800309Y-79286490D01*
X100800307Y-79286491D01*
X100793529Y-79288428D01*
X100672280Y-79364930D01*
X100667613Y-79370214D01*
X100667611Y-79370216D01*
X100582044Y-79467103D01*
X100582042Y-79467105D01*
X100577377Y-79472388D01*
X100574381Y-79478770D01*
X100574380Y-79478771D01*
X100560742Y-79507818D01*
X100516447Y-79602163D01*
X100515362Y-79609132D01*
X100515361Y-79609135D01*
X100505511Y-79672404D01*
X100494391Y-79743823D01*
X100495306Y-79750820D01*
X100495306Y-79750821D01*
X100510366Y-79865986D01*
X100512980Y-79885979D01*
X100515821Y-79892435D01*
X100515821Y-79892436D01*
X100527053Y-79917963D01*
X100552391Y-79975546D01*
X100566897Y-80008514D01*
X100573027Y-80069391D01*
X100542203Y-80122246D01*
X100521227Y-80136595D01*
X100501191Y-80146804D01*
X100501187Y-80146807D01*
X100494249Y-80150342D01*
X100400342Y-80244249D01*
X100340049Y-80362580D01*
X100338436Y-80361758D01*
X100308191Y-80403387D01*
X100250001Y-80422295D01*
X100191810Y-80403388D01*
X100161564Y-80361758D01*
X100159951Y-80362580D01*
X100103194Y-80251188D01*
X100103193Y-80251186D01*
X100099658Y-80244249D01*
X100005751Y-80150342D01*
X99992154Y-80143414D01*
X99977100Y-80135743D01*
X99933837Y-80092478D01*
X99924266Y-80032045D01*
X99932953Y-80004369D01*
X99978633Y-79910085D01*
X99978634Y-79910082D01*
X99981710Y-79903733D01*
X99985875Y-79878982D01*
X100004862Y-79766124D01*
X100004862Y-79766120D01*
X100005496Y-79762354D01*
X100005647Y-79750000D01*
X99985323Y-79608082D01*
X99944963Y-79519314D01*
X99928905Y-79483996D01*
X99928904Y-79483995D01*
X99925984Y-79477572D01*
X99832400Y-79368963D01*
X99712095Y-79290985D01*
X99574739Y-79249907D01*
X99491497Y-79249398D01*
X99438427Y-79249074D01*
X99438426Y-79249074D01*
X99431376Y-79249031D01*
X99424599Y-79250968D01*
X99424598Y-79250968D01*
X99300309Y-79286490D01*
X99300307Y-79286491D01*
X99293529Y-79288428D01*
X99172280Y-79364930D01*
X99167613Y-79370214D01*
X99167611Y-79370216D01*
X99082044Y-79467103D01*
X99082042Y-79467105D01*
X99077377Y-79472388D01*
X99074381Y-79478770D01*
X99074380Y-79478771D01*
X99060742Y-79507818D01*
X99016447Y-79602163D01*
X99015362Y-79609132D01*
X99015361Y-79609135D01*
X99005511Y-79672404D01*
X98994391Y-79743823D01*
X98995306Y-79750820D01*
X98995306Y-79750821D01*
X99010366Y-79865986D01*
X99012980Y-79885979D01*
X99015821Y-79892435D01*
X99015821Y-79892436D01*
X99027053Y-79917963D01*
X99052391Y-79975546D01*
X99066897Y-80008514D01*
X99073027Y-80069391D01*
X99042203Y-80122246D01*
X99021227Y-80136595D01*
X99001191Y-80146804D01*
X99001187Y-80146807D01*
X98994249Y-80150342D01*
X98900342Y-80244249D01*
X98848096Y-80346788D01*
X98840784Y-80361138D01*
X98797519Y-80404403D01*
X98737087Y-80413974D01*
X98682570Y-80386197D01*
X98660801Y-80350673D01*
X98660646Y-80349696D01*
X98642310Y-80313709D01*
X98606586Y-80243597D01*
X98606585Y-80243595D01*
X98603050Y-80236658D01*
X98513342Y-80146950D01*
X98506405Y-80143415D01*
X98506403Y-80143414D01*
X98407244Y-80092890D01*
X98407243Y-80092890D01*
X98400304Y-80089354D01*
X98392610Y-80088135D01*
X98392609Y-80088135D01*
X98310365Y-80075109D01*
X98310363Y-80075109D01*
X98306519Y-80074500D01*
X98000040Y-80074500D01*
X97693482Y-80074501D01*
X97689639Y-80075110D01*
X97689634Y-80075110D01*
X97652783Y-80080947D01*
X97599696Y-80089354D01*
X97552912Y-80113192D01*
X97493597Y-80143414D01*
X97493595Y-80143415D01*
X97486658Y-80146950D01*
X97396950Y-80236658D01*
X97393414Y-80243597D01*
X97393413Y-80243599D01*
X97379735Y-80270444D01*
X97336471Y-80313709D01*
X97291525Y-80324500D01*
X97208475Y-80324500D01*
X97150284Y-80305593D01*
X97120265Y-80270444D01*
X97106587Y-80243599D01*
X97106586Y-80243597D01*
X97103050Y-80236658D01*
X97013342Y-80146950D01*
X97006405Y-80143415D01*
X97006403Y-80143414D01*
X96907244Y-80092890D01*
X96907243Y-80092890D01*
X96900304Y-80089354D01*
X96892610Y-80088135D01*
X96892609Y-80088135D01*
X96810365Y-80075109D01*
X96810363Y-80075109D01*
X96806519Y-80074500D01*
X96500040Y-80074500D01*
X96193482Y-80074501D01*
X96189639Y-80075110D01*
X96189634Y-80075110D01*
X96152783Y-80080947D01*
X96099696Y-80089354D01*
X96052912Y-80113192D01*
X95993597Y-80143414D01*
X95993595Y-80143415D01*
X95986658Y-80146950D01*
X95915255Y-80218353D01*
X95860738Y-80246130D01*
X95812555Y-80239445D01*
X95812095Y-80240985D01*
X95681500Y-80201929D01*
X95674739Y-80199907D01*
X95591497Y-80199398D01*
X95538427Y-80199074D01*
X95538426Y-80199074D01*
X95531376Y-80199031D01*
X95524599Y-80200968D01*
X95524598Y-80200968D01*
X95400309Y-80236490D01*
X95400307Y-80236491D01*
X95393529Y-80238428D01*
X95272280Y-80314930D01*
X95267613Y-80320214D01*
X95267611Y-80320216D01*
X95182044Y-80417103D01*
X95182042Y-80417105D01*
X95177377Y-80422388D01*
X95116447Y-80552163D01*
X95115362Y-80559132D01*
X95115361Y-80559135D01*
X95108378Y-80603989D01*
X95094391Y-80693823D01*
X91000000Y-80693823D01*
X91000000Y-77859752D01*
X90999037Y-77840150D01*
X90998116Y-77830793D01*
X90997254Y-77822044D01*
X90997253Y-77822039D01*
X90997135Y-77820837D01*
X90994255Y-77801422D01*
X90980969Y-77734627D01*
X90969589Y-77697109D01*
X90954807Y-77661421D01*
X90936325Y-77626843D01*
X90923870Y-77608203D01*
X90905367Y-77580510D01*
X90905364Y-77580506D01*
X90904013Y-77578484D01*
X90879139Y-77548176D01*
X90851824Y-77520861D01*
X90821516Y-77495987D01*
X90807001Y-77486288D01*
X90775167Y-77465018D01*
X90773157Y-77463675D01*
X90738579Y-77445193D01*
X90734446Y-77443481D01*
X97324500Y-77443481D01*
X97324501Y-77906518D01*
X97325110Y-77910361D01*
X97325110Y-77910366D01*
X97330345Y-77943420D01*
X97339354Y-78000304D01*
X97396950Y-78113342D01*
X97486658Y-78203050D01*
X97493595Y-78206585D01*
X97493597Y-78206586D01*
X97580117Y-78250670D01*
X97599696Y-78260646D01*
X97607390Y-78261865D01*
X97607391Y-78261865D01*
X97689635Y-78274891D01*
X97689637Y-78274891D01*
X97693481Y-78275500D01*
X97999960Y-78275500D01*
X98306518Y-78275499D01*
X98310361Y-78274890D01*
X98310366Y-78274890D01*
X98347217Y-78269053D01*
X98400304Y-78260646D01*
X98491734Y-78214060D01*
X98506403Y-78206586D01*
X98506405Y-78206585D01*
X98513342Y-78203050D01*
X98603050Y-78113342D01*
X98630953Y-78058581D01*
X98657110Y-78007244D01*
X98657110Y-78007243D01*
X98660646Y-78000304D01*
X98662500Y-77988602D01*
X98674891Y-77910365D01*
X98674891Y-77910363D01*
X98675500Y-77906519D01*
X98675499Y-77443482D01*
X98674243Y-77435546D01*
X98665468Y-77380145D01*
X98660646Y-77349696D01*
X98624275Y-77278314D01*
X98606586Y-77243597D01*
X98606585Y-77243595D01*
X98603050Y-77236658D01*
X98513342Y-77146950D01*
X98506402Y-77143414D01*
X98506398Y-77143411D01*
X98479923Y-77129921D01*
X98436658Y-77086657D01*
X98427087Y-77026225D01*
X98435774Y-76998547D01*
X98478633Y-76910085D01*
X98478634Y-76910082D01*
X98481710Y-76903733D01*
X98485875Y-76878982D01*
X98504862Y-76766124D01*
X98504862Y-76766120D01*
X98505496Y-76762354D01*
X98505647Y-76750000D01*
X98485323Y-76608082D01*
X98425984Y-76477572D01*
X98332400Y-76368963D01*
X98212095Y-76290985D01*
X98074739Y-76249907D01*
X97991497Y-76249398D01*
X97938427Y-76249074D01*
X97938426Y-76249074D01*
X97931376Y-76249031D01*
X97924599Y-76250968D01*
X97924598Y-76250968D01*
X97800309Y-76286490D01*
X97800307Y-76286491D01*
X97793529Y-76288428D01*
X97672280Y-76364930D01*
X97667613Y-76370214D01*
X97667611Y-76370216D01*
X97582044Y-76467103D01*
X97582042Y-76467105D01*
X97577377Y-76472388D01*
X97516447Y-76602163D01*
X97515362Y-76609132D01*
X97515361Y-76609135D01*
X97500680Y-76703430D01*
X97494391Y-76743823D01*
X97495306Y-76750820D01*
X97495306Y-76750821D01*
X97496814Y-76762354D01*
X97512980Y-76885979D01*
X97564288Y-77002586D01*
X97570418Y-77063461D01*
X97539595Y-77116315D01*
X97518617Y-77130666D01*
X97493597Y-77143414D01*
X97493595Y-77143415D01*
X97486658Y-77146950D01*
X97396950Y-77236658D01*
X97393415Y-77243595D01*
X97393414Y-77243597D01*
X97347900Y-77332923D01*
X97339354Y-77349696D01*
X97338135Y-77357390D01*
X97338135Y-77357391D01*
X97328372Y-77419031D01*
X97324500Y-77443481D01*
X90734446Y-77443481D01*
X90712145Y-77434244D01*
X90705132Y-77431339D01*
X90705128Y-77431338D01*
X90702891Y-77430411D01*
X90665373Y-77419031D01*
X90598578Y-77405745D01*
X90579163Y-77402865D01*
X90577961Y-77402747D01*
X90577956Y-77402746D01*
X90561073Y-77401083D01*
X90561055Y-77401082D01*
X90559850Y-77400963D01*
X90558651Y-77400904D01*
X90558636Y-77400903D01*
X90550402Y-77400499D01*
X90540248Y-77400000D01*
X88159752Y-77400000D01*
X88149598Y-77400499D01*
X88141364Y-77400903D01*
X88141349Y-77400904D01*
X88140150Y-77400963D01*
X88138945Y-77401082D01*
X88138927Y-77401083D01*
X88122044Y-77402746D01*
X88122039Y-77402747D01*
X88120837Y-77402865D01*
X88101422Y-77405745D01*
X88034627Y-77419031D01*
X87997109Y-77430411D01*
X87994872Y-77431338D01*
X87994868Y-77431339D01*
X87987855Y-77434244D01*
X87961421Y-77445193D01*
X87926843Y-77463675D01*
X87924833Y-77465018D01*
X87893000Y-77486288D01*
X87878484Y-77495987D01*
X87848176Y-77520861D01*
X87820861Y-77548176D01*
X87795987Y-77578484D01*
X87794636Y-77580506D01*
X87794633Y-77580510D01*
X87776130Y-77608203D01*
X87763675Y-77626843D01*
X87745193Y-77661421D01*
X87730411Y-77697109D01*
X87719031Y-77734627D01*
X87705745Y-77801422D01*
X87702865Y-77820837D01*
X87702747Y-77822039D01*
X87702746Y-77822044D01*
X87701885Y-77830793D01*
X87700963Y-77840150D01*
X87700000Y-77859752D01*
X87700000Y-78101000D01*
X87681093Y-78159191D01*
X87631593Y-78195155D01*
X87601000Y-78200000D01*
X86359752Y-78200000D01*
X86349598Y-78200499D01*
X86341364Y-78200903D01*
X86341349Y-78200904D01*
X86340150Y-78200963D01*
X86338945Y-78201082D01*
X86338927Y-78201083D01*
X86322044Y-78202746D01*
X86322039Y-78202747D01*
X86320837Y-78202865D01*
X86301422Y-78205745D01*
X86234627Y-78219031D01*
X86197109Y-78230411D01*
X86194872Y-78231338D01*
X86194868Y-78231339D01*
X86184745Y-78235532D01*
X86161421Y-78245193D01*
X86126843Y-78263675D01*
X86078484Y-78295987D01*
X86048176Y-78320861D01*
X86020861Y-78348176D01*
X85995987Y-78378484D01*
X85963675Y-78426843D01*
X85945193Y-78461421D01*
X85930411Y-78497109D01*
X85919031Y-78534627D01*
X85905745Y-78601422D01*
X85902865Y-78620837D01*
X85900963Y-78640150D01*
X85900904Y-78641349D01*
X85900903Y-78641364D01*
X85900499Y-78649598D01*
X85900000Y-78659752D01*
X85900000Y-81240248D01*
X85450000Y-81240248D01*
X85450000Y-73840248D01*
X85800000Y-73840248D01*
X85800059Y-73841441D01*
X85800564Y-73851719D01*
X85800963Y-73859850D01*
X85801082Y-73861055D01*
X85801083Y-73861073D01*
X85802647Y-73876948D01*
X85802865Y-73879163D01*
X85805745Y-73898578D01*
X85819031Y-73965373D01*
X85830411Y-74002891D01*
X85845193Y-74038579D01*
X85863675Y-74073157D01*
X85865018Y-74075167D01*
X85887185Y-74108342D01*
X85895987Y-74121516D01*
X85920861Y-74151824D01*
X85948176Y-74179139D01*
X85978484Y-74204013D01*
X86026843Y-74236325D01*
X86061421Y-74254807D01*
X86080779Y-74262825D01*
X86094868Y-74268661D01*
X86094872Y-74268662D01*
X86097109Y-74269589D01*
X86134627Y-74280969D01*
X86201422Y-74294255D01*
X86220837Y-74297135D01*
X86222039Y-74297253D01*
X86222044Y-74297254D01*
X86238927Y-74298917D01*
X86238945Y-74298918D01*
X86240150Y-74299037D01*
X86241349Y-74299096D01*
X86241364Y-74299097D01*
X86249598Y-74299501D01*
X86259752Y-74300000D01*
X87701000Y-74300000D01*
X87759191Y-74318907D01*
X87795155Y-74368407D01*
X87800000Y-74399000D01*
X87800000Y-74640248D01*
X87800963Y-74659850D01*
X87802865Y-74679163D01*
X87805745Y-74698578D01*
X87819031Y-74765373D01*
X87830411Y-74802891D01*
X87845193Y-74838579D01*
X87863675Y-74873157D01*
X87865018Y-74875167D01*
X87891987Y-74915529D01*
X87895987Y-74921516D01*
X87920861Y-74951824D01*
X87948176Y-74979139D01*
X87978484Y-75004013D01*
X88026843Y-75036325D01*
X88061421Y-75054807D01*
X88084745Y-75064468D01*
X88094868Y-75068661D01*
X88094872Y-75068662D01*
X88097109Y-75069589D01*
X88134627Y-75080969D01*
X88201422Y-75094255D01*
X88220837Y-75097135D01*
X88222039Y-75097253D01*
X88222044Y-75097254D01*
X88238927Y-75098917D01*
X88238945Y-75098918D01*
X88240150Y-75099037D01*
X88241349Y-75099096D01*
X88241364Y-75099097D01*
X88249598Y-75099501D01*
X88259752Y-75100000D01*
X90540248Y-75100000D01*
X90550402Y-75099501D01*
X90558636Y-75099097D01*
X90558651Y-75099096D01*
X90559850Y-75099037D01*
X90561055Y-75098918D01*
X90561073Y-75098917D01*
X90577956Y-75097254D01*
X90577961Y-75097253D01*
X90579163Y-75097135D01*
X90598578Y-75094255D01*
X90665373Y-75080969D01*
X90702891Y-75069589D01*
X90705128Y-75068662D01*
X90705132Y-75068661D01*
X90715255Y-75064468D01*
X90738579Y-75054807D01*
X90773157Y-75036325D01*
X90821516Y-75004013D01*
X90851824Y-74979139D01*
X90879139Y-74951824D01*
X90904013Y-74921516D01*
X90908014Y-74915529D01*
X90934982Y-74875167D01*
X90936325Y-74873157D01*
X90954807Y-74838579D01*
X90969589Y-74802891D01*
X90980969Y-74765373D01*
X90994255Y-74698578D01*
X90997135Y-74679163D01*
X90999037Y-74659850D01*
X91000000Y-74640248D01*
X91000000Y-73123850D01*
X91018907Y-73065659D01*
X91028996Y-73053846D01*
X93353846Y-70728996D01*
X93408363Y-70701219D01*
X93423850Y-70700000D01*
X93460829Y-70700000D01*
X93519020Y-70718907D01*
X93554984Y-70768407D01*
X93554984Y-70829593D01*
X93519020Y-70879093D01*
X93505774Y-70887210D01*
X93493597Y-70893414D01*
X93493595Y-70893415D01*
X93486658Y-70896950D01*
X93396950Y-70986658D01*
X93393415Y-70993595D01*
X93393414Y-70993597D01*
X93342890Y-71092756D01*
X93339354Y-71099696D01*
X93338135Y-71107390D01*
X93338135Y-71107391D01*
X93328368Y-71169060D01*
X93324500Y-71193481D01*
X93324501Y-71806518D01*
X93325110Y-71810361D01*
X93325110Y-71810366D01*
X93328140Y-71829497D01*
X93339354Y-71900304D01*
X93353536Y-71928138D01*
X93391135Y-72001929D01*
X93396950Y-72013342D01*
X93455417Y-72071809D01*
X93483194Y-72126326D01*
X93475028Y-72183886D01*
X93466447Y-72202163D01*
X93444391Y-72343823D01*
X93445306Y-72350820D01*
X93445306Y-72350821D01*
X93460753Y-72468948D01*
X93462980Y-72485979D01*
X93465821Y-72492435D01*
X93465821Y-72492436D01*
X93483279Y-72532111D01*
X93520720Y-72617203D01*
X93561300Y-72665479D01*
X93608431Y-72721549D01*
X93608434Y-72721551D01*
X93612970Y-72726948D01*
X93618841Y-72730856D01*
X93618842Y-72730857D01*
X93631143Y-72739045D01*
X93732313Y-72806390D01*
X93832920Y-72837821D01*
X93862425Y-72847039D01*
X93862426Y-72847039D01*
X93869157Y-72849142D01*
X93940828Y-72850456D01*
X94005445Y-72851641D01*
X94005447Y-72851641D01*
X94012499Y-72851770D01*
X94019302Y-72849915D01*
X94019304Y-72849915D01*
X94094503Y-72829413D01*
X94150817Y-72814060D01*
X94272991Y-72739045D01*
X94280403Y-72730857D01*
X94364468Y-72637982D01*
X94369200Y-72632754D01*
X94420375Y-72527129D01*
X94428634Y-72510082D01*
X94431710Y-72503733D01*
X94435875Y-72478982D01*
X94454862Y-72366124D01*
X94454862Y-72366120D01*
X94455496Y-72362354D01*
X94455647Y-72350000D01*
X94435323Y-72208082D01*
X94431421Y-72199500D01*
X94408396Y-72148857D01*
X94401523Y-72088059D01*
X94428514Y-72037878D01*
X94453050Y-72013342D01*
X94458866Y-72001929D01*
X94507110Y-71907244D01*
X94507110Y-71907243D01*
X94510646Y-71900304D01*
X94512260Y-71890117D01*
X94524891Y-71810365D01*
X94524891Y-71810363D01*
X94525500Y-71806519D01*
X94525499Y-71193482D01*
X94510646Y-71099696D01*
X94461146Y-71002547D01*
X94456586Y-70993597D01*
X94456585Y-70993595D01*
X94453050Y-70986658D01*
X94363342Y-70896950D01*
X94356404Y-70893415D01*
X94356400Y-70893412D01*
X94280096Y-70854533D01*
X94236832Y-70811269D01*
X94227261Y-70750836D01*
X94255039Y-70696320D01*
X94296311Y-70671585D01*
X94300568Y-70670294D01*
X94300575Y-70670291D01*
X94302891Y-70669589D01*
X94305128Y-70668662D01*
X94305132Y-70668661D01*
X94320192Y-70662423D01*
X94338579Y-70654807D01*
X94373157Y-70636325D01*
X94380239Y-70631593D01*
X94419490Y-70605367D01*
X94419494Y-70605364D01*
X94421516Y-70604013D01*
X94451824Y-70579139D01*
X94479139Y-70551824D01*
X94504013Y-70521516D01*
X94508606Y-70514643D01*
X94534982Y-70475167D01*
X94536325Y-70473157D01*
X94554807Y-70438579D01*
X94567786Y-70407244D01*
X94568661Y-70405132D01*
X94568662Y-70405128D01*
X94569589Y-70402891D01*
X94572708Y-70392610D01*
X94580264Y-70367697D01*
X94580969Y-70365373D01*
X94594255Y-70298578D01*
X94597135Y-70279163D01*
X94597901Y-70271385D01*
X94598917Y-70261073D01*
X94598918Y-70261055D01*
X94599037Y-70259850D01*
X94600000Y-70240248D01*
X94600000Y-69759752D01*
X94599037Y-69740150D01*
X94598537Y-69735066D01*
X94597254Y-69722044D01*
X94597253Y-69722039D01*
X94597135Y-69720837D01*
X94594255Y-69701422D01*
X94580969Y-69634627D01*
X94569589Y-69597109D01*
X94567787Y-69592757D01*
X94561167Y-69576777D01*
X94554807Y-69561421D01*
X94536325Y-69526843D01*
X94519706Y-69501971D01*
X94505367Y-69480510D01*
X94505364Y-69480506D01*
X94504013Y-69478484D01*
X94479139Y-69448176D01*
X94451824Y-69420861D01*
X94421516Y-69395987D01*
X94417666Y-69393414D01*
X94375167Y-69365018D01*
X94373157Y-69363675D01*
X94338579Y-69345193D01*
X94310448Y-69333541D01*
X94305132Y-69331339D01*
X94305128Y-69331338D01*
X94302891Y-69330411D01*
X94265373Y-69319031D01*
X94198578Y-69305745D01*
X94179163Y-69302865D01*
X94177961Y-69302747D01*
X94177956Y-69302746D01*
X94161073Y-69301083D01*
X94161055Y-69301082D01*
X94159850Y-69300963D01*
X94158651Y-69300904D01*
X94158636Y-69300903D01*
X94150402Y-69300499D01*
X94140248Y-69300000D01*
X91959752Y-69300000D01*
X91949598Y-69300499D01*
X91941364Y-69300903D01*
X91941349Y-69300904D01*
X91940150Y-69300963D01*
X91938945Y-69301082D01*
X91938927Y-69301083D01*
X91922044Y-69302746D01*
X91922039Y-69302747D01*
X91920837Y-69302865D01*
X91901422Y-69305745D01*
X91834627Y-69319031D01*
X91797109Y-69330411D01*
X91794872Y-69331338D01*
X91794868Y-69331339D01*
X91789552Y-69333541D01*
X91761421Y-69345193D01*
X91726843Y-69363675D01*
X91724833Y-69365018D01*
X91682335Y-69393414D01*
X91678484Y-69395987D01*
X91648176Y-69420861D01*
X91620861Y-69448176D01*
X91595987Y-69478484D01*
X91594636Y-69480506D01*
X91594633Y-69480510D01*
X91580294Y-69501971D01*
X91563675Y-69526843D01*
X91545193Y-69561421D01*
X91538833Y-69576777D01*
X91532214Y-69592757D01*
X91530411Y-69597109D01*
X91519031Y-69634627D01*
X91505745Y-69701422D01*
X91502865Y-69720837D01*
X91502747Y-69722039D01*
X91502746Y-69722044D01*
X91501464Y-69735066D01*
X91500963Y-69740150D01*
X91500000Y-69759752D01*
X91500000Y-70601000D01*
X91481093Y-70659191D01*
X91431593Y-70695155D01*
X91401000Y-70700000D01*
X91255400Y-70700000D01*
X91197209Y-70681093D01*
X91161245Y-70631593D01*
X91161245Y-70570407D01*
X91185396Y-70530996D01*
X91203050Y-70513342D01*
X91211322Y-70497109D01*
X91257110Y-70407244D01*
X91257110Y-70407243D01*
X91260646Y-70400304D01*
X91262020Y-70391633D01*
X91274891Y-70310365D01*
X91274891Y-70310363D01*
X91275500Y-70306519D01*
X91275499Y-69693482D01*
X91274128Y-69684820D01*
X91266748Y-69638225D01*
X91260646Y-69599696D01*
X91224610Y-69528971D01*
X91206586Y-69493597D01*
X91206585Y-69493595D01*
X91203050Y-69486658D01*
X91113342Y-69396950D01*
X91106403Y-69393414D01*
X91106401Y-69393413D01*
X91067056Y-69373366D01*
X91023791Y-69330102D01*
X91013000Y-69285156D01*
X91013000Y-69245799D01*
X91031907Y-69187608D01*
X91067054Y-69157590D01*
X91135988Y-69122466D01*
X91173812Y-69103194D01*
X91173814Y-69103193D01*
X91180751Y-69099658D01*
X91274658Y-69005751D01*
X91278665Y-68997888D01*
X91331415Y-68894360D01*
X91331415Y-68894359D01*
X91334951Y-68887420D01*
X91339236Y-68860369D01*
X91349891Y-68793092D01*
X91349891Y-68793090D01*
X91350500Y-68789246D01*
X91350500Y-68210754D01*
X91348815Y-68200117D01*
X91336170Y-68120275D01*
X91336170Y-68120273D01*
X91334951Y-68112580D01*
X91329617Y-68102112D01*
X91278194Y-68001188D01*
X91278193Y-68001186D01*
X91274658Y-67994249D01*
X91180751Y-67900342D01*
X91173814Y-67896807D01*
X91173812Y-67896806D01*
X91069360Y-67843585D01*
X91069359Y-67843585D01*
X91062420Y-67840049D01*
X91054727Y-67838830D01*
X91054725Y-67838830D01*
X90968092Y-67825109D01*
X90968090Y-67825109D01*
X90964246Y-67824500D01*
X90460754Y-67824500D01*
X90456910Y-67825109D01*
X90456908Y-67825109D01*
X90370275Y-67838830D01*
X90370273Y-67838830D01*
X90362580Y-67840049D01*
X90355641Y-67843585D01*
X90355640Y-67843585D01*
X90251188Y-67896806D01*
X90251186Y-67896807D01*
X90244249Y-67900342D01*
X90150342Y-67994249D01*
X90146807Y-68001186D01*
X90146806Y-68001188D01*
X90095383Y-68102112D01*
X90090049Y-68112580D01*
X90088830Y-68120273D01*
X90088830Y-68120275D01*
X90076185Y-68200117D01*
X90074500Y-68210754D01*
X90074500Y-68789246D01*
X90075109Y-68793090D01*
X90075109Y-68793092D01*
X90085765Y-68860369D01*
X90090049Y-68887420D01*
X90093585Y-68894359D01*
X90093585Y-68894360D01*
X90146336Y-68997888D01*
X90150342Y-69005751D01*
X90244249Y-69099658D01*
X90251186Y-69103193D01*
X90251188Y-69103194D01*
X90289012Y-69122466D01*
X90357946Y-69157590D01*
X90401210Y-69200854D01*
X90412000Y-69245799D01*
X90412000Y-69248464D01*
X90393093Y-69306655D01*
X90349261Y-69338499D01*
X90349696Y-69339354D01*
X90304195Y-69362538D01*
X90243597Y-69393414D01*
X90243595Y-69393415D01*
X90236658Y-69396950D01*
X90146950Y-69486658D01*
X90143415Y-69493595D01*
X90143414Y-69493597D01*
X90096003Y-69586646D01*
X90089354Y-69599696D01*
X90088135Y-69607390D01*
X90088135Y-69607391D01*
X90079549Y-69661600D01*
X90074500Y-69693481D01*
X90074501Y-70306518D01*
X90075110Y-70310361D01*
X90075110Y-70310366D01*
X90080036Y-70341468D01*
X90089354Y-70400304D01*
X90112127Y-70444998D01*
X90126475Y-70473157D01*
X90146950Y-70513342D01*
X90164604Y-70530996D01*
X90192381Y-70585513D01*
X90182810Y-70645945D01*
X90139545Y-70689210D01*
X90094600Y-70700000D01*
X89194639Y-70700000D01*
X89136448Y-70681093D01*
X89100484Y-70631593D01*
X89096711Y-70615527D01*
X89096394Y-70613390D01*
X89096157Y-70610983D01*
X89095685Y-70608609D01*
X89081445Y-70537016D01*
X89081443Y-70537008D01*
X89080969Y-70534625D01*
X89069587Y-70497104D01*
X89054805Y-70461418D01*
X89036325Y-70426843D01*
X89033907Y-70423223D01*
X89005367Y-70380510D01*
X89005364Y-70380506D01*
X89004013Y-70378484D01*
X88979139Y-70348176D01*
X88951824Y-70320861D01*
X88921516Y-70295987D01*
X88918516Y-70293982D01*
X88875167Y-70265018D01*
X88873157Y-70263675D01*
X88838579Y-70245193D01*
X88815255Y-70235532D01*
X88805132Y-70231339D01*
X88805128Y-70231338D01*
X88802891Y-70230411D01*
X88765373Y-70219031D01*
X88698578Y-70205745D01*
X88679163Y-70202865D01*
X88677961Y-70202747D01*
X88677956Y-70202746D01*
X88661073Y-70201083D01*
X88661055Y-70201082D01*
X88659850Y-70200963D01*
X88658651Y-70200904D01*
X88658636Y-70200903D01*
X88650402Y-70200499D01*
X88640248Y-70200000D01*
X86259752Y-70200000D01*
X86249598Y-70200499D01*
X86241364Y-70200903D01*
X86241349Y-70200904D01*
X86240150Y-70200963D01*
X86238945Y-70201082D01*
X86238927Y-70201083D01*
X86222044Y-70202746D01*
X86222039Y-70202747D01*
X86220837Y-70202865D01*
X86201422Y-70205745D01*
X86134627Y-70219031D01*
X86097109Y-70230411D01*
X86094872Y-70231338D01*
X86094868Y-70231339D01*
X86084745Y-70235532D01*
X86061421Y-70245193D01*
X86026843Y-70263675D01*
X86024833Y-70265018D01*
X85981485Y-70293982D01*
X85978484Y-70295987D01*
X85948176Y-70320861D01*
X85920861Y-70348176D01*
X85895987Y-70378484D01*
X85894636Y-70380506D01*
X85894633Y-70380510D01*
X85866910Y-70422002D01*
X85863675Y-70426843D01*
X85845193Y-70461421D01*
X85830411Y-70497109D01*
X85819031Y-70534627D01*
X85805745Y-70601422D01*
X85802865Y-70620837D01*
X85802747Y-70622039D01*
X85802746Y-70622044D01*
X85801228Y-70637462D01*
X85800963Y-70640150D01*
X85800000Y-70659752D01*
X85800000Y-73840248D01*
X85450000Y-73840248D01*
X85450000Y-67246492D01*
X85468907Y-67188301D01*
X85518407Y-67152337D01*
X85577116Y-67151569D01*
X85596920Y-67157435D01*
X85704408Y-67171586D01*
X85723944Y-67173511D01*
X85724735Y-67173563D01*
X85724749Y-67173564D01*
X85729044Y-67173845D01*
X85736866Y-67174358D01*
X85737679Y-67174385D01*
X85737687Y-67174385D01*
X85755660Y-67174973D01*
X85755666Y-67174973D01*
X85756488Y-67175000D01*
X88486757Y-67175000D01*
X88544948Y-67193907D01*
X88580912Y-67243407D01*
X88580912Y-67304593D01*
X88556761Y-67344004D01*
X88215373Y-67685392D01*
X88160856Y-67713169D01*
X88100424Y-67703598D01*
X88086551Y-67695021D01*
X87994136Y-67626762D01*
X87994135Y-67626761D01*
X87988184Y-67622366D01*
X87860369Y-67577481D01*
X87854362Y-67576913D01*
X87854361Y-67576913D01*
X87831145Y-67574718D01*
X87831135Y-67574718D01*
X87828834Y-67574500D01*
X86471166Y-67574500D01*
X86468865Y-67574718D01*
X86468855Y-67574718D01*
X86445639Y-67576913D01*
X86445638Y-67576913D01*
X86439631Y-67577481D01*
X86311816Y-67622366D01*
X86305865Y-67626761D01*
X86305864Y-67626762D01*
X86208807Y-67698450D01*
X86202850Y-67702850D01*
X86198450Y-67708807D01*
X86128954Y-67802897D01*
X86122366Y-67811816D01*
X86077481Y-67939631D01*
X86074500Y-67971166D01*
X86074500Y-68828834D01*
X86074718Y-68831135D01*
X86074718Y-68831145D01*
X86075855Y-68843166D01*
X86077481Y-68860369D01*
X86122366Y-68988184D01*
X86126761Y-68994135D01*
X86126762Y-68994136D01*
X86187801Y-69076775D01*
X86202850Y-69097150D01*
X86208807Y-69101550D01*
X86299986Y-69168896D01*
X86311816Y-69177634D01*
X86439631Y-69222519D01*
X86445638Y-69223087D01*
X86445639Y-69223087D01*
X86468855Y-69225282D01*
X86468865Y-69225282D01*
X86471166Y-69225500D01*
X87828834Y-69225500D01*
X87831135Y-69225282D01*
X87831145Y-69225282D01*
X87854361Y-69223087D01*
X87854362Y-69223087D01*
X87860369Y-69222519D01*
X87988184Y-69177634D01*
X88000015Y-69168896D01*
X88091193Y-69101550D01*
X88097150Y-69097150D01*
X88138858Y-69040682D01*
X88188639Y-69005108D01*
X88218491Y-69000500D01*
X88304151Y-69000500D01*
X88317072Y-69001347D01*
X88350000Y-69005682D01*
X88382928Y-69001347D01*
X88389361Y-69000500D01*
X88409202Y-68997888D01*
X88437701Y-68994136D01*
X88506762Y-68985044D01*
X88521284Y-68979029D01*
X88551403Y-68966553D01*
X88652841Y-68924536D01*
X88657983Y-68920590D01*
X88657987Y-68920588D01*
X88690775Y-68895428D01*
X88692167Y-68894360D01*
X88778282Y-68828282D01*
X88796281Y-68804825D01*
X88798498Y-68801936D01*
X88807036Y-68792199D01*
X89892199Y-67707036D01*
X89901936Y-67698498D01*
X89923129Y-67682236D01*
X89928282Y-67678282D01*
X90024536Y-67552841D01*
X90085044Y-67406762D01*
X90093801Y-67340248D01*
X94800000Y-67340248D01*
X94800963Y-67359850D01*
X94802865Y-67379163D01*
X94805745Y-67398578D01*
X94819031Y-67465373D01*
X94830411Y-67502891D01*
X94845193Y-67538579D01*
X94863675Y-67573157D01*
X94865018Y-67575167D01*
X94867901Y-67579481D01*
X94895987Y-67621516D01*
X94920861Y-67651824D01*
X94948176Y-67679139D01*
X94978484Y-67704013D01*
X94980506Y-67705364D01*
X94980510Y-67705367D01*
X95003831Y-67720949D01*
X95026843Y-67736325D01*
X95061421Y-67754807D01*
X95078248Y-67761777D01*
X95124772Y-67801514D01*
X95139055Y-67861009D01*
X95115639Y-67917536D01*
X95110364Y-67923244D01*
X95046950Y-67986658D01*
X95043415Y-67993595D01*
X95043414Y-67993597D01*
X94994873Y-68088864D01*
X94989354Y-68099696D01*
X94988136Y-68107389D01*
X94988135Y-68107391D01*
X94975432Y-68187597D01*
X94974500Y-68193481D01*
X94974501Y-68806518D01*
X94989354Y-68900304D01*
X95002928Y-68926944D01*
X95042755Y-69005108D01*
X95046950Y-69013342D01*
X95136658Y-69103050D01*
X95143598Y-69106586D01*
X95143602Y-69106589D01*
X95220445Y-69145743D01*
X95263710Y-69189007D01*
X95274500Y-69233952D01*
X95274500Y-69266048D01*
X95255593Y-69324239D01*
X95220445Y-69354257D01*
X95143602Y-69393411D01*
X95143598Y-69393414D01*
X95136658Y-69396950D01*
X95046950Y-69486658D01*
X95043415Y-69493595D01*
X95043414Y-69493597D01*
X94996003Y-69586646D01*
X94989354Y-69599696D01*
X94988135Y-69607390D01*
X94988135Y-69607391D01*
X94979549Y-69661600D01*
X94974500Y-69693481D01*
X94974501Y-70306518D01*
X94975110Y-70310361D01*
X94975110Y-70310366D01*
X94980036Y-70341468D01*
X94989354Y-70400304D01*
X95012127Y-70444998D01*
X95026475Y-70473157D01*
X95046950Y-70513342D01*
X95136658Y-70603050D01*
X95143595Y-70606585D01*
X95143597Y-70606586D01*
X95249696Y-70660646D01*
X95248555Y-70662886D01*
X95288364Y-70691808D01*
X95307272Y-70749999D01*
X95288365Y-70808190D01*
X95248555Y-70837114D01*
X95249696Y-70839354D01*
X95143597Y-70893414D01*
X95143595Y-70893415D01*
X95136658Y-70896950D01*
X95046950Y-70986658D01*
X95043415Y-70993595D01*
X95043414Y-70993597D01*
X94992890Y-71092756D01*
X94989354Y-71099696D01*
X94988135Y-71107390D01*
X94988135Y-71107391D01*
X94978368Y-71169060D01*
X94974500Y-71193481D01*
X94974501Y-71806518D01*
X94975110Y-71810361D01*
X94975110Y-71810366D01*
X94978140Y-71829497D01*
X94989354Y-71900304D01*
X95003536Y-71928138D01*
X95041135Y-72001929D01*
X95046950Y-72013342D01*
X95136658Y-72103050D01*
X95143595Y-72106585D01*
X95143597Y-72106586D01*
X95191695Y-72131093D01*
X95249696Y-72160646D01*
X95257390Y-72161865D01*
X95257391Y-72161865D01*
X95339635Y-72174891D01*
X95339637Y-72174891D01*
X95343481Y-72175500D01*
X95574970Y-72175500D01*
X95806518Y-72175499D01*
X95810361Y-72174890D01*
X95810366Y-72174890D01*
X95847217Y-72169053D01*
X95900304Y-72160646D01*
X95958305Y-72131093D01*
X96006403Y-72106586D01*
X96006405Y-72106585D01*
X96013342Y-72103050D01*
X96103050Y-72013342D01*
X96108866Y-72001929D01*
X96157110Y-71907244D01*
X96157110Y-71907243D01*
X96160646Y-71900304D01*
X96162260Y-71890117D01*
X96163226Y-71884014D01*
X96191002Y-71829497D01*
X96245519Y-71801719D01*
X96261007Y-71800500D01*
X96277948Y-71800500D01*
X96282378Y-71799675D01*
X96287571Y-71799339D01*
X96303602Y-71798737D01*
X96308075Y-71798569D01*
X96317208Y-71798226D01*
X96325602Y-71794620D01*
X96325605Y-71794619D01*
X96327783Y-71793683D01*
X96348734Y-71787317D01*
X96360053Y-71785209D01*
X96382729Y-71771232D01*
X96395596Y-71764548D01*
X96413642Y-71756795D01*
X96413643Y-71756794D01*
X96420063Y-71754036D01*
X96424949Y-71750022D01*
X96429313Y-71745658D01*
X96447368Y-71731387D01*
X96455348Y-71726468D01*
X96464466Y-71714478D01*
X96473014Y-71703236D01*
X96481807Y-71693164D01*
X96530499Y-71644473D01*
X96585013Y-71616697D01*
X96645445Y-71626268D01*
X96688710Y-71669533D01*
X96699500Y-71714478D01*
X96699500Y-73696492D01*
X96699197Y-73700617D01*
X96697575Y-73705342D01*
X96697918Y-73714476D01*
X96699430Y-73754761D01*
X96699500Y-73758474D01*
X96699500Y-73777948D01*
X96700325Y-73782378D01*
X96700661Y-73787571D01*
X96701774Y-73817208D01*
X96705380Y-73825602D01*
X96705381Y-73825605D01*
X96706317Y-73827783D01*
X96712683Y-73848734D01*
X96714791Y-73860053D01*
X96726776Y-73879496D01*
X96728768Y-73882728D01*
X96735451Y-73895595D01*
X96745964Y-73920063D01*
X96749978Y-73924949D01*
X96754342Y-73929313D01*
X96768613Y-73947368D01*
X96773532Y-73955348D01*
X96796769Y-73973018D01*
X96806839Y-73981810D01*
X101468869Y-78643840D01*
X101496646Y-78698357D01*
X101496687Y-78729072D01*
X101496392Y-78730970D01*
X101494391Y-78743823D01*
X101512980Y-78885979D01*
X101515821Y-78892435D01*
X101515821Y-78892436D01*
X101549954Y-78970008D01*
X101570720Y-79017203D01*
X101583792Y-79032754D01*
X101658431Y-79121549D01*
X101658434Y-79121551D01*
X101662970Y-79126948D01*
X101668841Y-79130856D01*
X101668842Y-79130857D01*
X101681143Y-79139045D01*
X101782313Y-79206390D01*
X101882920Y-79237821D01*
X101912425Y-79247039D01*
X101912426Y-79247039D01*
X101919157Y-79249142D01*
X101990828Y-79250456D01*
X102055445Y-79251641D01*
X102055447Y-79251641D01*
X102062499Y-79251770D01*
X102069302Y-79249915D01*
X102069304Y-79249915D01*
X102183647Y-79218741D01*
X102200817Y-79214060D01*
X102322991Y-79139045D01*
X102330403Y-79130857D01*
X102414468Y-79037982D01*
X102419200Y-79032754D01*
X102481710Y-78903733D01*
X102485875Y-78878982D01*
X102504862Y-78766124D01*
X102504862Y-78766120D01*
X102505496Y-78762354D01*
X102505647Y-78750000D01*
X102485323Y-78608082D01*
X102447448Y-78524779D01*
X102428905Y-78483996D01*
X102428904Y-78483995D01*
X102425984Y-78477572D01*
X102365582Y-78407472D01*
X102337005Y-78374307D01*
X102337004Y-78374306D01*
X102332400Y-78368963D01*
X102277328Y-78333267D01*
X102238781Y-78285751D01*
X102235526Y-78224652D01*
X102268805Y-78173309D01*
X102279374Y-78165826D01*
X102316978Y-78142737D01*
X102322991Y-78139045D01*
X102390950Y-78063965D01*
X102414468Y-78037982D01*
X102419200Y-78032754D01*
X102481710Y-77903733D01*
X102483311Y-77894220D01*
X102504862Y-77766124D01*
X102504862Y-77766120D01*
X102505496Y-77762354D01*
X102505647Y-77750000D01*
X102485323Y-77608082D01*
X102425984Y-77477572D01*
X102359143Y-77400000D01*
X102337005Y-77374307D01*
X102337004Y-77374306D01*
X102332400Y-77368963D01*
X102212095Y-77290985D01*
X102074739Y-77249907D01*
X102003032Y-77249469D01*
X101964610Y-77249234D01*
X101906536Y-77229972D01*
X101895211Y-77220240D01*
X100646868Y-75971897D01*
X100619091Y-75917380D01*
X100628662Y-75856948D01*
X100671927Y-75813683D01*
X100721709Y-75803011D01*
X100726171Y-75803229D01*
X100735066Y-75805340D01*
X100763988Y-75801404D01*
X100777337Y-75800500D01*
X101552597Y-75800500D01*
X101610788Y-75819407D01*
X101628380Y-75835798D01*
X101658431Y-75871549D01*
X101658434Y-75871551D01*
X101662970Y-75876948D01*
X101668841Y-75880856D01*
X101668842Y-75880857D01*
X101681143Y-75889045D01*
X101782313Y-75956390D01*
X101873183Y-75984779D01*
X101912425Y-75997039D01*
X101912426Y-75997039D01*
X101919157Y-75999142D01*
X101990828Y-76000456D01*
X102055445Y-76001641D01*
X102055447Y-76001641D01*
X102062499Y-76001770D01*
X102069302Y-75999915D01*
X102069304Y-75999915D01*
X102144503Y-75979413D01*
X102200817Y-75964060D01*
X102322991Y-75889045D01*
X102330403Y-75880857D01*
X102414468Y-75787982D01*
X102419200Y-75782754D01*
X102481710Y-75653733D01*
X102485688Y-75630093D01*
X102504862Y-75516124D01*
X102504862Y-75516120D01*
X102505496Y-75512354D01*
X102505556Y-75507488D01*
X102505600Y-75503826D01*
X102505647Y-75500000D01*
X102485323Y-75358082D01*
X102425984Y-75227572D01*
X102332400Y-75118963D01*
X102277328Y-75083267D01*
X102238781Y-75035751D01*
X102235526Y-74974652D01*
X102268805Y-74923309D01*
X102279374Y-74915826D01*
X102316978Y-74892737D01*
X102322991Y-74889045D01*
X102330403Y-74880857D01*
X102414468Y-74787982D01*
X102419200Y-74782754D01*
X102481710Y-74653733D01*
X102484181Y-74639049D01*
X102504862Y-74516124D01*
X102504862Y-74516120D01*
X102505496Y-74512354D01*
X102505647Y-74500000D01*
X102485323Y-74358082D01*
X102450165Y-74280755D01*
X102428905Y-74233996D01*
X102428904Y-74233995D01*
X102425984Y-74227572D01*
X102332400Y-74118963D01*
X102277328Y-74083267D01*
X102238781Y-74035751D01*
X102235526Y-73974652D01*
X102268805Y-73923309D01*
X102279374Y-73915826D01*
X102316978Y-73892737D01*
X102322991Y-73889045D01*
X102330403Y-73880857D01*
X102414468Y-73787982D01*
X102419200Y-73782754D01*
X102481710Y-73653733D01*
X102482954Y-73646342D01*
X102504862Y-73516124D01*
X102504862Y-73516120D01*
X102505496Y-73512354D01*
X102505647Y-73500000D01*
X102485323Y-73358082D01*
X102460463Y-73303404D01*
X102428905Y-73233996D01*
X102428904Y-73233995D01*
X102425984Y-73227572D01*
X102361857Y-73153149D01*
X102337005Y-73124307D01*
X102337004Y-73124306D01*
X102332400Y-73118963D01*
X102277328Y-73083267D01*
X102238781Y-73035751D01*
X102235526Y-72974652D01*
X102268805Y-72923309D01*
X102279374Y-72915826D01*
X102316978Y-72892737D01*
X102322991Y-72889045D01*
X102330403Y-72880857D01*
X102414468Y-72787982D01*
X102419200Y-72782754D01*
X102481710Y-72653733D01*
X102487637Y-72618508D01*
X102504862Y-72516124D01*
X102504862Y-72516120D01*
X102505496Y-72512354D01*
X102505647Y-72500000D01*
X102485323Y-72358082D01*
X102452000Y-72284791D01*
X102428905Y-72233996D01*
X102428904Y-72233995D01*
X102425984Y-72227572D01*
X102365270Y-72157110D01*
X102337005Y-72124307D01*
X102337004Y-72124306D01*
X102332400Y-72118963D01*
X102212095Y-72040985D01*
X102074739Y-71999907D01*
X101991497Y-71999398D01*
X101938427Y-71999074D01*
X101938426Y-71999074D01*
X101931376Y-71999031D01*
X101924599Y-72000968D01*
X101924598Y-72000968D01*
X101800309Y-72036490D01*
X101800307Y-72036491D01*
X101793529Y-72038428D01*
X101782347Y-72045483D01*
X101685505Y-72106586D01*
X101672280Y-72114930D01*
X101667613Y-72120214D01*
X101667611Y-72120216D01*
X101627147Y-72166034D01*
X101574455Y-72197134D01*
X101552943Y-72199500D01*
X101245644Y-72199500D01*
X101187453Y-72180593D01*
X101151489Y-72131093D01*
X101151489Y-72069907D01*
X101190643Y-72018184D01*
X101244002Y-71982531D01*
X101252112Y-71977112D01*
X101310240Y-71890117D01*
X101324648Y-71817685D01*
X101354545Y-71764302D01*
X101410111Y-71738686D01*
X101421746Y-71738000D01*
X105772021Y-71738000D01*
X105830212Y-71756907D01*
X105842025Y-71766996D01*
X106670504Y-72595475D01*
X106698281Y-72649992D01*
X106699500Y-72665479D01*
X106699500Y-79066492D01*
X106699197Y-79070617D01*
X106697575Y-79075342D01*
X106697918Y-79084476D01*
X106699430Y-79124761D01*
X106699500Y-79128474D01*
X106699500Y-79147948D01*
X106700325Y-79152378D01*
X106700661Y-79157571D01*
X106701774Y-79187208D01*
X106705380Y-79195602D01*
X106705381Y-79195605D01*
X106706317Y-79197783D01*
X106712683Y-79218734D01*
X106714791Y-79230053D01*
X106719588Y-79237835D01*
X106728768Y-79252728D01*
X106735451Y-79265595D01*
X106745964Y-79290063D01*
X106749978Y-79294949D01*
X106754342Y-79299313D01*
X106768613Y-79317368D01*
X106773532Y-79325348D01*
X106796769Y-79343018D01*
X106806839Y-79351810D01*
X108379124Y-80924095D01*
X108406901Y-80978612D01*
X108395874Y-81041793D01*
X108388765Y-81054725D01*
X108385776Y-81060162D01*
X108384313Y-81064775D01*
X108384311Y-81064779D01*
X108352054Y-81166467D01*
X108323484Y-81256532D01*
X108322944Y-81261344D01*
X108322944Y-81261345D01*
X108303666Y-81433218D01*
X108300520Y-81461262D01*
X108303950Y-81502112D01*
X108316851Y-81655736D01*
X108317759Y-81666553D01*
X108319092Y-81671201D01*
X108319092Y-81671202D01*
X108372481Y-81857390D01*
X108374544Y-81864586D01*
X108468712Y-82047818D01*
X108596677Y-82209270D01*
X108600357Y-82212402D01*
X108600359Y-82212404D01*
X108657998Y-82261458D01*
X108753564Y-82342791D01*
X108757787Y-82345151D01*
X108757791Y-82345154D01*
X108819490Y-82379636D01*
X108933398Y-82443297D01*
X108937996Y-82444791D01*
X109124724Y-82505463D01*
X109124726Y-82505464D01*
X109129329Y-82506959D01*
X109333894Y-82531351D01*
X109338716Y-82530980D01*
X109338719Y-82530980D01*
X109406541Y-82525761D01*
X109539300Y-82515546D01*
X109737725Y-82460145D01*
X109742038Y-82457966D01*
X109742044Y-82457964D01*
X109917289Y-82369441D01*
X109917291Y-82369440D01*
X109921610Y-82367258D01*
X110009420Y-82298654D01*
X110080135Y-82243406D01*
X110080139Y-82243402D01*
X110083951Y-82240424D01*
X110103909Y-82217303D01*
X110194862Y-82111931D01*
X110218564Y-82084472D01*
X110220957Y-82080260D01*
X110317934Y-81909550D01*
X110317935Y-81909547D01*
X110320323Y-81905344D01*
X110327486Y-81883814D01*
X110383824Y-81714454D01*
X110383824Y-81714452D01*
X110385351Y-81709863D01*
X110386594Y-81700028D01*
X110405881Y-81547346D01*
X110411171Y-81505474D01*
X110411583Y-81476000D01*
X110407914Y-81438579D01*
X110391952Y-81275780D01*
X110391951Y-81275776D01*
X110391480Y-81270970D01*
X110389760Y-81265271D01*
X110341683Y-81106035D01*
X110331935Y-81073749D01*
X110235218Y-80891849D01*
X110105011Y-80732200D01*
X110071593Y-80704554D01*
X109950002Y-80603965D01*
X109950000Y-80603964D01*
X109946275Y-80600882D01*
X109793781Y-80518429D01*
X109769309Y-80505197D01*
X109769308Y-80505197D01*
X109765055Y-80502897D01*
X109663256Y-80471385D01*
X109572875Y-80443407D01*
X109572871Y-80443406D01*
X109568254Y-80441977D01*
X109563446Y-80441472D01*
X109563443Y-80441471D01*
X109368185Y-80420949D01*
X109368183Y-80420949D01*
X109363369Y-80420443D01*
X109303354Y-80425905D01*
X109163022Y-80438675D01*
X109163017Y-80438676D01*
X109158203Y-80439114D01*
X109143617Y-80443407D01*
X108965219Y-80495912D01*
X108965216Y-80495913D01*
X108960572Y-80497280D01*
X108921050Y-80517941D01*
X108860725Y-80528145D01*
X108805182Y-80500211D01*
X107329496Y-79024525D01*
X107301719Y-78970008D01*
X107300500Y-78954521D01*
X107300500Y-77544479D01*
X107319407Y-77486288D01*
X107368907Y-77450324D01*
X107430093Y-77450324D01*
X107469504Y-77474475D01*
X107924487Y-77929459D01*
X108379124Y-78384096D01*
X108406901Y-78438613D01*
X108395874Y-78501794D01*
X108385776Y-78520162D01*
X108384313Y-78524775D01*
X108384311Y-78524779D01*
X108346543Y-78643840D01*
X108323484Y-78716532D01*
X108322944Y-78721344D01*
X108322944Y-78721345D01*
X108303267Y-78896775D01*
X108300520Y-78921262D01*
X108307949Y-79009735D01*
X108317339Y-79121549D01*
X108317759Y-79126553D01*
X108319092Y-79131201D01*
X108319092Y-79131202D01*
X108369646Y-79307503D01*
X108374544Y-79324586D01*
X108468712Y-79507818D01*
X108596677Y-79669270D01*
X108600357Y-79672402D01*
X108600359Y-79672404D01*
X108659206Y-79722486D01*
X108753564Y-79802791D01*
X108757787Y-79805151D01*
X108757791Y-79805154D01*
X108837490Y-79849696D01*
X108933398Y-79903297D01*
X108937996Y-79904791D01*
X109124724Y-79965463D01*
X109124726Y-79965464D01*
X109129329Y-79966959D01*
X109333894Y-79991351D01*
X109338716Y-79990980D01*
X109338719Y-79990980D01*
X109406541Y-79985761D01*
X109539300Y-79975546D01*
X109737725Y-79920145D01*
X109744675Y-79916634D01*
X109746000Y-79916429D01*
X109746562Y-79916211D01*
X109746610Y-79916335D01*
X109805141Y-79907275D01*
X109859315Y-79934997D01*
X110388255Y-80463937D01*
X110401420Y-80480240D01*
X110402733Y-80482274D01*
X110402736Y-80482278D01*
X110407175Y-80489152D01*
X110432332Y-80508984D01*
X110436738Y-80512900D01*
X110436739Y-80512899D01*
X110439868Y-80515550D01*
X110442747Y-80518429D01*
X110446061Y-80520797D01*
X110446062Y-80520798D01*
X110457591Y-80529037D01*
X110461319Y-80531836D01*
X110475061Y-80542669D01*
X110498811Y-80561392D01*
X110506114Y-80563957D01*
X110507369Y-80564609D01*
X110513670Y-80569111D01*
X110551388Y-80580391D01*
X110559412Y-80582791D01*
X110563846Y-80584232D01*
X110603030Y-80597992D01*
X110603034Y-80597993D01*
X110608906Y-80600055D01*
X110614044Y-80600500D01*
X110616182Y-80600500D01*
X110617901Y-80600574D01*
X110619262Y-80600689D01*
X110625464Y-80602544D01*
X110633635Y-80602223D01*
X110675554Y-80600576D01*
X110679441Y-80600500D01*
X111046936Y-80600500D01*
X111105127Y-80619407D01*
X111141091Y-80668907D01*
X111141091Y-80730093D01*
X111122774Y-80763136D01*
X111053773Y-80845368D01*
X111025024Y-80879630D01*
X111022689Y-80883878D01*
X111022688Y-80883879D01*
X111014100Y-80899500D01*
X110925776Y-81060162D01*
X110924313Y-81064775D01*
X110924311Y-81064779D01*
X110892054Y-81166467D01*
X110863484Y-81256532D01*
X110862944Y-81261344D01*
X110862944Y-81261345D01*
X110843666Y-81433218D01*
X110840520Y-81461262D01*
X110843950Y-81502112D01*
X110856851Y-81655736D01*
X110857759Y-81666553D01*
X110859092Y-81671201D01*
X110859092Y-81671202D01*
X110912481Y-81857390D01*
X110914544Y-81864586D01*
X111008712Y-82047818D01*
X111136677Y-82209270D01*
X111140357Y-82212402D01*
X111140359Y-82212404D01*
X111197998Y-82261458D01*
X111293564Y-82342791D01*
X111297787Y-82345151D01*
X111297791Y-82345154D01*
X111359490Y-82379636D01*
X111473398Y-82443297D01*
X111477996Y-82444791D01*
X111664724Y-82505463D01*
X111664726Y-82505464D01*
X111669329Y-82506959D01*
X111873894Y-82531351D01*
X111878716Y-82530980D01*
X111878719Y-82530980D01*
X111946541Y-82525761D01*
X112079300Y-82515546D01*
X112277725Y-82460145D01*
X112282038Y-82457966D01*
X112282044Y-82457964D01*
X112457289Y-82369441D01*
X112457291Y-82369440D01*
X112461610Y-82367258D01*
X112549420Y-82298654D01*
X112620135Y-82243406D01*
X112620139Y-82243402D01*
X112623951Y-82240424D01*
X112643909Y-82217303D01*
X112734862Y-82111931D01*
X112758564Y-82084472D01*
X112760957Y-82080260D01*
X112857934Y-81909550D01*
X112857935Y-81909547D01*
X112860323Y-81905344D01*
X112867486Y-81883814D01*
X112923824Y-81714454D01*
X112923824Y-81714452D01*
X112925351Y-81709863D01*
X112926594Y-81700028D01*
X112945881Y-81547346D01*
X112951171Y-81505474D01*
X112951583Y-81476000D01*
X112947914Y-81438579D01*
X112931952Y-81275780D01*
X112931951Y-81275776D01*
X112931480Y-81270970D01*
X112929760Y-81265271D01*
X112881683Y-81106035D01*
X112871935Y-81073749D01*
X112775218Y-80891849D01*
X112669373Y-80762070D01*
X112647246Y-80705027D01*
X112662876Y-80645871D01*
X112710291Y-80607200D01*
X112746092Y-80600500D01*
X119327052Y-80600500D01*
X119347888Y-80602718D01*
X119349170Y-80602994D01*
X119358261Y-80604951D01*
X119390071Y-80601186D01*
X119395963Y-80600839D01*
X119395963Y-80600836D01*
X119400030Y-80600500D01*
X119404115Y-80600500D01*
X119408141Y-80599830D01*
X119408152Y-80599829D01*
X119422119Y-80597504D01*
X119426726Y-80596848D01*
X119449689Y-80594130D01*
X119466012Y-80592198D01*
X119466013Y-80592198D01*
X119474138Y-80591236D01*
X119481122Y-80587882D01*
X119482454Y-80587461D01*
X119490103Y-80586188D01*
X119532160Y-80563495D01*
X119536283Y-80561395D01*
X119573717Y-80543420D01*
X119573721Y-80543418D01*
X119579326Y-80540726D01*
X119583274Y-80537408D01*
X119584782Y-80535900D01*
X119586071Y-80534718D01*
X119587097Y-80533852D01*
X119592794Y-80530778D01*
X119598345Y-80524773D01*
X119598350Y-80524769D01*
X119626809Y-80493982D01*
X119629503Y-80491179D01*
X126241186Y-73879496D01*
X126295703Y-73851719D01*
X126311190Y-73850500D01*
X127562836Y-73850500D01*
X127621027Y-73869407D01*
X127650569Y-73903631D01*
X127685580Y-73970601D01*
X127695783Y-74030927D01*
X127667849Y-74086469D01*
X126536063Y-75218255D01*
X126519760Y-75231420D01*
X126517726Y-75232733D01*
X126517722Y-75232736D01*
X126510848Y-75237175D01*
X126491015Y-75262332D01*
X126487101Y-75266737D01*
X126487102Y-75266738D01*
X126484449Y-75269869D01*
X126481572Y-75272746D01*
X126470956Y-75287601D01*
X126468170Y-75291312D01*
X126438608Y-75328811D01*
X126436042Y-75336118D01*
X126435395Y-75337363D01*
X126430889Y-75343669D01*
X126422600Y-75371385D01*
X126417208Y-75389415D01*
X126415767Y-75393851D01*
X126403263Y-75429459D01*
X126399945Y-75438906D01*
X126399500Y-75444044D01*
X126399500Y-75446182D01*
X126399426Y-75447901D01*
X126399311Y-75449262D01*
X126397456Y-75455464D01*
X126397777Y-75463635D01*
X126399424Y-75505554D01*
X126399500Y-75509441D01*
X126399500Y-81952052D01*
X126397282Y-81972888D01*
X126395049Y-81983261D01*
X126396978Y-81999557D01*
X126398814Y-82015071D01*
X126399161Y-82020963D01*
X126399164Y-82020963D01*
X126399500Y-82025030D01*
X126399500Y-82029115D01*
X126400170Y-82033141D01*
X126400171Y-82033152D01*
X126402496Y-82047119D01*
X126403152Y-82051726D01*
X126408764Y-82099138D01*
X126412118Y-82106122D01*
X126412539Y-82107454D01*
X126413812Y-82115103D01*
X126436505Y-82157160D01*
X126438605Y-82161283D01*
X126456580Y-82198717D01*
X126456582Y-82198721D01*
X126459274Y-82204326D01*
X126462592Y-82208274D01*
X126464100Y-82209782D01*
X126465282Y-82211071D01*
X126466148Y-82212097D01*
X126469222Y-82217794D01*
X126475227Y-82223345D01*
X126475231Y-82223350D01*
X126506018Y-82251809D01*
X126508821Y-82254503D01*
X127542775Y-83288457D01*
X127555940Y-83304760D01*
X127557253Y-83306794D01*
X127557256Y-83306798D01*
X127561695Y-83313672D01*
X127586852Y-83333505D01*
X127591261Y-83337422D01*
X127591262Y-83337421D01*
X127594387Y-83340069D01*
X127597267Y-83342949D01*
X127600578Y-83345315D01*
X127600585Y-83345321D01*
X127612116Y-83353561D01*
X127615844Y-83356360D01*
X127618794Y-83358685D01*
X127653331Y-83385912D01*
X127660633Y-83388476D01*
X127661887Y-83389128D01*
X127668189Y-83393631D01*
X127699978Y-83403138D01*
X127713935Y-83407312D01*
X127718371Y-83408753D01*
X127757553Y-83422513D01*
X127757556Y-83422514D01*
X127763426Y-83424575D01*
X127768564Y-83425020D01*
X127770702Y-83425020D01*
X127772421Y-83425094D01*
X127773782Y-83425209D01*
X127779984Y-83427064D01*
X127788155Y-83426743D01*
X127830074Y-83425096D01*
X127833961Y-83425020D01*
X132702532Y-83425020D01*
X132723368Y-83427238D01*
X132724650Y-83427514D01*
X132733741Y-83429471D01*
X132765551Y-83425706D01*
X132771443Y-83425359D01*
X132771443Y-83425356D01*
X132775510Y-83425020D01*
X132779595Y-83425020D01*
X132783621Y-83424350D01*
X132783632Y-83424349D01*
X132797599Y-83422024D01*
X132802206Y-83421368D01*
X132825169Y-83418650D01*
X132841492Y-83416718D01*
X132841493Y-83416718D01*
X132849618Y-83415756D01*
X132856602Y-83412402D01*
X132857934Y-83411981D01*
X132865583Y-83410708D01*
X132907640Y-83388015D01*
X132911763Y-83385915D01*
X132949197Y-83367940D01*
X132949201Y-83367938D01*
X132954806Y-83365246D01*
X132958754Y-83361928D01*
X132960262Y-83360420D01*
X132961551Y-83359238D01*
X132962577Y-83358372D01*
X132968274Y-83355298D01*
X132973825Y-83349293D01*
X132973830Y-83349289D01*
X133002289Y-83318502D01*
X133004983Y-83315699D01*
X133366186Y-82954496D01*
X133420703Y-82926719D01*
X133436190Y-82925500D01*
X133770846Y-82925499D01*
X133806518Y-82925499D01*
X133810361Y-82924890D01*
X133810366Y-82924890D01*
X133847217Y-82919053D01*
X133900304Y-82910646D01*
X133956823Y-82881848D01*
X134006403Y-82856586D01*
X134006405Y-82856585D01*
X134013342Y-82853050D01*
X134103050Y-82763342D01*
X134110454Y-82748812D01*
X134157110Y-82657244D01*
X134157110Y-82657243D01*
X134160646Y-82650304D01*
X134162557Y-82638242D01*
X134163226Y-82634014D01*
X134191002Y-82579497D01*
X134245519Y-82551719D01*
X134261007Y-82550500D01*
X134638745Y-82550500D01*
X134696936Y-82569407D01*
X134708687Y-82579435D01*
X134725894Y-82596612D01*
X134768650Y-82639293D01*
X134873482Y-82690536D01*
X134881084Y-82691645D01*
X134881087Y-82691646D01*
X134938237Y-82699983D01*
X134938239Y-82699983D01*
X134941782Y-82700500D01*
X136183218Y-82700500D01*
X136186801Y-82699972D01*
X136186808Y-82699972D01*
X136244499Y-82691479D01*
X136244501Y-82691478D01*
X136252112Y-82690358D01*
X136265535Y-82683768D01*
X136307225Y-82663299D01*
X136356855Y-82638932D01*
X136439293Y-82556350D01*
X136490536Y-82451518D01*
X136491645Y-82443916D01*
X136491646Y-82443913D01*
X136499983Y-82386763D01*
X136499983Y-82386761D01*
X136500500Y-82383218D01*
X136500500Y-82016782D01*
X136497965Y-81999557D01*
X136491479Y-81955501D01*
X136491478Y-81955499D01*
X136490358Y-81947888D01*
X136438932Y-81843145D01*
X136356350Y-81760707D01*
X136251518Y-81709464D01*
X136243916Y-81708355D01*
X136243913Y-81708354D01*
X136186763Y-81700017D01*
X136186761Y-81700017D01*
X136183218Y-81699500D01*
X134941782Y-81699500D01*
X134938199Y-81700028D01*
X134938192Y-81700028D01*
X134880501Y-81708521D01*
X134880499Y-81708522D01*
X134872888Y-81709642D01*
X134865982Y-81713033D01*
X134865981Y-81713033D01*
X134841383Y-81725110D01*
X134768145Y-81761068D01*
X134710066Y-81819249D01*
X134708875Y-81820442D01*
X134654383Y-81848268D01*
X134638810Y-81849500D01*
X134221214Y-81849500D01*
X134163023Y-81830593D01*
X134133005Y-81795446D01*
X134106588Y-81743600D01*
X134106585Y-81743596D01*
X134103050Y-81736658D01*
X134013342Y-81646950D01*
X134006405Y-81643415D01*
X134006403Y-81643414D01*
X133907244Y-81592890D01*
X133907243Y-81592890D01*
X133900304Y-81589354D01*
X133892610Y-81588135D01*
X133892609Y-81588135D01*
X133810365Y-81575109D01*
X133810363Y-81575109D01*
X133806519Y-81574500D01*
X133575030Y-81574500D01*
X133343482Y-81574501D01*
X133339639Y-81575110D01*
X133339634Y-81575110D01*
X133314196Y-81579139D01*
X133249696Y-81589354D01*
X133218269Y-81605367D01*
X133143597Y-81643414D01*
X133143595Y-81643415D01*
X133136658Y-81646950D01*
X133046950Y-81736658D01*
X133043415Y-81743595D01*
X133043414Y-81743597D01*
X132995637Y-81837364D01*
X132989354Y-81849696D01*
X132988135Y-81857390D01*
X132988135Y-81857391D01*
X132975109Y-81939634D01*
X132974500Y-81943481D01*
X132974500Y-81947374D01*
X132974501Y-82313809D01*
X132955594Y-82372000D01*
X132945505Y-82383813D01*
X132693796Y-82635522D01*
X132639279Y-82663299D01*
X132578847Y-82653728D01*
X132535582Y-82610463D01*
X132525213Y-82558334D01*
X132525500Y-82556519D01*
X132525499Y-81943482D01*
X132524565Y-81937580D01*
X132516049Y-81883814D01*
X132510646Y-81849696D01*
X132460103Y-81750500D01*
X132456586Y-81743597D01*
X132456585Y-81743595D01*
X132453050Y-81736658D01*
X132419873Y-81703481D01*
X132392096Y-81648964D01*
X132401667Y-81588532D01*
X132443836Y-81547346D01*
X132443483Y-81546799D01*
X132446179Y-81545059D01*
X132447025Y-81544232D01*
X132454326Y-81540726D01*
X132458274Y-81537408D01*
X132459782Y-81535900D01*
X132461071Y-81534718D01*
X132462097Y-81533852D01*
X132467794Y-81530778D01*
X132501811Y-81493979D01*
X132504504Y-81491178D01*
X132963935Y-81031747D01*
X132980235Y-81018583D01*
X132982278Y-81017264D01*
X132982279Y-81017263D01*
X132989152Y-81012825D01*
X133000928Y-80997888D01*
X133008981Y-80987672D01*
X133012898Y-80983263D01*
X133012897Y-80983262D01*
X133015548Y-80980133D01*
X133018428Y-80977253D01*
X133029032Y-80962415D01*
X133031831Y-80958687D01*
X133056324Y-80927618D01*
X133056324Y-80927617D01*
X133061392Y-80921189D01*
X133062078Y-80919235D01*
X133104314Y-80879577D01*
X133165017Y-80871910D01*
X133191408Y-80880947D01*
X133249696Y-80910646D01*
X133257390Y-80911865D01*
X133257391Y-80911865D01*
X133339635Y-80924891D01*
X133339637Y-80924891D01*
X133343481Y-80925500D01*
X133574970Y-80925500D01*
X133806518Y-80925499D01*
X133810361Y-80924890D01*
X133810366Y-80924890D01*
X133847217Y-80919053D01*
X133900304Y-80910646D01*
X133968467Y-80875915D01*
X134006403Y-80856586D01*
X134006405Y-80856585D01*
X134013342Y-80853050D01*
X134103050Y-80763342D01*
X134106585Y-80756404D01*
X134106588Y-80756400D01*
X134133005Y-80704554D01*
X134176270Y-80661290D01*
X134221214Y-80650500D01*
X134638745Y-80650500D01*
X134696936Y-80669407D01*
X134708687Y-80679435D01*
X134751141Y-80721815D01*
X134768650Y-80739293D01*
X134873482Y-80790536D01*
X134881084Y-80791645D01*
X134881087Y-80791646D01*
X134938237Y-80799983D01*
X134938239Y-80799983D01*
X134941782Y-80800500D01*
X136183218Y-80800500D01*
X136186801Y-80799972D01*
X136186808Y-80799972D01*
X136244499Y-80791479D01*
X136244501Y-80791478D01*
X136252112Y-80790358D01*
X136356855Y-80738932D01*
X136365180Y-80730593D01*
X136433513Y-80662140D01*
X136439293Y-80656350D01*
X136490536Y-80551518D01*
X136491645Y-80543916D01*
X136491646Y-80543913D01*
X136499983Y-80486763D01*
X136499983Y-80486761D01*
X136500500Y-80483218D01*
X136500500Y-80116782D01*
X136499458Y-80109698D01*
X136491479Y-80055501D01*
X136491478Y-80055499D01*
X136490358Y-80047888D01*
X136475293Y-80017203D01*
X136462418Y-79990980D01*
X136438932Y-79943145D01*
X136416251Y-79920503D01*
X136362140Y-79866487D01*
X136356350Y-79860707D01*
X136251518Y-79809464D01*
X136243916Y-79808355D01*
X136243913Y-79808354D01*
X136186763Y-79800017D01*
X136186761Y-79800017D01*
X136183218Y-79799500D01*
X134941782Y-79799500D01*
X134938199Y-79800028D01*
X134938192Y-79800028D01*
X134880501Y-79808521D01*
X134880499Y-79808522D01*
X134872888Y-79809642D01*
X134768145Y-79861068D01*
X134711350Y-79917963D01*
X134708875Y-79920442D01*
X134654383Y-79948268D01*
X134638810Y-79949500D01*
X134261007Y-79949500D01*
X134202816Y-79930593D01*
X134166852Y-79881093D01*
X134163226Y-79865987D01*
X134161876Y-79857462D01*
X134160646Y-79849696D01*
X134111798Y-79753826D01*
X134106586Y-79743597D01*
X134106585Y-79743595D01*
X134103050Y-79736658D01*
X134013342Y-79646950D01*
X134006405Y-79643415D01*
X134006403Y-79643414D01*
X133907244Y-79592890D01*
X133907243Y-79592890D01*
X133900304Y-79589354D01*
X133892610Y-79588135D01*
X133892609Y-79588135D01*
X133810365Y-79575109D01*
X133810363Y-79575109D01*
X133806519Y-79574500D01*
X133575030Y-79574500D01*
X133343482Y-79574501D01*
X133339639Y-79575110D01*
X133339634Y-79575110D01*
X133302783Y-79580947D01*
X133249696Y-79589354D01*
X133242756Y-79592890D01*
X133235341Y-79595299D01*
X133234776Y-79593559D01*
X133184020Y-79601602D01*
X133129502Y-79573829D01*
X133101720Y-79519314D01*
X133100500Y-79503820D01*
X133100500Y-76686190D01*
X133111013Y-76653834D01*
X134824500Y-76653834D01*
X134827481Y-76685369D01*
X134872366Y-76813184D01*
X134876761Y-76819135D01*
X134876762Y-76819136D01*
X134930903Y-76892436D01*
X134952850Y-76922150D01*
X134958807Y-76926550D01*
X135037299Y-76984525D01*
X135061816Y-77002634D01*
X135189631Y-77047519D01*
X135195638Y-77048087D01*
X135195639Y-77048087D01*
X135218855Y-77050282D01*
X135218865Y-77050282D01*
X135221166Y-77050500D01*
X136513810Y-77050500D01*
X136572001Y-77069407D01*
X136583814Y-77079496D01*
X137058004Y-77553686D01*
X137085781Y-77608203D01*
X137087000Y-77623690D01*
X137087000Y-80650500D01*
X137068093Y-80708691D01*
X137018593Y-80744655D01*
X136988000Y-80749500D01*
X136816782Y-80749500D01*
X136813199Y-80750028D01*
X136813192Y-80750028D01*
X136755501Y-80758521D01*
X136755499Y-80758522D01*
X136747888Y-80759642D01*
X136740982Y-80763033D01*
X136740981Y-80763033D01*
X136701726Y-80782306D01*
X136643145Y-80811068D01*
X136560707Y-80893650D01*
X136509464Y-80998482D01*
X136508355Y-81006084D01*
X136508354Y-81006087D01*
X136502764Y-81044407D01*
X136499500Y-81066782D01*
X136499500Y-81433218D01*
X136500028Y-81436801D01*
X136500028Y-81436808D01*
X136508435Y-81493913D01*
X136509642Y-81502112D01*
X136513033Y-81509018D01*
X136513033Y-81509019D01*
X136526971Y-81537408D01*
X136561068Y-81606855D01*
X136643650Y-81689293D01*
X136748482Y-81740536D01*
X136756084Y-81741645D01*
X136756087Y-81741646D01*
X136813237Y-81749983D01*
X136813239Y-81749983D01*
X136816782Y-81750500D01*
X138058218Y-81750500D01*
X138061801Y-81749972D01*
X138061808Y-81749972D01*
X138119499Y-81741479D01*
X138119501Y-81741478D01*
X138127112Y-81740358D01*
X138148020Y-81730093D01*
X138178612Y-81715073D01*
X138231855Y-81688932D01*
X138250464Y-81670291D01*
X138308513Y-81612140D01*
X138314293Y-81606350D01*
X138365536Y-81501518D01*
X138366645Y-81493916D01*
X138366646Y-81493913D01*
X138374983Y-81436763D01*
X138374983Y-81436761D01*
X138375500Y-81433218D01*
X138375500Y-81066782D01*
X138374526Y-81060162D01*
X138366479Y-81005501D01*
X138366478Y-81005499D01*
X138365358Y-80997888D01*
X138350293Y-80967203D01*
X138323123Y-80911865D01*
X138313932Y-80893145D01*
X138291251Y-80870503D01*
X138237140Y-80816487D01*
X138231350Y-80810707D01*
X138126518Y-80759464D01*
X138118916Y-80758355D01*
X138118913Y-80758354D01*
X138061763Y-80750017D01*
X138061761Y-80750017D01*
X138058218Y-80749500D01*
X137887000Y-80749500D01*
X137828809Y-80730593D01*
X137792845Y-80681093D01*
X137788000Y-80650500D01*
X137788000Y-77485448D01*
X137790218Y-77464612D01*
X137790728Y-77462241D01*
X137792451Y-77454239D01*
X137788686Y-77422429D01*
X137788339Y-77416537D01*
X137788336Y-77416537D01*
X137788000Y-77412470D01*
X137788000Y-77408385D01*
X137787330Y-77404359D01*
X137787329Y-77404348D01*
X137785004Y-77390381D01*
X137784346Y-77385762D01*
X137783242Y-77376429D01*
X137780988Y-77357390D01*
X137779698Y-77346488D01*
X137779698Y-77346487D01*
X137778736Y-77338362D01*
X137775382Y-77331378D01*
X137774961Y-77330046D01*
X137773688Y-77322397D01*
X137750995Y-77280340D01*
X137748895Y-77276217D01*
X137730920Y-77238783D01*
X137730918Y-77238779D01*
X137728226Y-77233174D01*
X137724908Y-77229226D01*
X137723400Y-77227718D01*
X137722218Y-77226429D01*
X137721352Y-77225403D01*
X137718278Y-77219706D01*
X137712273Y-77214155D01*
X137712269Y-77214150D01*
X137681482Y-77185691D01*
X137678679Y-77182997D01*
X137204496Y-76708814D01*
X137176719Y-76654297D01*
X137175500Y-76638810D01*
X137175500Y-75346166D01*
X137174614Y-75336787D01*
X137173087Y-75320639D01*
X137173087Y-75320638D01*
X137172519Y-75314631D01*
X137127634Y-75186816D01*
X137071759Y-75111167D01*
X137051550Y-75083807D01*
X137047150Y-75077850D01*
X137017210Y-75055736D01*
X136944136Y-75001762D01*
X136944135Y-75001761D01*
X136938184Y-74997366D01*
X136810369Y-74952481D01*
X136804362Y-74951913D01*
X136804361Y-74951913D01*
X136781145Y-74949718D01*
X136781135Y-74949718D01*
X136778834Y-74949500D01*
X135221166Y-74949500D01*
X135218865Y-74949718D01*
X135218855Y-74949718D01*
X135195639Y-74951913D01*
X135195638Y-74951913D01*
X135189631Y-74952481D01*
X135061816Y-74997366D01*
X135055865Y-75001761D01*
X135055864Y-75001762D01*
X134982790Y-75055736D01*
X134952850Y-75077850D01*
X134948450Y-75083807D01*
X134928242Y-75111167D01*
X134872366Y-75186816D01*
X134827481Y-75314631D01*
X134826913Y-75320638D01*
X134826913Y-75320639D01*
X134825387Y-75336787D01*
X134824500Y-75346166D01*
X134824500Y-76653834D01*
X133111013Y-76653834D01*
X133119407Y-76627999D01*
X133129496Y-76616186D01*
X135288064Y-74457618D01*
X135342581Y-74429841D01*
X135405761Y-74440867D01*
X135459162Y-74470224D01*
X135463775Y-74471687D01*
X135463779Y-74471689D01*
X135633689Y-74525587D01*
X135655532Y-74532516D01*
X135660344Y-74533056D01*
X135660345Y-74533056D01*
X135813108Y-74550191D01*
X135813110Y-74550191D01*
X135815864Y-74550500D01*
X136176841Y-74550500D01*
X136179236Y-74550265D01*
X136179240Y-74550265D01*
X136325220Y-74535952D01*
X136325224Y-74535951D01*
X136330030Y-74535480D01*
X136334655Y-74534084D01*
X136334658Y-74534083D01*
X136447131Y-74500125D01*
X136527251Y-74475935D01*
X136709151Y-74379218D01*
X136868800Y-74249011D01*
X136909759Y-74199500D01*
X136997035Y-74094002D01*
X136997036Y-74094000D01*
X137000118Y-74090275D01*
X137064827Y-73970598D01*
X137095803Y-73913309D01*
X137095803Y-73913308D01*
X137098103Y-73909055D01*
X137127626Y-73813683D01*
X137157593Y-73716875D01*
X137157594Y-73716871D01*
X137159023Y-73712254D01*
X137159750Y-73705342D01*
X137180051Y-73512185D01*
X137180051Y-73512183D01*
X137180557Y-73507369D01*
X137167151Y-73360053D01*
X137162325Y-73307022D01*
X137162324Y-73307017D01*
X137161886Y-73302203D01*
X137103720Y-73104572D01*
X137069141Y-73038428D01*
X137033620Y-72970484D01*
X137008274Y-72922002D01*
X136967709Y-72871549D01*
X136882219Y-72765220D01*
X136882217Y-72765217D01*
X136879185Y-72761447D01*
X136863075Y-72747929D01*
X136725085Y-72632141D01*
X136725083Y-72632140D01*
X136721370Y-72629024D01*
X136709689Y-72622602D01*
X136545085Y-72532111D01*
X136540838Y-72529776D01*
X136536225Y-72528313D01*
X136536221Y-72528311D01*
X136349083Y-72468948D01*
X136344468Y-72467484D01*
X136339656Y-72466944D01*
X136339655Y-72466944D01*
X136186892Y-72449809D01*
X136186890Y-72449809D01*
X136184136Y-72449500D01*
X135823159Y-72449500D01*
X135820764Y-72449735D01*
X135820760Y-72449735D01*
X135674780Y-72464048D01*
X135674776Y-72464049D01*
X135669970Y-72464520D01*
X135665345Y-72465916D01*
X135665342Y-72465917D01*
X135598895Y-72485979D01*
X135472749Y-72524065D01*
X135290849Y-72620782D01*
X135131200Y-72750989D01*
X135128116Y-72754717D01*
X135128115Y-72754718D01*
X135013936Y-72892737D01*
X134999882Y-72909725D01*
X134901897Y-73090945D01*
X134888204Y-73135181D01*
X134849931Y-73258821D01*
X134840977Y-73287746D01*
X134840472Y-73292554D01*
X134840471Y-73292557D01*
X134823043Y-73458380D01*
X134819443Y-73492631D01*
X134821227Y-73512235D01*
X134836701Y-73682269D01*
X134838114Y-73697797D01*
X134855428Y-73756626D01*
X134871181Y-73810149D01*
X134869473Y-73871311D01*
X134846213Y-73908105D01*
X132536063Y-76218255D01*
X132519760Y-76231420D01*
X132517726Y-76232733D01*
X132517722Y-76232736D01*
X132510848Y-76237175D01*
X132491015Y-76262332D01*
X132487101Y-76266737D01*
X132487102Y-76266738D01*
X132484449Y-76269869D01*
X132481572Y-76272746D01*
X132470956Y-76287601D01*
X132468170Y-76291312D01*
X132438608Y-76328811D01*
X132436042Y-76336118D01*
X132435395Y-76337363D01*
X132430889Y-76343669D01*
X132428545Y-76351508D01*
X132417208Y-76389415D01*
X132415767Y-76393851D01*
X132403695Y-76428228D01*
X132399945Y-76438906D01*
X132399500Y-76444044D01*
X132399500Y-76446182D01*
X132399426Y-76447901D01*
X132399311Y-76449262D01*
X132397456Y-76455464D01*
X132397777Y-76463635D01*
X132399424Y-76505554D01*
X132399500Y-76509441D01*
X132399500Y-79503820D01*
X132380593Y-79562011D01*
X132331093Y-79597975D01*
X132269907Y-79597975D01*
X132259054Y-79593478D01*
X132257243Y-79592890D01*
X132250304Y-79589354D01*
X132242610Y-79588135D01*
X132242609Y-79588135D01*
X132160365Y-79575109D01*
X132160363Y-79575109D01*
X132156519Y-79574500D01*
X131925030Y-79574500D01*
X131693482Y-79574501D01*
X131689639Y-79575110D01*
X131689634Y-79575110D01*
X131652783Y-79580947D01*
X131599696Y-79589354D01*
X131560874Y-79609135D01*
X131493597Y-79643414D01*
X131493595Y-79643415D01*
X131486658Y-79646950D01*
X131396950Y-79736658D01*
X131393415Y-79743595D01*
X131393414Y-79743597D01*
X131354152Y-79820653D01*
X131339354Y-79849696D01*
X131338136Y-79857389D01*
X131338135Y-79857391D01*
X131336774Y-79865986D01*
X131308998Y-79920503D01*
X131254481Y-79948281D01*
X131238993Y-79949500D01*
X130861255Y-79949500D01*
X130803064Y-79930593D01*
X130791313Y-79920565D01*
X130737141Y-79866488D01*
X130737140Y-79866487D01*
X130731350Y-79860707D01*
X130626518Y-79809464D01*
X130618916Y-79808355D01*
X130618913Y-79808354D01*
X130561763Y-79800017D01*
X130561761Y-79800017D01*
X130558218Y-79799500D01*
X129316782Y-79799500D01*
X129313199Y-79800028D01*
X129313192Y-79800028D01*
X129255501Y-79808521D01*
X129255499Y-79808522D01*
X129247888Y-79809642D01*
X129240982Y-79813033D01*
X129233634Y-79815316D01*
X129233045Y-79813421D01*
X129182571Y-79820653D01*
X129128471Y-79792073D01*
X129101501Y-79737153D01*
X129100500Y-79723111D01*
X129100500Y-77149500D01*
X129119407Y-77091309D01*
X129168907Y-77055345D01*
X129199500Y-77050500D01*
X129528834Y-77050500D01*
X129531135Y-77050282D01*
X129531145Y-77050282D01*
X129554361Y-77048087D01*
X129554362Y-77048087D01*
X129560369Y-77047519D01*
X129688184Y-77002634D01*
X129712702Y-76984525D01*
X129791193Y-76926550D01*
X129797150Y-76922150D01*
X129819097Y-76892436D01*
X129873238Y-76819136D01*
X129873239Y-76819135D01*
X129877634Y-76813184D01*
X129922519Y-76685369D01*
X129925500Y-76653834D01*
X129925500Y-75361190D01*
X129944407Y-75302999D01*
X129954496Y-75291186D01*
X130963937Y-74281745D01*
X130980240Y-74268580D01*
X130982274Y-74267267D01*
X130982278Y-74267264D01*
X130989152Y-74262825D01*
X131008985Y-74237668D01*
X131012899Y-74233263D01*
X131012898Y-74233262D01*
X131015551Y-74230131D01*
X131018428Y-74227254D01*
X131029044Y-74212399D01*
X131031835Y-74208681D01*
X131036736Y-74202465D01*
X131061392Y-74171189D01*
X131063958Y-74163882D01*
X131064605Y-74162637D01*
X131069111Y-74156331D01*
X131082793Y-74110583D01*
X131084234Y-74106149D01*
X131097992Y-74066970D01*
X131097993Y-74066967D01*
X131100055Y-74061094D01*
X131100500Y-74055956D01*
X131100500Y-74053818D01*
X131100574Y-74052100D01*
X131100689Y-74050739D01*
X131102544Y-74044537D01*
X131100769Y-73999346D01*
X131100576Y-73994446D01*
X131100500Y-73990559D01*
X131100500Y-70992631D01*
X134819443Y-70992631D01*
X134821985Y-71020562D01*
X134835499Y-71169060D01*
X134838114Y-71197797D01*
X134896280Y-71395428D01*
X134991726Y-71577998D01*
X135007401Y-71597494D01*
X135114955Y-71731264D01*
X135120815Y-71738553D01*
X135124526Y-71741667D01*
X135124527Y-71741668D01*
X135202940Y-71807464D01*
X135278630Y-71870976D01*
X135282878Y-71873311D01*
X135282879Y-71873312D01*
X135313447Y-71890117D01*
X135459162Y-71970224D01*
X135463775Y-71971687D01*
X135463779Y-71971689D01*
X135612445Y-72018848D01*
X135655532Y-72032516D01*
X135660344Y-72033056D01*
X135660345Y-72033056D01*
X135813108Y-72050191D01*
X135813110Y-72050191D01*
X135815864Y-72050500D01*
X136176841Y-72050500D01*
X136179236Y-72050265D01*
X136179240Y-72050265D01*
X136325220Y-72035952D01*
X136325224Y-72035951D01*
X136330030Y-72035480D01*
X136334655Y-72034084D01*
X136334658Y-72034083D01*
X136505404Y-71982531D01*
X136527251Y-71975935D01*
X136709151Y-71879218D01*
X136868800Y-71749011D01*
X136887449Y-71726468D01*
X136997035Y-71594002D01*
X136997036Y-71594000D01*
X137000118Y-71590275D01*
X137098103Y-71409055D01*
X137126908Y-71316000D01*
X137157593Y-71216875D01*
X137157594Y-71216871D01*
X137159023Y-71212254D01*
X137160055Y-71202441D01*
X137180051Y-71012185D01*
X137180051Y-71012183D01*
X137180557Y-71007369D01*
X137172459Y-70918380D01*
X137162325Y-70807022D01*
X137162324Y-70807017D01*
X137161886Y-70802203D01*
X137103720Y-70604572D01*
X137091230Y-70580680D01*
X137033905Y-70471029D01*
X137008274Y-70422002D01*
X136977287Y-70383462D01*
X136882219Y-70265220D01*
X136882217Y-70265217D01*
X136879185Y-70261447D01*
X136871166Y-70254718D01*
X136725085Y-70132141D01*
X136725083Y-70132140D01*
X136721370Y-70129024D01*
X136702242Y-70118508D01*
X136626329Y-70076775D01*
X136540838Y-70029776D01*
X136536225Y-70028313D01*
X136536221Y-70028311D01*
X136349083Y-69968948D01*
X136344468Y-69967484D01*
X136339656Y-69966944D01*
X136339655Y-69966944D01*
X136186892Y-69949809D01*
X136186890Y-69949809D01*
X136184136Y-69949500D01*
X135823159Y-69949500D01*
X135820764Y-69949735D01*
X135820760Y-69949735D01*
X135674780Y-69964048D01*
X135674776Y-69964049D01*
X135669970Y-69964520D01*
X135665345Y-69965916D01*
X135665342Y-69965917D01*
X135600640Y-69985452D01*
X135472749Y-70024065D01*
X135290849Y-70120782D01*
X135131200Y-70250989D01*
X135128116Y-70254717D01*
X135128115Y-70254718D01*
X135003333Y-70405554D01*
X134999882Y-70409725D01*
X134947609Y-70506403D01*
X134909558Y-70576777D01*
X134901897Y-70590945D01*
X134898654Y-70601422D01*
X134849931Y-70758821D01*
X134840977Y-70787746D01*
X134840472Y-70792554D01*
X134840471Y-70792557D01*
X134827696Y-70914104D01*
X134819443Y-70992631D01*
X131100500Y-70992631D01*
X131100500Y-68492631D01*
X134819443Y-68492631D01*
X134824838Y-68551917D01*
X134834820Y-68661599D01*
X134838114Y-68697797D01*
X134896280Y-68895428D01*
X134898519Y-68899712D01*
X134898520Y-68899713D01*
X134912756Y-68926944D01*
X134991726Y-69077998D01*
X135004714Y-69094152D01*
X135117116Y-69233952D01*
X135120815Y-69238553D01*
X135124526Y-69241667D01*
X135124527Y-69241668D01*
X135271530Y-69365018D01*
X135278630Y-69370976D01*
X135282878Y-69373311D01*
X135282879Y-69373312D01*
X135303179Y-69384472D01*
X135459162Y-69470224D01*
X135463775Y-69471687D01*
X135463779Y-69471689D01*
X135619661Y-69521137D01*
X135655532Y-69532516D01*
X135660344Y-69533056D01*
X135660345Y-69533056D01*
X135813108Y-69550191D01*
X135813110Y-69550191D01*
X135815864Y-69550500D01*
X136176841Y-69550500D01*
X136179236Y-69550265D01*
X136179240Y-69550265D01*
X136325220Y-69535952D01*
X136325224Y-69535951D01*
X136330030Y-69535480D01*
X136334655Y-69534084D01*
X136334658Y-69534083D01*
X136447131Y-69500125D01*
X136527251Y-69475935D01*
X136709151Y-69379218D01*
X136868800Y-69249011D01*
X136938652Y-69164575D01*
X136997035Y-69094002D01*
X136997036Y-69094000D01*
X137000118Y-69090275D01*
X137085551Y-68932269D01*
X137095803Y-68913309D01*
X137095803Y-68913308D01*
X137098103Y-68909055D01*
X137129843Y-68806519D01*
X137157593Y-68716875D01*
X137157594Y-68716871D01*
X137159023Y-68712254D01*
X137160055Y-68702441D01*
X137180051Y-68512185D01*
X137180051Y-68512183D01*
X137180557Y-68507369D01*
X137172162Y-68415117D01*
X137162325Y-68307022D01*
X137162324Y-68307017D01*
X137161886Y-68302203D01*
X137103720Y-68104572D01*
X137008274Y-67922002D01*
X136982933Y-67890484D01*
X136882219Y-67765220D01*
X136882217Y-67765217D01*
X136879185Y-67761447D01*
X136852570Y-67739114D01*
X136725085Y-67632141D01*
X136725083Y-67632140D01*
X136721370Y-67629024D01*
X136702242Y-67618508D01*
X136560732Y-67540713D01*
X136540838Y-67529776D01*
X136536225Y-67528313D01*
X136536221Y-67528311D01*
X136349083Y-67468948D01*
X136344468Y-67467484D01*
X136339656Y-67466944D01*
X136339655Y-67466944D01*
X136186892Y-67449809D01*
X136186890Y-67449809D01*
X136184136Y-67449500D01*
X135823159Y-67449500D01*
X135820764Y-67449735D01*
X135820760Y-67449735D01*
X135674780Y-67464048D01*
X135674776Y-67464049D01*
X135669970Y-67464520D01*
X135665345Y-67465916D01*
X135665342Y-67465917D01*
X135552869Y-67499875D01*
X135472749Y-67524065D01*
X135290849Y-67620782D01*
X135131200Y-67750989D01*
X135128116Y-67754717D01*
X135128115Y-67754718D01*
X135007198Y-67900882D01*
X134999882Y-67909725D01*
X134979035Y-67948281D01*
X134928510Y-68041726D01*
X134901897Y-68090945D01*
X134886618Y-68140303D01*
X134844268Y-68277115D01*
X134840977Y-68287746D01*
X134840472Y-68292554D01*
X134840471Y-68292557D01*
X134819949Y-68487815D01*
X134819443Y-68492631D01*
X131100500Y-68492631D01*
X131100500Y-68297953D01*
X131102718Y-68277115D01*
X131103230Y-68274739D01*
X131103230Y-68274738D01*
X131104952Y-68266740D01*
X131101186Y-68234921D01*
X131100839Y-68229043D01*
X131100837Y-68229043D01*
X131100500Y-68224965D01*
X131100500Y-68220885D01*
X131099660Y-68215835D01*
X131098173Y-68206908D01*
X131097507Y-68202904D01*
X131096851Y-68198297D01*
X131096670Y-68196770D01*
X131091237Y-68150862D01*
X131087882Y-68143877D01*
X131087460Y-68142543D01*
X131086188Y-68134897D01*
X131063505Y-68092859D01*
X131061400Y-68088726D01*
X131043424Y-68051291D01*
X131040727Y-68045674D01*
X131037408Y-68041726D01*
X131035903Y-68040221D01*
X131034719Y-68038930D01*
X131033852Y-68037902D01*
X131030778Y-68032206D01*
X131024773Y-68026655D01*
X131024769Y-68026650D01*
X130993982Y-67998191D01*
X130991179Y-67995497D01*
X130031745Y-67036063D01*
X130018580Y-67019760D01*
X130017267Y-67017726D01*
X130017264Y-67017722D01*
X130012825Y-67010848D01*
X129987668Y-66991015D01*
X129983263Y-66987101D01*
X129983262Y-66987102D01*
X129980131Y-66984449D01*
X129977254Y-66981572D01*
X129962399Y-66970956D01*
X129958681Y-66968165D01*
X129955726Y-66965835D01*
X129921189Y-66938608D01*
X129913882Y-66936042D01*
X129912637Y-66935395D01*
X129906331Y-66930889D01*
X129872204Y-66920683D01*
X129860585Y-66917208D01*
X129856149Y-66915767D01*
X129816967Y-66902007D01*
X129816964Y-66902006D01*
X129811094Y-66899945D01*
X129805956Y-66899500D01*
X129803818Y-66899500D01*
X129802099Y-66899426D01*
X129800738Y-66899311D01*
X129794536Y-66897456D01*
X129786365Y-66897777D01*
X129744446Y-66899424D01*
X129740559Y-66899500D01*
X122297948Y-66899500D01*
X122277112Y-66897282D01*
X122275830Y-66897006D01*
X122266739Y-66895049D01*
X122235580Y-66898737D01*
X122234929Y-66898814D01*
X122229037Y-66899161D01*
X122229037Y-66899164D01*
X122224970Y-66899500D01*
X122220885Y-66899500D01*
X122216859Y-66900170D01*
X122216848Y-66900171D01*
X122202881Y-66902496D01*
X122198274Y-66903152D01*
X122175311Y-66905870D01*
X122158988Y-66907802D01*
X122158987Y-66907802D01*
X122150862Y-66908764D01*
X122143878Y-66912118D01*
X122142546Y-66912539D01*
X122134897Y-66913812D01*
X122092840Y-66936505D01*
X122088717Y-66938605D01*
X122051283Y-66956580D01*
X122051279Y-66956582D01*
X122045674Y-66959274D01*
X122041726Y-66962592D01*
X122040218Y-66964100D01*
X122038929Y-66965282D01*
X122037903Y-66966148D01*
X122032206Y-66969222D01*
X122026655Y-66975227D01*
X122026650Y-66975231D01*
X121998191Y-67006018D01*
X121995497Y-67008821D01*
X119333814Y-69670504D01*
X119279297Y-69698281D01*
X119263810Y-69699500D01*
X112702875Y-69699500D01*
X112644684Y-69680593D01*
X112608720Y-69631093D01*
X112608720Y-69569907D01*
X112627932Y-69535812D01*
X112658844Y-69500000D01*
X112758564Y-69384472D01*
X112768002Y-69367859D01*
X112857934Y-69209550D01*
X112857935Y-69209547D01*
X112860323Y-69205344D01*
X112871004Y-69173238D01*
X112923824Y-69014454D01*
X112923824Y-69014452D01*
X112925351Y-69009863D01*
X112928084Y-68988234D01*
X112947011Y-68838401D01*
X112951171Y-68805474D01*
X112951221Y-68801936D01*
X112951544Y-68778776D01*
X112951583Y-68776000D01*
X112944371Y-68702441D01*
X112931952Y-68575780D01*
X112931951Y-68575776D01*
X112931480Y-68570970D01*
X112908880Y-68496114D01*
X112894322Y-68447898D01*
X112871935Y-68373749D01*
X112775218Y-68191849D01*
X112645011Y-68032200D01*
X112634160Y-68023223D01*
X112490002Y-67903965D01*
X112490000Y-67903964D01*
X112486275Y-67900882D01*
X112345009Y-67824500D01*
X112309309Y-67805197D01*
X112309308Y-67805197D01*
X112305055Y-67802897D01*
X112234217Y-67780969D01*
X112112875Y-67743407D01*
X112112871Y-67743406D01*
X112108254Y-67741977D01*
X112103446Y-67741472D01*
X112103443Y-67741471D01*
X111908185Y-67720949D01*
X111908183Y-67720949D01*
X111903369Y-67720443D01*
X111843354Y-67725905D01*
X111703022Y-67738675D01*
X111703017Y-67738676D01*
X111698203Y-67739114D01*
X111500572Y-67797280D01*
X111496288Y-67799519D01*
X111496287Y-67799520D01*
X111485428Y-67805197D01*
X111318002Y-67892726D01*
X111312748Y-67896950D01*
X111161220Y-68018781D01*
X111161217Y-68018783D01*
X111157447Y-68021815D01*
X111154333Y-68025526D01*
X111154332Y-68025527D01*
X111029276Y-68174563D01*
X111025024Y-68179630D01*
X111022689Y-68183878D01*
X111022688Y-68183879D01*
X111016900Y-68194407D01*
X110925776Y-68360162D01*
X110924313Y-68364774D01*
X110924311Y-68364779D01*
X110882650Y-68496114D01*
X110863484Y-68556532D01*
X110862944Y-68561344D01*
X110862944Y-68561345D01*
X110846557Y-68707443D01*
X110840520Y-68761262D01*
X110845403Y-68819407D01*
X110854241Y-68924653D01*
X110857759Y-68966553D01*
X110859092Y-68971201D01*
X110859092Y-68971202D01*
X110913208Y-69159926D01*
X110914544Y-69164586D01*
X110916759Y-69168896D01*
X110920287Y-69175761D01*
X111008712Y-69347818D01*
X111136677Y-69509270D01*
X111155287Y-69525108D01*
X111187347Y-69577220D01*
X111182653Y-69638225D01*
X111142999Y-69684820D01*
X111091123Y-69699500D01*
X110816190Y-69699500D01*
X110757999Y-69680593D01*
X110746186Y-69670504D01*
X110353749Y-69278067D01*
X110325972Y-69223550D01*
X110329814Y-69176814D01*
X110383824Y-69014454D01*
X110383824Y-69014452D01*
X110385351Y-69009863D01*
X110388084Y-68988234D01*
X110407011Y-68838401D01*
X110411171Y-68805474D01*
X110411221Y-68801936D01*
X110411544Y-68778776D01*
X110411583Y-68776000D01*
X110404371Y-68702441D01*
X110391952Y-68575780D01*
X110391951Y-68575776D01*
X110391480Y-68570970D01*
X110368880Y-68496114D01*
X110354322Y-68447898D01*
X110331935Y-68373749D01*
X110235218Y-68191849D01*
X110105011Y-68032200D01*
X110094160Y-68023223D01*
X109950002Y-67903965D01*
X109950000Y-67903964D01*
X109946275Y-67900882D01*
X109805009Y-67824500D01*
X109769309Y-67805197D01*
X109769308Y-67805197D01*
X109765055Y-67802897D01*
X109694217Y-67780969D01*
X109572875Y-67743407D01*
X109572871Y-67743406D01*
X109568254Y-67741977D01*
X109563446Y-67741472D01*
X109563443Y-67741471D01*
X109368185Y-67720949D01*
X109368183Y-67720949D01*
X109363369Y-67720443D01*
X109303354Y-67725905D01*
X109163022Y-67738675D01*
X109163017Y-67738676D01*
X109158203Y-67739114D01*
X108960572Y-67797280D01*
X108956288Y-67799519D01*
X108956287Y-67799520D01*
X108945428Y-67805197D01*
X108778002Y-67892726D01*
X108772748Y-67896950D01*
X108621220Y-68018781D01*
X108621217Y-68018783D01*
X108617447Y-68021815D01*
X108614333Y-68025526D01*
X108614332Y-68025527D01*
X108489276Y-68174563D01*
X108485024Y-68179630D01*
X108482689Y-68183878D01*
X108482688Y-68183879D01*
X108438281Y-68264655D01*
X108385776Y-68360162D01*
X108384313Y-68364774D01*
X108371098Y-68406434D01*
X108335481Y-68456184D01*
X108276732Y-68475500D01*
X107780479Y-68475500D01*
X107722288Y-68456593D01*
X107686324Y-68407093D01*
X107686324Y-68345907D01*
X107710475Y-68306496D01*
X108803654Y-67213317D01*
X108858171Y-67185540D01*
X108921957Y-67196903D01*
X108933398Y-67203297D01*
X108937996Y-67204791D01*
X109124724Y-67265463D01*
X109124726Y-67265464D01*
X109129329Y-67266959D01*
X109333894Y-67291351D01*
X109338716Y-67290980D01*
X109338719Y-67290980D01*
X109406541Y-67285761D01*
X109539300Y-67275546D01*
X109737725Y-67220145D01*
X109742038Y-67217966D01*
X109742044Y-67217964D01*
X109917289Y-67129441D01*
X109917291Y-67129440D01*
X109921610Y-67127258D01*
X109943849Y-67109883D01*
X110080135Y-67003406D01*
X110080139Y-67003402D01*
X110083951Y-67000424D01*
X110095192Y-66987402D01*
X110155358Y-66917697D01*
X110218564Y-66844472D01*
X110237231Y-66811613D01*
X110317934Y-66669550D01*
X110317935Y-66669547D01*
X110320323Y-66665344D01*
X110328162Y-66641781D01*
X110383824Y-66474454D01*
X110383824Y-66474452D01*
X110385351Y-66469863D01*
X110411171Y-66265474D01*
X110411583Y-66236000D01*
X110391480Y-66030970D01*
X110369687Y-65958787D01*
X110333333Y-65838380D01*
X110331935Y-65833749D01*
X110235218Y-65651849D01*
X110105011Y-65492200D01*
X110085164Y-65475781D01*
X110052379Y-65424120D01*
X110056221Y-65363055D01*
X110095222Y-65315911D01*
X110148269Y-65300500D01*
X110494521Y-65300500D01*
X110552712Y-65319407D01*
X110564525Y-65329496D01*
X110919124Y-65684095D01*
X110946901Y-65738612D01*
X110935874Y-65801793D01*
X110928111Y-65815914D01*
X110925776Y-65820162D01*
X110924313Y-65824775D01*
X110924311Y-65824779D01*
X110870413Y-65994689D01*
X110863484Y-66016532D01*
X110862944Y-66021344D01*
X110862944Y-66021345D01*
X110861865Y-66030970D01*
X110840520Y-66221262D01*
X110857759Y-66426553D01*
X110859092Y-66431201D01*
X110859092Y-66431202D01*
X110913208Y-66619928D01*
X110913209Y-66619931D01*
X110914544Y-66624586D01*
X111008712Y-66807818D01*
X111136677Y-66969270D01*
X111140357Y-66972402D01*
X111140359Y-66972404D01*
X111199678Y-67022888D01*
X111293564Y-67102791D01*
X111297787Y-67105151D01*
X111297791Y-67105154D01*
X111382216Y-67152337D01*
X111473398Y-67203297D01*
X111477996Y-67204791D01*
X111664724Y-67265463D01*
X111664726Y-67265464D01*
X111669329Y-67266959D01*
X111873894Y-67291351D01*
X111878716Y-67290980D01*
X111878719Y-67290980D01*
X111946541Y-67285761D01*
X112079300Y-67275546D01*
X112277725Y-67220145D01*
X112282038Y-67217966D01*
X112282044Y-67217964D01*
X112457289Y-67129441D01*
X112457291Y-67129440D01*
X112461610Y-67127258D01*
X112483849Y-67109883D01*
X112620135Y-67003406D01*
X112620139Y-67003402D01*
X112623951Y-67000424D01*
X112635192Y-66987402D01*
X112695358Y-66917697D01*
X112758564Y-66844472D01*
X112777231Y-66811613D01*
X112857934Y-66669550D01*
X112857935Y-66669547D01*
X112860323Y-66665344D01*
X112868162Y-66641781D01*
X112923824Y-66474454D01*
X112923824Y-66474452D01*
X112925351Y-66469863D01*
X112951171Y-66265474D01*
X112951583Y-66236000D01*
X112931480Y-66030970D01*
X112909687Y-65958787D01*
X112873333Y-65838380D01*
X112871935Y-65833749D01*
X112775218Y-65651849D01*
X112645011Y-65492200D01*
X112486275Y-65360882D01*
X112351750Y-65288145D01*
X112309309Y-65265197D01*
X112309308Y-65265197D01*
X112305055Y-65262897D01*
X112227620Y-65238927D01*
X112112875Y-65203407D01*
X112112871Y-65203406D01*
X112108254Y-65201977D01*
X112103446Y-65201472D01*
X112103443Y-65201471D01*
X111908185Y-65180949D01*
X111908183Y-65180949D01*
X111903369Y-65180443D01*
X111843354Y-65185905D01*
X111703022Y-65198675D01*
X111703017Y-65198676D01*
X111698203Y-65199114D01*
X111628472Y-65219637D01*
X111505219Y-65255912D01*
X111505216Y-65255913D01*
X111500572Y-65257280D01*
X111461050Y-65277941D01*
X111400725Y-65288145D01*
X111345182Y-65260211D01*
X110910320Y-64825349D01*
X110907620Y-64822220D01*
X110905425Y-64817731D01*
X110892760Y-64805982D01*
X110869178Y-64784107D01*
X110866502Y-64781531D01*
X110852723Y-64767752D01*
X110849013Y-64765207D01*
X110845100Y-64761771D01*
X110830055Y-64747815D01*
X110823354Y-64741599D01*
X110812664Y-64737334D01*
X110793348Y-64727020D01*
X110791393Y-64725679D01*
X110791390Y-64725678D01*
X110783854Y-64720508D01*
X110757941Y-64714359D01*
X110744116Y-64709986D01*
X110725868Y-64702706D01*
X110725866Y-64702706D01*
X110719378Y-64700117D01*
X110713085Y-64699500D01*
X110706916Y-64699500D01*
X110684057Y-64696825D01*
X110683827Y-64696770D01*
X110683825Y-64696770D01*
X110674934Y-64694660D01*
X110647174Y-64698438D01*
X110646013Y-64698596D01*
X110632663Y-64699500D01*
X108553508Y-64699500D01*
X108549383Y-64699197D01*
X108544658Y-64697575D01*
X108495238Y-64699430D01*
X108491525Y-64699500D01*
X108472052Y-64699500D01*
X108467622Y-64700325D01*
X108462429Y-64700661D01*
X108443298Y-64701379D01*
X108441926Y-64701431D01*
X108432791Y-64701774D01*
X108424394Y-64705382D01*
X108424393Y-64705382D01*
X108422212Y-64706319D01*
X108401263Y-64712683D01*
X108398936Y-64713116D01*
X108398931Y-64713118D01*
X108389947Y-64714791D01*
X108370108Y-64727020D01*
X108367272Y-64728768D01*
X108354404Y-64735452D01*
X108336358Y-64743205D01*
X108336357Y-64743206D01*
X108329937Y-64745964D01*
X108325051Y-64749978D01*
X108320687Y-64754342D01*
X108302632Y-64768613D01*
X108294652Y-64773532D01*
X108276982Y-64796769D01*
X108268190Y-64806839D01*
X105842025Y-67233004D01*
X105787508Y-67260781D01*
X105772021Y-67262000D01*
X101421744Y-67262000D01*
X101363553Y-67243093D01*
X101327589Y-67193593D01*
X101324646Y-67182312D01*
X101312142Y-67119445D01*
X101312142Y-67119444D01*
X101310240Y-67109883D01*
X101252112Y-67022888D01*
X101165117Y-66964760D01*
X101088401Y-66949500D01*
X101083542Y-66949500D01*
X101000001Y-66949501D01*
X100911600Y-66949501D01*
X100906834Y-66950449D01*
X100844444Y-66962858D01*
X100844443Y-66962859D01*
X100834883Y-66964760D01*
X100747888Y-67022888D01*
X100689760Y-67109883D01*
X100674500Y-67186599D01*
X100674501Y-67938400D01*
X100675449Y-67943164D01*
X100675449Y-67943166D01*
X100686990Y-68001188D01*
X100689760Y-68015117D01*
X100713931Y-68051291D01*
X100741637Y-68092756D01*
X100747888Y-68102112D01*
X100834883Y-68160240D01*
X100911599Y-68175500D01*
X100975501Y-68175500D01*
X101033692Y-68194407D01*
X101069656Y-68243907D01*
X101074501Y-68274498D01*
X101074501Y-68338400D01*
X101089760Y-68415117D01*
X101109728Y-68445001D01*
X101126336Y-68503886D01*
X101109728Y-68554999D01*
X101089760Y-68584883D01*
X101074500Y-68661599D01*
X101074501Y-68838400D01*
X101075449Y-68843165D01*
X101075449Y-68843166D01*
X101086814Y-68900304D01*
X101089760Y-68915117D01*
X101109728Y-68945001D01*
X101126336Y-69003886D01*
X101109728Y-69054999D01*
X101089760Y-69084883D01*
X101074500Y-69161599D01*
X101074501Y-69338400D01*
X101075449Y-69343165D01*
X101075449Y-69343166D01*
X101087242Y-69402456D01*
X101089760Y-69415117D01*
X101109728Y-69445001D01*
X101126336Y-69503886D01*
X101109728Y-69554999D01*
X101089760Y-69584883D01*
X101074500Y-69661599D01*
X101074501Y-69838400D01*
X101075449Y-69843165D01*
X101075449Y-69843166D01*
X101081676Y-69874471D01*
X101089760Y-69915117D01*
X101109728Y-69945001D01*
X101126336Y-70003886D01*
X101109728Y-70054999D01*
X101089760Y-70084883D01*
X101074500Y-70161599D01*
X101074501Y-70338400D01*
X101075853Y-70345197D01*
X101087547Y-70403989D01*
X101089760Y-70415117D01*
X101109728Y-70445001D01*
X101126336Y-70503886D01*
X101109728Y-70554999D01*
X101089760Y-70584883D01*
X101074500Y-70661599D01*
X101074500Y-70725501D01*
X101055593Y-70783692D01*
X101006093Y-70819656D01*
X100975502Y-70824501D01*
X100911600Y-70824501D01*
X100906834Y-70825449D01*
X100844449Y-70837857D01*
X100844447Y-70837858D01*
X100834883Y-70839760D01*
X100804999Y-70859728D01*
X100746114Y-70876336D01*
X100695001Y-70859728D01*
X100665117Y-70839760D01*
X100588401Y-70824500D01*
X100583542Y-70824500D01*
X100500001Y-70824501D01*
X100411600Y-70824501D01*
X100406834Y-70825449D01*
X100344449Y-70837857D01*
X100344447Y-70837858D01*
X100334883Y-70839760D01*
X100304999Y-70859728D01*
X100246114Y-70876336D01*
X100195001Y-70859728D01*
X100165117Y-70839760D01*
X100088401Y-70824500D01*
X100083542Y-70824500D01*
X100000001Y-70824501D01*
X99911600Y-70824501D01*
X99906834Y-70825449D01*
X99844449Y-70837857D01*
X99844447Y-70837858D01*
X99834883Y-70839760D01*
X99804999Y-70859728D01*
X99746114Y-70876336D01*
X99695001Y-70859728D01*
X99665117Y-70839760D01*
X99588401Y-70824500D01*
X99583542Y-70824500D01*
X99500001Y-70824501D01*
X99411600Y-70824501D01*
X99406834Y-70825449D01*
X99344449Y-70837857D01*
X99344447Y-70837858D01*
X99334883Y-70839760D01*
X99304999Y-70859728D01*
X99246114Y-70876336D01*
X99195001Y-70859728D01*
X99165117Y-70839760D01*
X99088401Y-70824500D01*
X99083542Y-70824500D01*
X99000001Y-70824501D01*
X98911600Y-70824501D01*
X98906834Y-70825449D01*
X98844449Y-70837857D01*
X98844447Y-70837858D01*
X98834883Y-70839760D01*
X98804999Y-70859728D01*
X98746114Y-70876336D01*
X98695001Y-70859728D01*
X98665117Y-70839760D01*
X98588401Y-70824500D01*
X98524499Y-70824500D01*
X98466308Y-70805593D01*
X98430344Y-70756093D01*
X98425499Y-70725500D01*
X98425499Y-70661600D01*
X98416335Y-70615527D01*
X98412143Y-70594449D01*
X98412142Y-70594446D01*
X98410240Y-70584883D01*
X98390272Y-70554999D01*
X98373664Y-70496114D01*
X98390272Y-70445001D01*
X98410240Y-70415117D01*
X98425500Y-70338401D01*
X98425499Y-70161600D01*
X98410240Y-70084883D01*
X98390272Y-70054999D01*
X98373664Y-69996114D01*
X98390272Y-69945001D01*
X98410240Y-69915117D01*
X98425500Y-69838401D01*
X98425499Y-69661600D01*
X98416568Y-69616698D01*
X98412143Y-69594449D01*
X98412142Y-69594446D01*
X98410240Y-69584883D01*
X98390272Y-69554999D01*
X98373664Y-69496114D01*
X98390272Y-69445001D01*
X98410240Y-69415117D01*
X98425500Y-69338401D01*
X98425499Y-69161600D01*
X98417715Y-69122466D01*
X98412143Y-69094449D01*
X98412142Y-69094446D01*
X98410240Y-69084883D01*
X98390272Y-69054999D01*
X98373664Y-68996114D01*
X98390272Y-68945001D01*
X98410240Y-68915117D01*
X98425500Y-68838401D01*
X98425499Y-68661600D01*
X98410240Y-68584883D01*
X98390272Y-68554999D01*
X98373664Y-68496114D01*
X98390272Y-68445001D01*
X98410240Y-68415117D01*
X98425500Y-68338401D01*
X98425500Y-68298500D01*
X98444407Y-68240309D01*
X98493907Y-68204345D01*
X98524500Y-68199500D01*
X98942762Y-68199500D01*
X98962363Y-68198537D01*
X98963585Y-68198417D01*
X98963594Y-68198416D01*
X98969332Y-68197851D01*
X98981677Y-68196635D01*
X99001093Y-68193755D01*
X99037598Y-68186494D01*
X99062984Y-68181445D01*
X99062992Y-68181443D01*
X99065375Y-68180969D01*
X99067704Y-68180263D01*
X99067710Y-68180261D01*
X99074016Y-68178348D01*
X99088337Y-68175499D01*
X99088400Y-68175499D01*
X99093164Y-68174552D01*
X99093169Y-68174551D01*
X99155551Y-68162143D01*
X99155553Y-68162142D01*
X99165117Y-68160240D01*
X99195001Y-68140272D01*
X99253886Y-68123664D01*
X99304999Y-68140272D01*
X99334883Y-68160240D01*
X99411599Y-68175500D01*
X99500000Y-68175500D01*
X99588400Y-68175499D01*
X99600521Y-68173088D01*
X99655551Y-68162143D01*
X99655553Y-68162142D01*
X99665117Y-68160240D01*
X99695001Y-68140272D01*
X99753886Y-68123664D01*
X99804999Y-68140272D01*
X99834883Y-68160240D01*
X99911599Y-68175500D01*
X100000000Y-68175500D01*
X100088400Y-68175499D01*
X100100633Y-68173066D01*
X100155556Y-68162142D01*
X100155557Y-68162141D01*
X100165117Y-68160240D01*
X100231969Y-68115571D01*
X100244002Y-68107531D01*
X100252112Y-68102112D01*
X100258364Y-68092756D01*
X100286069Y-68051291D01*
X100310240Y-68015117D01*
X100325500Y-67938401D01*
X100325499Y-67186600D01*
X100310240Y-67109883D01*
X100307201Y-67105335D01*
X100300500Y-67071647D01*
X100300500Y-63492631D01*
X127569443Y-63492631D01*
X127571974Y-63520444D01*
X127581142Y-63621182D01*
X127588114Y-63697797D01*
X127646280Y-63895428D01*
X127741726Y-64077998D01*
X127757401Y-64097494D01*
X127843064Y-64204037D01*
X127870815Y-64238553D01*
X127874526Y-64241667D01*
X127874527Y-64241668D01*
X128011263Y-64356403D01*
X128028630Y-64370976D01*
X128032878Y-64373311D01*
X128032879Y-64373312D01*
X128090263Y-64404859D01*
X128209162Y-64470224D01*
X128213775Y-64471687D01*
X128213779Y-64471689D01*
X128345116Y-64513351D01*
X128405532Y-64532516D01*
X128410344Y-64533056D01*
X128410345Y-64533056D01*
X128563108Y-64550191D01*
X128563110Y-64550191D01*
X128565864Y-64550500D01*
X128926841Y-64550500D01*
X128929236Y-64550265D01*
X128929240Y-64550265D01*
X129075220Y-64535952D01*
X129075224Y-64535951D01*
X129080030Y-64535480D01*
X129084655Y-64534084D01*
X129084658Y-64534083D01*
X129211863Y-64495677D01*
X129277251Y-64475935D01*
X129459151Y-64379218D01*
X129618800Y-64249011D01*
X129630573Y-64234780D01*
X129747035Y-64094002D01*
X129747036Y-64094000D01*
X129750118Y-64090275D01*
X129848103Y-63909055D01*
X129880465Y-63804511D01*
X129907593Y-63716875D01*
X129907594Y-63716871D01*
X129909023Y-63712254D01*
X129910055Y-63702441D01*
X129930051Y-63512185D01*
X129930051Y-63512183D01*
X129930557Y-63507369D01*
X129929216Y-63492631D01*
X134819443Y-63492631D01*
X134821974Y-63520444D01*
X134831142Y-63621182D01*
X134838114Y-63697797D01*
X134896280Y-63895428D01*
X134991726Y-64077998D01*
X135007401Y-64097494D01*
X135093064Y-64204037D01*
X135120815Y-64238553D01*
X135124526Y-64241667D01*
X135124527Y-64241668D01*
X135261263Y-64356403D01*
X135278630Y-64370976D01*
X135282878Y-64373311D01*
X135282879Y-64373312D01*
X135340263Y-64404859D01*
X135459162Y-64470224D01*
X135463775Y-64471687D01*
X135463779Y-64471689D01*
X135595116Y-64513351D01*
X135655532Y-64532516D01*
X135660344Y-64533056D01*
X135660345Y-64533056D01*
X135813108Y-64550191D01*
X135813110Y-64550191D01*
X135815864Y-64550500D01*
X136176841Y-64550500D01*
X136179236Y-64550265D01*
X136179240Y-64550265D01*
X136325220Y-64535952D01*
X136325224Y-64535951D01*
X136330030Y-64535480D01*
X136334655Y-64534084D01*
X136334658Y-64534083D01*
X136461863Y-64495677D01*
X136527251Y-64475935D01*
X136709151Y-64379218D01*
X136868800Y-64249011D01*
X136880573Y-64234780D01*
X136997035Y-64094002D01*
X136997036Y-64094000D01*
X137000118Y-64090275D01*
X137098103Y-63909055D01*
X137130465Y-63804511D01*
X137157593Y-63716875D01*
X137157594Y-63716871D01*
X137159023Y-63712254D01*
X137160055Y-63702441D01*
X137180051Y-63512185D01*
X137180051Y-63512183D01*
X137180557Y-63507369D01*
X137171295Y-63405593D01*
X137162325Y-63307022D01*
X137162324Y-63307017D01*
X137161886Y-63302203D01*
X137103720Y-63104572D01*
X137008274Y-62922002D01*
X136945942Y-62844476D01*
X136882219Y-62765220D01*
X136882217Y-62765217D01*
X136879185Y-62761447D01*
X136863075Y-62747929D01*
X136725085Y-62632141D01*
X136725083Y-62632140D01*
X136721370Y-62629024D01*
X136702242Y-62618508D01*
X136557702Y-62539047D01*
X136540838Y-62529776D01*
X136536225Y-62528313D01*
X136536221Y-62528311D01*
X136349083Y-62468948D01*
X136344468Y-62467484D01*
X136339656Y-62466944D01*
X136339655Y-62466944D01*
X136186892Y-62449809D01*
X136186890Y-62449809D01*
X136184136Y-62449500D01*
X135823159Y-62449500D01*
X135820764Y-62449735D01*
X135820760Y-62449735D01*
X135674780Y-62464048D01*
X135674776Y-62464049D01*
X135669970Y-62464520D01*
X135665345Y-62465916D01*
X135665342Y-62465917D01*
X135552869Y-62499875D01*
X135472749Y-62524065D01*
X135290849Y-62620782D01*
X135131200Y-62750989D01*
X135128116Y-62754717D01*
X135128115Y-62754718D01*
X135038837Y-62862637D01*
X134999882Y-62909725D01*
X134901897Y-63090945D01*
X134900468Y-63095562D01*
X134843300Y-63280242D01*
X134840977Y-63287746D01*
X134840472Y-63292554D01*
X134840471Y-63292557D01*
X134823520Y-63453842D01*
X134819443Y-63492631D01*
X129929216Y-63492631D01*
X129921295Y-63405593D01*
X129912325Y-63307022D01*
X129912324Y-63307017D01*
X129911886Y-63302203D01*
X129853720Y-63104572D01*
X129758274Y-62922002D01*
X129695942Y-62844476D01*
X129632219Y-62765220D01*
X129632217Y-62765217D01*
X129629185Y-62761447D01*
X129613075Y-62747929D01*
X129475085Y-62632141D01*
X129475083Y-62632140D01*
X129471370Y-62629024D01*
X129452242Y-62618508D01*
X129307702Y-62539047D01*
X129290838Y-62529776D01*
X129286225Y-62528313D01*
X129286221Y-62528311D01*
X129099083Y-62468948D01*
X129094468Y-62467484D01*
X129089656Y-62466944D01*
X129089655Y-62466944D01*
X128936892Y-62449809D01*
X128936890Y-62449809D01*
X128934136Y-62449500D01*
X128573159Y-62449500D01*
X128570764Y-62449735D01*
X128570760Y-62449735D01*
X128424780Y-62464048D01*
X128424776Y-62464049D01*
X128419970Y-62464520D01*
X128415345Y-62465916D01*
X128415342Y-62465917D01*
X128302869Y-62499875D01*
X128222749Y-62524065D01*
X128040849Y-62620782D01*
X127881200Y-62750989D01*
X127878116Y-62754717D01*
X127878115Y-62754718D01*
X127788837Y-62862637D01*
X127749882Y-62909725D01*
X127651897Y-63090945D01*
X127650468Y-63095562D01*
X127593300Y-63280242D01*
X127590977Y-63287746D01*
X127590472Y-63292554D01*
X127590471Y-63292557D01*
X127573520Y-63453842D01*
X127569443Y-63492631D01*
X100300500Y-63492631D01*
X100300500Y-62553508D01*
X100300803Y-62549383D01*
X100302425Y-62544658D01*
X100300570Y-62495239D01*
X100300500Y-62491526D01*
X100300500Y-62472052D01*
X100299675Y-62467622D01*
X100299338Y-62462417D01*
X100298569Y-62441925D01*
X100298226Y-62432792D01*
X100294620Y-62424398D01*
X100294619Y-62424395D01*
X100293683Y-62422217D01*
X100287317Y-62401266D01*
X100285209Y-62389947D01*
X100271232Y-62367271D01*
X100264548Y-62354404D01*
X100256793Y-62336353D01*
X100256792Y-62336351D01*
X100254036Y-62329937D01*
X100250023Y-62325051D01*
X100245657Y-62320685D01*
X100231385Y-62302629D01*
X100231264Y-62302432D01*
X100231263Y-62302431D01*
X100226468Y-62294652D01*
X100203244Y-62276992D01*
X100193165Y-62268193D01*
X99066233Y-61141262D01*
X108300520Y-61141262D01*
X108307949Y-61229735D01*
X108314437Y-61306989D01*
X108317759Y-61346553D01*
X108319092Y-61351201D01*
X108319092Y-61351202D01*
X108367007Y-61518300D01*
X108374544Y-61544586D01*
X108468712Y-61727818D01*
X108596677Y-61889270D01*
X108600357Y-61892402D01*
X108600359Y-61892404D01*
X108668622Y-61950500D01*
X108753564Y-62022791D01*
X108757787Y-62025151D01*
X108757791Y-62025154D01*
X108837868Y-62069907D01*
X108933398Y-62123297D01*
X108937996Y-62124791D01*
X109124724Y-62185463D01*
X109124726Y-62185464D01*
X109129329Y-62186959D01*
X109333894Y-62211351D01*
X109338716Y-62210980D01*
X109338719Y-62210980D01*
X109406541Y-62205761D01*
X109539300Y-62195546D01*
X109737725Y-62140145D01*
X109742038Y-62137966D01*
X109742044Y-62137964D01*
X109917289Y-62049441D01*
X109917291Y-62049440D01*
X109921610Y-62047258D01*
X109925826Y-62043964D01*
X110080135Y-61923406D01*
X110080139Y-61923402D01*
X110083951Y-61920424D01*
X110090674Y-61912636D01*
X110186074Y-61802112D01*
X110218564Y-61764472D01*
X110234044Y-61737223D01*
X110317934Y-61589550D01*
X110317935Y-61589547D01*
X110320323Y-61585344D01*
X110332081Y-61550000D01*
X110383824Y-61394454D01*
X110383824Y-61394452D01*
X110385351Y-61389863D01*
X110389202Y-61359383D01*
X110405024Y-61234131D01*
X110411171Y-61185474D01*
X110411583Y-61156000D01*
X110410138Y-61141262D01*
X110840520Y-61141262D01*
X110847949Y-61229735D01*
X110854437Y-61306989D01*
X110857759Y-61346553D01*
X110859092Y-61351201D01*
X110859092Y-61351202D01*
X110907007Y-61518300D01*
X110914544Y-61544586D01*
X111008712Y-61727818D01*
X111136677Y-61889270D01*
X111140357Y-61892402D01*
X111140359Y-61892404D01*
X111208622Y-61950500D01*
X111293564Y-62022791D01*
X111297787Y-62025151D01*
X111297791Y-62025154D01*
X111377868Y-62069907D01*
X111473398Y-62123297D01*
X111477996Y-62124791D01*
X111664724Y-62185463D01*
X111664726Y-62185464D01*
X111669329Y-62186959D01*
X111873894Y-62211351D01*
X111878716Y-62210980D01*
X111878719Y-62210980D01*
X111946541Y-62205761D01*
X112079300Y-62195546D01*
X112277725Y-62140145D01*
X112282038Y-62137966D01*
X112282044Y-62137964D01*
X112457289Y-62049441D01*
X112457291Y-62049440D01*
X112461610Y-62047258D01*
X112465826Y-62043964D01*
X112620135Y-61923406D01*
X112620139Y-61923402D01*
X112623951Y-61920424D01*
X112630674Y-61912636D01*
X112726074Y-61802112D01*
X112758564Y-61764472D01*
X112774044Y-61737223D01*
X112857934Y-61589550D01*
X112857935Y-61589547D01*
X112860323Y-61585344D01*
X112872081Y-61550000D01*
X112923824Y-61394454D01*
X112923824Y-61394452D01*
X112925351Y-61389863D01*
X112929202Y-61359383D01*
X112945024Y-61234131D01*
X112951171Y-61185474D01*
X112951583Y-61156000D01*
X112948039Y-61119856D01*
X112931952Y-60955780D01*
X112931951Y-60955776D01*
X112931480Y-60950970D01*
X112921951Y-60919407D01*
X112881916Y-60786808D01*
X112871935Y-60753749D01*
X112775218Y-60571849D01*
X112645011Y-60412200D01*
X112628790Y-60398781D01*
X112490002Y-60283965D01*
X112490000Y-60283964D01*
X112486275Y-60280882D01*
X112305055Y-60182897D01*
X112222888Y-60157462D01*
X112112875Y-60123407D01*
X112112871Y-60123406D01*
X112108254Y-60121977D01*
X112103446Y-60121472D01*
X112103443Y-60121471D01*
X111908185Y-60100949D01*
X111908183Y-60100949D01*
X111903369Y-60100443D01*
X111843354Y-60105905D01*
X111703022Y-60118675D01*
X111703017Y-60118676D01*
X111698203Y-60119114D01*
X111500572Y-60177280D01*
X111496288Y-60179519D01*
X111496287Y-60179520D01*
X111485428Y-60185197D01*
X111318002Y-60272726D01*
X111314231Y-60275758D01*
X111161220Y-60398781D01*
X111161217Y-60398783D01*
X111157447Y-60401815D01*
X111154333Y-60405526D01*
X111154332Y-60405527D01*
X111137700Y-60425349D01*
X111025024Y-60559630D01*
X111022689Y-60563878D01*
X111022688Y-60563879D01*
X111015955Y-60576126D01*
X110925776Y-60740162D01*
X110924313Y-60744775D01*
X110924311Y-60744779D01*
X110888262Y-60858422D01*
X110863484Y-60936532D01*
X110862944Y-60941344D01*
X110862944Y-60941345D01*
X110841558Y-61132012D01*
X110840520Y-61141262D01*
X110410138Y-61141262D01*
X110408039Y-61119856D01*
X110391952Y-60955780D01*
X110391951Y-60955776D01*
X110391480Y-60950970D01*
X110381951Y-60919407D01*
X110341916Y-60786808D01*
X110331935Y-60753749D01*
X110235218Y-60571849D01*
X110105011Y-60412200D01*
X110088790Y-60398781D01*
X109950002Y-60283965D01*
X109950000Y-60283964D01*
X109946275Y-60280882D01*
X109765055Y-60182897D01*
X109682888Y-60157462D01*
X109572875Y-60123407D01*
X109572871Y-60123406D01*
X109568254Y-60121977D01*
X109563446Y-60121472D01*
X109563443Y-60121471D01*
X109368185Y-60100949D01*
X109368183Y-60100949D01*
X109363369Y-60100443D01*
X109303354Y-60105905D01*
X109163022Y-60118675D01*
X109163017Y-60118676D01*
X109158203Y-60119114D01*
X108960572Y-60177280D01*
X108956288Y-60179519D01*
X108956287Y-60179520D01*
X108945428Y-60185197D01*
X108778002Y-60272726D01*
X108774231Y-60275758D01*
X108621220Y-60398781D01*
X108621217Y-60398783D01*
X108617447Y-60401815D01*
X108614333Y-60405526D01*
X108614332Y-60405527D01*
X108597700Y-60425349D01*
X108485024Y-60559630D01*
X108482689Y-60563878D01*
X108482688Y-60563879D01*
X108475955Y-60576126D01*
X108385776Y-60740162D01*
X108384313Y-60744775D01*
X108384311Y-60744779D01*
X108348262Y-60858422D01*
X108323484Y-60936532D01*
X108322944Y-60941344D01*
X108322944Y-60941345D01*
X108301558Y-61132012D01*
X108300520Y-61141262D01*
X99066233Y-61141262D01*
X98350320Y-60425349D01*
X98347620Y-60422220D01*
X98345425Y-60417731D01*
X98309178Y-60384107D01*
X98306502Y-60381531D01*
X98292723Y-60367752D01*
X98289013Y-60365207D01*
X98285100Y-60361771D01*
X98270055Y-60347815D01*
X98263354Y-60341599D01*
X98252664Y-60337334D01*
X98233348Y-60327020D01*
X98231393Y-60325679D01*
X98231390Y-60325678D01*
X98223854Y-60320508D01*
X98197941Y-60314359D01*
X98184116Y-60309986D01*
X98165868Y-60302706D01*
X98165866Y-60302706D01*
X98159378Y-60300117D01*
X98153085Y-60299500D01*
X98146916Y-60299500D01*
X98124057Y-60296825D01*
X98123827Y-60296770D01*
X98123825Y-60296770D01*
X98114934Y-60294660D01*
X98086013Y-60298596D01*
X98072663Y-60299500D01*
X97340783Y-60299500D01*
X97282592Y-60280593D01*
X97261714Y-60255775D01*
X97259802Y-60257144D01*
X97255038Y-60250490D01*
X97251432Y-60243145D01*
X97168850Y-60160707D01*
X97064018Y-60109464D01*
X97056416Y-60108355D01*
X97056413Y-60108354D01*
X96999263Y-60100017D01*
X96999261Y-60100017D01*
X96995718Y-60099500D01*
X95904282Y-60099500D01*
X95900699Y-60100028D01*
X95900692Y-60100028D01*
X95843001Y-60108521D01*
X95842999Y-60108522D01*
X95835388Y-60109642D01*
X95828482Y-60113033D01*
X95828481Y-60113033D01*
X95813311Y-60120481D01*
X95730645Y-60161068D01*
X95648207Y-60243650D01*
X95596964Y-60348482D01*
X95595855Y-60356084D01*
X95595854Y-60356087D01*
X95587668Y-60412200D01*
X95587000Y-60416782D01*
X95587000Y-60783218D01*
X95597142Y-60852112D01*
X95648568Y-60956855D01*
X95654359Y-60962636D01*
X95696720Y-61004923D01*
X95724546Y-61059416D01*
X95715027Y-61119856D01*
X95696845Y-61144928D01*
X95648207Y-61193650D01*
X95596964Y-61298482D01*
X95595855Y-61306084D01*
X95595854Y-61306087D01*
X95587517Y-61363237D01*
X95587000Y-61366782D01*
X95587000Y-61733218D01*
X95587528Y-61736801D01*
X95587528Y-61736808D01*
X95596021Y-61794499D01*
X95597142Y-61802112D01*
X95648568Y-61906855D01*
X95654359Y-61912636D01*
X95696720Y-61954923D01*
X95724546Y-62009416D01*
X95715027Y-62069856D01*
X95696845Y-62094928D01*
X95648207Y-62143650D01*
X95596964Y-62248482D01*
X95595855Y-62256084D01*
X95595854Y-62256087D01*
X95587524Y-62313192D01*
X95587000Y-62316782D01*
X95587000Y-62683218D01*
X95597142Y-62752112D01*
X95648568Y-62856855D01*
X95731150Y-62939293D01*
X95835982Y-62990536D01*
X95843584Y-62991645D01*
X95843587Y-62991646D01*
X95900737Y-62999983D01*
X95900739Y-62999983D01*
X95904282Y-63000500D01*
X96995718Y-63000500D01*
X96999301Y-62999972D01*
X96999308Y-62999972D01*
X97056999Y-62991479D01*
X97057001Y-62991478D01*
X97064612Y-62990358D01*
X97072440Y-62986515D01*
X97122462Y-62961955D01*
X97169355Y-62938932D01*
X97186256Y-62922002D01*
X97235300Y-62872872D01*
X97251793Y-62856350D01*
X97255386Y-62848999D01*
X97260139Y-62842336D01*
X97263140Y-62844476D01*
X97294417Y-62812088D01*
X97340895Y-62800500D01*
X98584521Y-62800500D01*
X98642712Y-62819407D01*
X98654525Y-62829496D01*
X99170504Y-63345475D01*
X99198281Y-63399992D01*
X99199500Y-63415479D01*
X99199500Y-64726232D01*
X99180593Y-64784423D01*
X99131093Y-64820387D01*
X99071759Y-64820968D01*
X99065373Y-64819031D01*
X98998578Y-64805745D01*
X98979163Y-64802865D01*
X98977961Y-64802747D01*
X98977956Y-64802746D01*
X98961073Y-64801083D01*
X98961055Y-64801082D01*
X98959850Y-64800963D01*
X98958651Y-64800904D01*
X98958636Y-64800903D01*
X98950402Y-64800499D01*
X98940248Y-64800000D01*
X95259752Y-64800000D01*
X95249598Y-64800499D01*
X95241364Y-64800903D01*
X95241349Y-64800904D01*
X95240150Y-64800963D01*
X95238945Y-64801082D01*
X95238927Y-64801083D01*
X95222044Y-64802746D01*
X95222039Y-64802747D01*
X95220837Y-64802865D01*
X95201422Y-64805745D01*
X95134627Y-64819031D01*
X95097109Y-64830411D01*
X95094872Y-64831338D01*
X95094868Y-64831339D01*
X95084745Y-64835532D01*
X95061421Y-64845193D01*
X95026843Y-64863675D01*
X94978484Y-64895987D01*
X94948176Y-64920861D01*
X94920861Y-64948176D01*
X94895987Y-64978484D01*
X94894636Y-64980506D01*
X94894633Y-64980510D01*
X94873261Y-65012496D01*
X94863675Y-65026843D01*
X94845193Y-65061421D01*
X94830411Y-65097109D01*
X94819031Y-65134627D01*
X94805745Y-65201422D01*
X94802865Y-65220837D01*
X94800963Y-65240150D01*
X94800000Y-65259752D01*
X94800000Y-67340248D01*
X90093801Y-67340248D01*
X90100500Y-67289361D01*
X90105682Y-67250000D01*
X90101347Y-67217072D01*
X90100500Y-67204151D01*
X90100500Y-66868514D01*
X90119407Y-66810323D01*
X90168907Y-66774359D01*
X90230093Y-66774359D01*
X90253129Y-66785298D01*
X90366817Y-66858565D01*
X90535578Y-66919989D01*
X90674283Y-66937511D01*
X91770155Y-66937511D01*
X91772909Y-66937202D01*
X91772911Y-66937202D01*
X91807126Y-66933364D01*
X91903472Y-66922557D01*
X91968405Y-66899945D01*
X92067847Y-66865316D01*
X92067848Y-66865316D01*
X92073073Y-66863496D01*
X92156103Y-66811613D01*
X92220685Y-66771258D01*
X92220687Y-66771256D01*
X92225375Y-66768327D01*
X92287010Y-66707120D01*
X92348879Y-66645682D01*
X92348880Y-66645680D01*
X92352807Y-66641781D01*
X92366675Y-66619929D01*
X92446071Y-66494821D01*
X92446072Y-66494820D01*
X92449037Y-66490147D01*
X92509281Y-66320962D01*
X92515898Y-66265474D01*
X92529890Y-66148131D01*
X92529890Y-66148128D01*
X92530545Y-66142635D01*
X92511773Y-65964028D01*
X92464369Y-65824779D01*
X92455682Y-65799260D01*
X92455680Y-65799256D01*
X92453897Y-65794018D01*
X92450999Y-65789308D01*
X92450997Y-65789303D01*
X92362691Y-65645765D01*
X92359794Y-65641056D01*
X92234141Y-65512743D01*
X92083183Y-65415457D01*
X91914422Y-65354033D01*
X91775717Y-65336511D01*
X91081036Y-65336511D01*
X91022845Y-65317604D01*
X90986881Y-65268104D01*
X90986881Y-65206918D01*
X90996892Y-65185352D01*
X91007635Y-65168025D01*
X91049715Y-65023186D01*
X91050500Y-65012496D01*
X91050500Y-64726511D01*
X91069407Y-64668320D01*
X91118907Y-64632356D01*
X91149500Y-64627511D01*
X92119748Y-64627511D01*
X92154095Y-64620679D01*
X92168666Y-64617781D01*
X92168668Y-64617780D01*
X92178231Y-64615878D01*
X92244552Y-64571563D01*
X92288867Y-64505242D01*
X92294419Y-64477333D01*
X92295541Y-64471689D01*
X92300500Y-64446759D01*
X92300500Y-63887263D01*
X92298101Y-63875203D01*
X92305292Y-63814443D01*
X92346825Y-63769512D01*
X92406834Y-63757575D01*
X92465203Y-63785885D01*
X92818255Y-64138937D01*
X92831420Y-64155240D01*
X92832733Y-64157274D01*
X92832736Y-64157278D01*
X92837175Y-64164152D01*
X92862332Y-64183984D01*
X92866738Y-64187900D01*
X92866739Y-64187899D01*
X92869868Y-64190550D01*
X92872747Y-64193429D01*
X92876061Y-64195797D01*
X92876062Y-64195798D01*
X92887591Y-64204037D01*
X92891319Y-64206836D01*
X92905061Y-64217669D01*
X92928811Y-64236392D01*
X92936114Y-64238957D01*
X92937369Y-64239609D01*
X92943670Y-64244111D01*
X92981476Y-64255417D01*
X92989412Y-64257791D01*
X92993846Y-64259232D01*
X93033030Y-64272992D01*
X93033034Y-64272993D01*
X93038906Y-64275055D01*
X93044044Y-64275500D01*
X93046182Y-64275500D01*
X93047901Y-64275574D01*
X93049262Y-64275689D01*
X93055464Y-64277544D01*
X93063635Y-64277223D01*
X93105554Y-64275576D01*
X93109441Y-64275500D01*
X93291525Y-64275500D01*
X93349716Y-64294407D01*
X93379735Y-64329556D01*
X93396950Y-64363342D01*
X93486658Y-64453050D01*
X93493595Y-64456585D01*
X93493597Y-64456586D01*
X93589090Y-64505242D01*
X93599696Y-64510646D01*
X93607390Y-64511865D01*
X93607391Y-64511865D01*
X93689635Y-64524891D01*
X93689637Y-64524891D01*
X93693481Y-64525500D01*
X93999960Y-64525500D01*
X94306518Y-64525499D01*
X94310361Y-64524890D01*
X94310366Y-64524890D01*
X94347217Y-64519053D01*
X94400304Y-64510646D01*
X94476761Y-64471689D01*
X94506403Y-64456586D01*
X94506405Y-64456585D01*
X94513342Y-64453050D01*
X94603050Y-64363342D01*
X94638175Y-64294407D01*
X94657110Y-64257244D01*
X94657110Y-64257243D01*
X94660646Y-64250304D01*
X94662168Y-64240698D01*
X94674891Y-64160365D01*
X94674891Y-64160363D01*
X94675500Y-64156519D01*
X94675499Y-63693482D01*
X94660646Y-63599696D01*
X94611146Y-63502547D01*
X94606586Y-63493597D01*
X94606585Y-63493595D01*
X94603050Y-63486658D01*
X94513342Y-63396950D01*
X94506405Y-63393415D01*
X94506403Y-63393414D01*
X94407244Y-63342890D01*
X94407243Y-63342890D01*
X94400304Y-63339354D01*
X94392610Y-63338135D01*
X94392609Y-63338135D01*
X94310365Y-63325109D01*
X94310363Y-63325109D01*
X94306519Y-63324500D01*
X94000040Y-63324500D01*
X93693482Y-63324501D01*
X93689639Y-63325110D01*
X93689634Y-63325110D01*
X93652783Y-63330947D01*
X93599696Y-63339354D01*
X93560929Y-63359107D01*
X93493597Y-63393414D01*
X93493595Y-63393415D01*
X93486658Y-63396950D01*
X93396950Y-63486658D01*
X93393414Y-63493597D01*
X93393413Y-63493599D01*
X93379735Y-63520444D01*
X93336471Y-63563709D01*
X93291525Y-63574500D01*
X93286190Y-63574500D01*
X93227999Y-63555593D01*
X93216186Y-63545504D01*
X92657197Y-62986515D01*
X92629420Y-62931998D01*
X92638991Y-62871566D01*
X92682256Y-62828301D01*
X92727201Y-62817511D01*
X93296174Y-62817511D01*
X93354365Y-62836418D01*
X93372501Y-62854682D01*
X93373568Y-62856855D01*
X93456150Y-62939293D01*
X93560982Y-62990536D01*
X93568584Y-62991645D01*
X93568587Y-62991646D01*
X93625737Y-62999983D01*
X93625739Y-62999983D01*
X93629282Y-63000500D01*
X94720718Y-63000500D01*
X94724301Y-62999972D01*
X94724308Y-62999972D01*
X94781999Y-62991479D01*
X94782001Y-62991478D01*
X94789612Y-62990358D01*
X94797440Y-62986515D01*
X94847462Y-62961955D01*
X94894355Y-62938932D01*
X94911256Y-62922002D01*
X94960300Y-62872872D01*
X94976793Y-62856350D01*
X95028036Y-62751518D01*
X95029145Y-62743916D01*
X95029146Y-62743913D01*
X95037483Y-62686763D01*
X95037483Y-62686761D01*
X95038000Y-62683218D01*
X95038000Y-62316782D01*
X95037225Y-62311513D01*
X95028979Y-62255501D01*
X95028978Y-62255499D01*
X95027858Y-62247888D01*
X94976432Y-62143145D01*
X94893850Y-62060707D01*
X94789018Y-62009464D01*
X94781416Y-62008355D01*
X94781413Y-62008354D01*
X94724263Y-62000017D01*
X94724261Y-62000017D01*
X94720718Y-61999500D01*
X93629282Y-61999500D01*
X93625699Y-62000028D01*
X93625692Y-62000028D01*
X93568001Y-62008521D01*
X93567999Y-62008522D01*
X93560388Y-62009642D01*
X93553482Y-62013033D01*
X93553481Y-62013033D01*
X93514226Y-62032306D01*
X93455645Y-62061068D01*
X93373207Y-62143650D01*
X93321964Y-62248482D01*
X93321820Y-62249471D01*
X93288494Y-62296758D01*
X93229156Y-62316511D01*
X92647367Y-62316511D01*
X92589176Y-62297604D01*
X92553212Y-62248104D01*
X92553212Y-62186918D01*
X92558348Y-62175051D01*
X92561392Y-62171189D01*
X92563957Y-62163884D01*
X92564607Y-62162634D01*
X92569111Y-62156331D01*
X92582792Y-62110585D01*
X92584233Y-62106149D01*
X92597993Y-62066967D01*
X92597994Y-62066964D01*
X92600055Y-62061094D01*
X92600500Y-62055956D01*
X92600500Y-62053818D01*
X92600574Y-62052099D01*
X92600689Y-62050738D01*
X92602544Y-62044536D01*
X92601783Y-62025154D01*
X92600576Y-61994446D01*
X92600500Y-61990559D01*
X92600500Y-61737223D01*
X92619407Y-61679032D01*
X92629496Y-61667219D01*
X92763937Y-61532778D01*
X92780240Y-61519613D01*
X92782274Y-61518300D01*
X92782278Y-61518297D01*
X92789152Y-61513858D01*
X92808985Y-61488701D01*
X92812899Y-61484296D01*
X92812898Y-61484295D01*
X92815551Y-61481164D01*
X92818428Y-61478287D01*
X92829044Y-61463432D01*
X92831835Y-61459714D01*
X92856327Y-61428647D01*
X92856327Y-61428646D01*
X92861392Y-61422222D01*
X92863958Y-61414915D01*
X92864605Y-61413669D01*
X92869111Y-61407364D01*
X92882788Y-61361629D01*
X92884229Y-61357194D01*
X92897993Y-61318000D01*
X92897994Y-61317997D01*
X92900055Y-61312127D01*
X92900500Y-61306989D01*
X92900500Y-61304853D01*
X92900575Y-61303114D01*
X92900689Y-61301771D01*
X92902543Y-61295570D01*
X92902089Y-61283996D01*
X92900576Y-61245495D01*
X92900500Y-61241609D01*
X92900500Y-61086190D01*
X92919407Y-61027999D01*
X92929496Y-61016186D01*
X92966186Y-60979496D01*
X93020703Y-60951719D01*
X93036190Y-60950500D01*
X93326245Y-60950500D01*
X93384436Y-60969407D01*
X93396187Y-60979435D01*
X93404545Y-60987778D01*
X93456150Y-61039293D01*
X93560982Y-61090536D01*
X93568584Y-61091645D01*
X93568587Y-61091646D01*
X93625737Y-61099983D01*
X93625739Y-61099983D01*
X93629282Y-61100500D01*
X94720718Y-61100500D01*
X94724301Y-61099972D01*
X94724308Y-61099972D01*
X94781999Y-61091479D01*
X94782001Y-61091478D01*
X94789612Y-61090358D01*
X94798102Y-61086190D01*
X94835774Y-61067694D01*
X94894355Y-61038932D01*
X94976793Y-60956350D01*
X95028036Y-60851518D01*
X95029145Y-60843916D01*
X95029146Y-60843913D01*
X95037483Y-60786763D01*
X95037483Y-60786761D01*
X95038000Y-60783218D01*
X95038000Y-60416782D01*
X95037326Y-60412200D01*
X95028979Y-60355501D01*
X95028978Y-60355499D01*
X95027858Y-60347888D01*
X94976432Y-60243145D01*
X94893850Y-60160707D01*
X94789018Y-60109464D01*
X94781416Y-60108355D01*
X94781413Y-60108354D01*
X94724263Y-60100017D01*
X94724261Y-60100017D01*
X94720718Y-60099500D01*
X93810190Y-60099500D01*
X93751999Y-60080593D01*
X93716035Y-60031093D01*
X93716035Y-59969907D01*
X93740186Y-59930496D01*
X93866186Y-59804496D01*
X93920703Y-59776719D01*
X93936190Y-59775500D01*
X94270846Y-59775499D01*
X94306518Y-59775499D01*
X94310361Y-59774890D01*
X94310366Y-59774890D01*
X94347217Y-59769053D01*
X94400304Y-59760646D01*
X94484961Y-59717511D01*
X94506403Y-59706586D01*
X94506405Y-59706585D01*
X94513342Y-59703050D01*
X94603050Y-59613342D01*
X94609112Y-59601446D01*
X94657110Y-59507244D01*
X94657110Y-59507243D01*
X94660646Y-59500304D01*
X94662952Y-59485748D01*
X108305500Y-59485748D01*
X108317133Y-59544231D01*
X108361448Y-59610552D01*
X108427769Y-59654867D01*
X108437332Y-59656769D01*
X108437334Y-59656770D01*
X108460005Y-59661279D01*
X108486252Y-59666500D01*
X110225748Y-59666500D01*
X110251995Y-59661279D01*
X110274666Y-59656770D01*
X110274668Y-59656769D01*
X110284231Y-59654867D01*
X110350552Y-59610552D01*
X110394867Y-59544231D01*
X110406500Y-59485748D01*
X110406500Y-58601262D01*
X110840520Y-58601262D01*
X110840925Y-58606082D01*
X110856273Y-58788853D01*
X110857759Y-58806553D01*
X110859092Y-58811201D01*
X110859092Y-58811202D01*
X110898139Y-58947374D01*
X110914544Y-59004586D01*
X111008712Y-59187818D01*
X111136677Y-59349270D01*
X111140357Y-59352402D01*
X111140359Y-59352404D01*
X111253017Y-59448283D01*
X111293564Y-59482791D01*
X111297787Y-59485151D01*
X111297791Y-59485154D01*
X111337317Y-59507244D01*
X111473398Y-59583297D01*
X111477996Y-59584791D01*
X111664724Y-59645463D01*
X111664726Y-59645464D01*
X111669329Y-59646959D01*
X111873894Y-59671351D01*
X111878716Y-59670980D01*
X111878719Y-59670980D01*
X111949259Y-59665552D01*
X112079300Y-59655546D01*
X112277725Y-59600145D01*
X112282038Y-59597966D01*
X112282044Y-59597964D01*
X112457289Y-59509441D01*
X112457291Y-59509440D01*
X112461610Y-59507258D01*
X112496943Y-59479653D01*
X112620135Y-59383406D01*
X112620139Y-59383402D01*
X112623951Y-59380424D01*
X112628777Y-59374834D01*
X112713518Y-59276659D01*
X112758564Y-59224472D01*
X112777231Y-59191613D01*
X112857934Y-59049550D01*
X112857935Y-59049547D01*
X112860323Y-59045344D01*
X112869372Y-59018144D01*
X112923824Y-58854454D01*
X112923824Y-58854452D01*
X112925351Y-58849863D01*
X112940348Y-58731152D01*
X112950823Y-58648228D01*
X112951171Y-58645474D01*
X112951583Y-58616000D01*
X112949317Y-58592890D01*
X112931952Y-58415780D01*
X112931951Y-58415776D01*
X112931480Y-58410970D01*
X112909758Y-58339022D01*
X112892896Y-58283174D01*
X112871935Y-58213749D01*
X112775218Y-58031849D01*
X112645011Y-57872200D01*
X112628790Y-57858781D01*
X112490002Y-57743965D01*
X112490000Y-57743964D01*
X112486275Y-57740882D01*
X112305055Y-57642897D01*
X112235764Y-57621448D01*
X112112875Y-57583407D01*
X112112871Y-57583406D01*
X112108254Y-57581977D01*
X112103446Y-57581472D01*
X112103443Y-57581471D01*
X111908185Y-57560949D01*
X111908183Y-57560949D01*
X111903369Y-57560443D01*
X111847800Y-57565500D01*
X111703022Y-57578675D01*
X111703017Y-57578676D01*
X111698203Y-57579114D01*
X111500572Y-57637280D01*
X111496288Y-57639519D01*
X111496287Y-57639520D01*
X111437996Y-57669994D01*
X111318002Y-57732726D01*
X111314231Y-57735758D01*
X111161220Y-57858781D01*
X111161217Y-57858783D01*
X111157447Y-57861815D01*
X111154333Y-57865526D01*
X111154332Y-57865527D01*
X111145585Y-57875952D01*
X111025024Y-58019630D01*
X111022689Y-58023878D01*
X111022688Y-58023879D01*
X110991141Y-58081263D01*
X110925776Y-58200162D01*
X110924313Y-58204775D01*
X110924311Y-58204779D01*
X110906712Y-58260259D01*
X110863484Y-58396532D01*
X110862944Y-58401344D01*
X110862944Y-58401345D01*
X110841856Y-58589354D01*
X110840520Y-58601262D01*
X110406500Y-58601262D01*
X110406500Y-57746252D01*
X110394867Y-57687769D01*
X110350552Y-57621448D01*
X110284231Y-57577133D01*
X110274668Y-57575231D01*
X110274666Y-57575230D01*
X110251995Y-57570721D01*
X110225748Y-57565500D01*
X108486252Y-57565500D01*
X108460005Y-57570721D01*
X108437334Y-57575230D01*
X108437332Y-57575231D01*
X108427769Y-57577133D01*
X108361448Y-57621448D01*
X108317133Y-57687769D01*
X108305500Y-57746252D01*
X108305500Y-59485748D01*
X94662952Y-59485748D01*
X94674891Y-59410365D01*
X94674891Y-59410363D01*
X94675500Y-59406519D01*
X94675499Y-58943482D01*
X94674648Y-58938104D01*
X94662043Y-58858519D01*
X94660646Y-58849696D01*
X94603050Y-58736658D01*
X94513342Y-58646950D01*
X94506405Y-58643415D01*
X94506403Y-58643414D01*
X94407244Y-58592890D01*
X94407243Y-58592890D01*
X94400304Y-58589354D01*
X94392610Y-58588135D01*
X94392609Y-58588135D01*
X94310365Y-58575109D01*
X94310363Y-58575109D01*
X94306519Y-58574500D01*
X94000040Y-58574500D01*
X93693482Y-58574501D01*
X93689639Y-58575110D01*
X93689634Y-58575110D01*
X93652783Y-58580947D01*
X93599696Y-58589354D01*
X93547401Y-58616000D01*
X93493597Y-58643414D01*
X93493595Y-58643415D01*
X93486658Y-58646950D01*
X93396950Y-58736658D01*
X93393415Y-58743595D01*
X93393414Y-58743597D01*
X93358968Y-58811202D01*
X93339354Y-58849696D01*
X93338135Y-58857390D01*
X93338135Y-58857391D01*
X93325109Y-58939634D01*
X93324500Y-58943481D01*
X93324501Y-59139108D01*
X93324501Y-59313809D01*
X93305594Y-59372000D01*
X93295505Y-59383813D01*
X92891803Y-59787515D01*
X92837286Y-59815292D01*
X92821799Y-59816511D01*
X92399500Y-59816511D01*
X92341309Y-59797604D01*
X92305345Y-59748104D01*
X92300500Y-59717511D01*
X92300500Y-59187263D01*
X92295279Y-59161016D01*
X92290770Y-59138345D01*
X92290769Y-59138343D01*
X92288867Y-59128780D01*
X92244552Y-59062459D01*
X92178231Y-59018144D01*
X92168668Y-59016242D01*
X92168666Y-59016241D01*
X92145995Y-59011732D01*
X92119748Y-59006511D01*
X91144638Y-59006511D01*
X91086447Y-58987604D01*
X91050483Y-58938104D01*
X91045904Y-58900260D01*
X91054086Y-58788853D01*
X91054086Y-58788850D01*
X91054580Y-58782120D01*
X91024767Y-58634268D01*
X90956293Y-58499879D01*
X90951730Y-58494916D01*
X90951728Y-58494914D01*
X90922861Y-58463522D01*
X90897391Y-58407890D01*
X90909485Y-58347912D01*
X90954523Y-58306497D01*
X90995735Y-58297511D01*
X91770155Y-58297511D01*
X91772909Y-58297202D01*
X91772911Y-58297202D01*
X91800291Y-58294131D01*
X91903472Y-58282557D01*
X91949550Y-58266511D01*
X92067847Y-58225316D01*
X92067848Y-58225316D01*
X92073073Y-58223496D01*
X92187884Y-58151754D01*
X92220685Y-58131258D01*
X92220687Y-58131256D01*
X92225375Y-58128327D01*
X92298853Y-58055360D01*
X92348879Y-58005682D01*
X92348880Y-58005680D01*
X92352807Y-58001781D01*
X92355774Y-57997106D01*
X92446071Y-57854821D01*
X92446072Y-57854820D01*
X92449037Y-57850147D01*
X92509281Y-57680962D01*
X92513991Y-57641468D01*
X92529890Y-57508131D01*
X92529890Y-57508128D01*
X92530545Y-57502635D01*
X92511773Y-57324028D01*
X92506266Y-57307851D01*
X92455682Y-57159260D01*
X92455680Y-57159256D01*
X92453897Y-57154018D01*
X92450999Y-57149308D01*
X92450997Y-57149303D01*
X92362691Y-57005765D01*
X92359794Y-57001056D01*
X92302566Y-56942616D01*
X92238012Y-56876696D01*
X92234141Y-56872743D01*
X92083183Y-56775457D01*
X91914422Y-56714033D01*
X91775717Y-56696511D01*
X90679845Y-56696511D01*
X90677091Y-56696820D01*
X90677089Y-56696820D01*
X90649709Y-56699891D01*
X90546528Y-56711465D01*
X90376927Y-56770526D01*
X90372234Y-56773458D01*
X90372235Y-56773458D01*
X90229315Y-56862764D01*
X90229313Y-56862766D01*
X90224625Y-56865695D01*
X90097193Y-56992241D01*
X90094227Y-56996915D01*
X90094226Y-56996916D01*
X90009350Y-57130660D01*
X90000963Y-57143875D01*
X89940719Y-57313060D01*
X89940065Y-57318547D01*
X89940064Y-57318550D01*
X89920110Y-57485891D01*
X89919455Y-57491387D01*
X89938227Y-57669994D01*
X89940011Y-57675234D01*
X89940011Y-57675235D01*
X89971361Y-57767324D01*
X89996103Y-57840004D01*
X89999001Y-57844714D01*
X89999003Y-57844719D01*
X90014012Y-57869115D01*
X90090206Y-57992966D01*
X90215859Y-58121279D01*
X90220511Y-58124277D01*
X90263147Y-58151754D01*
X90301818Y-58199169D01*
X90305234Y-58260259D01*
X90272089Y-58311689D01*
X90248836Y-58325827D01*
X90218345Y-58339022D01*
X90218339Y-58339026D01*
X90212145Y-58341706D01*
X90094930Y-58436625D01*
X90091022Y-58442124D01*
X90049978Y-58499879D01*
X90007558Y-58559569D01*
X90005274Y-58565914D01*
X90005272Y-58565917D01*
X89974116Y-58652456D01*
X89956467Y-58701479D01*
X89953374Y-58743597D01*
X89946092Y-58842757D01*
X89945420Y-58851902D01*
X89975233Y-58999754D01*
X89978295Y-59005763D01*
X89978295Y-59005764D01*
X90009470Y-59066949D01*
X90043707Y-59134143D01*
X90048270Y-59139106D01*
X90048272Y-59139108D01*
X90123601Y-59221027D01*
X90149071Y-59276659D01*
X90136977Y-59336637D01*
X90110996Y-59366579D01*
X90105781Y-59370581D01*
X90103215Y-59372550D01*
X89469004Y-60006761D01*
X89414487Y-60034538D01*
X89354055Y-60024967D01*
X89310790Y-59981702D01*
X89300000Y-59936757D01*
X89300000Y-57131488D01*
X89299358Y-57111866D01*
X89298511Y-57098944D01*
X89296586Y-57079407D01*
X89282097Y-56969354D01*
X89274442Y-56930868D01*
X89267753Y-56905904D01*
X89255139Y-56868744D01*
X89217740Y-56778454D01*
X89215785Y-56773734D01*
X89215781Y-56773725D01*
X89215165Y-56772238D01*
X89197810Y-56737045D01*
X89184888Y-56714663D01*
X89163084Y-56682032D01*
X89099492Y-56599158D01*
X89073619Y-56569655D01*
X89055345Y-56551381D01*
X89025842Y-56525508D01*
X88942968Y-56461916D01*
X88910337Y-56440112D01*
X88887955Y-56427190D01*
X88886512Y-56426478D01*
X88886500Y-56426472D01*
X88874956Y-56420779D01*
X88831129Y-56378084D01*
X88820768Y-56317783D01*
X88847830Y-56262907D01*
X88901978Y-56234419D01*
X88918743Y-56232989D01*
X142216040Y-56232989D01*
X142238227Y-56235507D01*
G37*
%TD.AperFunction*%
%TD*%
%TA.AperFunction,Conductor*%
%TO.N,+3V3*%
G36*
X90559561Y-77601902D02*
G01*
X90626356Y-77615188D01*
X90662044Y-77629970D01*
X90710403Y-77662282D01*
X90737718Y-77689597D01*
X90770030Y-77737956D01*
X90784812Y-77773644D01*
X90798098Y-77840439D01*
X90800000Y-77859752D01*
X90800000Y-81240248D01*
X90798098Y-81259561D01*
X90784812Y-81326356D01*
X90770030Y-81362044D01*
X90737718Y-81410403D01*
X90710403Y-81437718D01*
X90662044Y-81470030D01*
X90626356Y-81484812D01*
X90559561Y-81498098D01*
X90540248Y-81500000D01*
X86359752Y-81500000D01*
X86340439Y-81498098D01*
X86273644Y-81484812D01*
X86237956Y-81470030D01*
X86189597Y-81437718D01*
X86162282Y-81410403D01*
X86129970Y-81362044D01*
X86115188Y-81326356D01*
X86101902Y-81259561D01*
X86100000Y-81240248D01*
X86100000Y-78659752D01*
X86101902Y-78640439D01*
X86115188Y-78573644D01*
X86129970Y-78537956D01*
X86162282Y-78489597D01*
X86189597Y-78462282D01*
X86237956Y-78429970D01*
X86273644Y-78415188D01*
X86340439Y-78401902D01*
X86359752Y-78400000D01*
X87900000Y-78400000D01*
X87900000Y-77859752D01*
X87901902Y-77840439D01*
X87915188Y-77773644D01*
X87929970Y-77737956D01*
X87962282Y-77689597D01*
X87989597Y-77662282D01*
X88037956Y-77629970D01*
X88073644Y-77615188D01*
X88140439Y-77601902D01*
X88159752Y-77600000D01*
X90540248Y-77600000D01*
X90559561Y-77601902D01*
G37*
%TD.AperFunction*%
%TD*%
%TA.AperFunction,Conductor*%
%TO.N,+3V3*%
G36*
X98959561Y-65001902D02*
G01*
X99026356Y-65015188D01*
X99062044Y-65029970D01*
X99110403Y-65062282D01*
X99137718Y-65089597D01*
X99170030Y-65137956D01*
X99184812Y-65173643D01*
X99197598Y-65237924D01*
X99199500Y-65257238D01*
X99199500Y-67071646D01*
X99192799Y-67105335D01*
X99189760Y-67109883D01*
X99174500Y-67186599D01*
X99174501Y-67537718D01*
X99174501Y-67825323D01*
X99157818Y-67880321D01*
X99137715Y-67910407D01*
X99110407Y-67937715D01*
X99062044Y-67970030D01*
X99026358Y-67984812D01*
X98962076Y-67997598D01*
X98942762Y-67999500D01*
X98430252Y-67999500D01*
X98428580Y-67999833D01*
X98425175Y-68000000D01*
X98200000Y-68000000D01*
X98200000Y-68200000D01*
X98188618Y-68257223D01*
X98173836Y-68292910D01*
X98155812Y-68319884D01*
X98152360Y-68325050D01*
X98125050Y-68352360D01*
X98092910Y-68373836D01*
X98057224Y-68388618D01*
X98031978Y-68393639D01*
X98009561Y-68398098D01*
X97990248Y-68400000D01*
X97413305Y-68400000D01*
X97393991Y-68398098D01*
X97327196Y-68384812D01*
X97291510Y-68370030D01*
X97234887Y-68332196D01*
X97219884Y-68319884D01*
X96500000Y-67600000D01*
X95259752Y-67600000D01*
X95240439Y-67598098D01*
X95173644Y-67584812D01*
X95137956Y-67570030D01*
X95089597Y-67537718D01*
X95062282Y-67510403D01*
X95029970Y-67462044D01*
X95015188Y-67426356D01*
X95001902Y-67359561D01*
X95000000Y-67340248D01*
X95000000Y-65259752D01*
X95001902Y-65240439D01*
X95015188Y-65173644D01*
X95029970Y-65137956D01*
X95062282Y-65089597D01*
X95089597Y-65062282D01*
X95137956Y-65029970D01*
X95173644Y-65015188D01*
X95240439Y-65001902D01*
X95259752Y-65000000D01*
X98940248Y-65000000D01*
X98959561Y-65001902D01*
G37*
%TD.AperFunction*%
%TD*%
%TA.AperFunction,Conductor*%
%TO.N,VBUS*%
G36*
X94159561Y-69501902D02*
G01*
X94226356Y-69515188D01*
X94262044Y-69529970D01*
X94310403Y-69562282D01*
X94337718Y-69589597D01*
X94370030Y-69637956D01*
X94384812Y-69673644D01*
X94398098Y-69740439D01*
X94400000Y-69759752D01*
X94400000Y-70240248D01*
X94398098Y-70259561D01*
X94384812Y-70326356D01*
X94370030Y-70362044D01*
X94337718Y-70410403D01*
X94310403Y-70437718D01*
X94262044Y-70470030D01*
X94226356Y-70484812D01*
X94159561Y-70498098D01*
X94140248Y-70500000D01*
X93300000Y-70500000D01*
X90800000Y-73000000D01*
X90800000Y-74640248D01*
X90798098Y-74659561D01*
X90784812Y-74726356D01*
X90770030Y-74762044D01*
X90737718Y-74810403D01*
X90710403Y-74837718D01*
X90662044Y-74870030D01*
X90626356Y-74884812D01*
X90559561Y-74898098D01*
X90540248Y-74900000D01*
X88259752Y-74900000D01*
X88240439Y-74898098D01*
X88173644Y-74884812D01*
X88137956Y-74870030D01*
X88089597Y-74837718D01*
X88062282Y-74810403D01*
X88029970Y-74762044D01*
X88015188Y-74726356D01*
X88001902Y-74659561D01*
X88000000Y-74640248D01*
X88000000Y-74100000D01*
X86259752Y-74100000D01*
X86240439Y-74098098D01*
X86173644Y-74084812D01*
X86137956Y-74070030D01*
X86089597Y-74037718D01*
X86062282Y-74010403D01*
X86029970Y-73962044D01*
X86015188Y-73926356D01*
X86001902Y-73859561D01*
X86000000Y-73840248D01*
X86000000Y-70659752D01*
X86001902Y-70640439D01*
X86015188Y-70573644D01*
X86029970Y-70537956D01*
X86062282Y-70489597D01*
X86089597Y-70462282D01*
X86137956Y-70429970D01*
X86173644Y-70415188D01*
X86240439Y-70401902D01*
X86259752Y-70400000D01*
X88640248Y-70400000D01*
X88659561Y-70401902D01*
X88726356Y-70415188D01*
X88762044Y-70429970D01*
X88810403Y-70462282D01*
X88837718Y-70489597D01*
X88870030Y-70537956D01*
X88884812Y-70573642D01*
X88900000Y-70650000D01*
X88900000Y-70900000D01*
X91700000Y-70900000D01*
X91700000Y-69759752D01*
X91701902Y-69740439D01*
X91715188Y-69673644D01*
X91729970Y-69637956D01*
X91762282Y-69589597D01*
X91789597Y-69562282D01*
X91837956Y-69529970D01*
X91873644Y-69515188D01*
X91940439Y-69501902D01*
X91959752Y-69500000D01*
X94140248Y-69500000D01*
X94159561Y-69501902D01*
G37*
%TD.AperFunction*%
%TD*%
%TA.AperFunction,Conductor*%
%TO.N,Earth*%
G36*
X88506434Y-56625847D02*
G01*
X88616487Y-56640336D01*
X88641451Y-56647025D01*
X88737957Y-56686999D01*
X88760339Y-56699921D01*
X88843213Y-56763513D01*
X88861487Y-56781787D01*
X88925079Y-56864661D01*
X88938001Y-56887043D01*
X88977975Y-56983549D01*
X88984664Y-57008513D01*
X88999153Y-57118566D01*
X89000000Y-57131488D01*
X89000000Y-60288806D01*
X88981093Y-60346997D01*
X88978209Y-60350559D01*
X88975604Y-60352831D01*
X88972169Y-60357719D01*
X88938903Y-60405052D01*
X88935818Y-60409205D01*
X88896416Y-60459457D01*
X88893958Y-60464900D01*
X88893958Y-60464901D01*
X88892633Y-60467835D01*
X88883398Y-60484028D01*
X88878113Y-60491547D01*
X88875946Y-60497106D01*
X88875944Y-60497109D01*
X88854922Y-60551027D01*
X88852914Y-60555803D01*
X88826645Y-60613984D01*
X88825558Y-60619851D01*
X88824969Y-60623026D01*
X88819867Y-60640938D01*
X88816524Y-60649513D01*
X88815745Y-60655432D01*
X88808192Y-60712808D01*
X88807384Y-60717914D01*
X88795748Y-60780692D01*
X88796092Y-60786654D01*
X88799336Y-60842924D01*
X88799500Y-60848622D01*
X88799500Y-66721208D01*
X88780593Y-66779399D01*
X88760746Y-66799766D01*
X88760317Y-66800095D01*
X88737957Y-66813001D01*
X88641451Y-66852975D01*
X88616487Y-66859664D01*
X88506434Y-66874153D01*
X88493512Y-66875000D01*
X85756488Y-66875000D01*
X85743566Y-66874153D01*
X85636078Y-66860002D01*
X85580853Y-66833661D01*
X85551658Y-66779890D01*
X85550000Y-66761849D01*
X85550000Y-58067897D01*
X85551504Y-58050706D01*
X85553124Y-58041519D01*
X85554628Y-58032989D01*
X85553124Y-58024461D01*
X85553124Y-58019843D01*
X85552208Y-58002110D01*
X85566798Y-57798118D01*
X85568809Y-57784137D01*
X85617359Y-57560959D01*
X85621338Y-57547406D01*
X85701151Y-57333417D01*
X85707019Y-57320568D01*
X85816476Y-57120114D01*
X85824112Y-57108232D01*
X85960979Y-56925397D01*
X85970229Y-56914721D01*
X86131732Y-56753218D01*
X86142408Y-56743968D01*
X86274954Y-56644746D01*
X86334282Y-56625000D01*
X88493512Y-56625000D01*
X88506434Y-56625847D01*
G37*
%TD.AperFunction*%
%TD*%
M02*
