M48
; DRILL file {KiCad 6.0.1-79c1e3a40b~116~ubuntu20.04.1} date Mo 14 Feb 2022 03:59:40 CET
; FORMAT={-:-/ absolute / inch / decimal}
; #@! TF.CreationDate,2022-02-14T03:59:40+01:00
; #@! TF.GenerationSoftware,Kicad,Pcbnew,6.0.1-79c1e3a40b~116~ubuntu20.04.1
; #@! TF.FileFunction,Plated,1,2,PTH
FMAT,2
INCH
; #@! TA.AperFunction,Plated,PTH,ViaDrill
T1C0.0118
; #@! TA.AperFunction,Plated,PTH,ViaDrill
T2C0.0157
; #@! TA.AperFunction,Plated,PTH,ComponentDrill
T3C0.0236
; #@! TA.AperFunction,Plated,PTH,ComponentDrill
T4C0.0374
; #@! TA.AperFunction,Plated,PTH,ComponentDrill
T5C0.0394
%
G90
G05
T1
X3.3976Y-3.0
X3.4331Y-3.0
X3.6673Y-2.4232
X3.6988Y-2.8484
X3.7008Y-2.2366
X3.7638Y-3.1772
X3.8228Y-3.122
X3.841Y-2.4232
X3.8484Y-2.6181
X3.8484Y-2.6476
X3.8583Y-3.0217
X3.878Y-2.6181
X3.8976Y-2.7067
X3.8976Y-2.7657
X3.9173Y-3.1398
X3.9272Y-2.7362
X3.9567Y-2.7067
X3.9567Y-2.7657
X3.9606Y-2.6269
X3.9764Y-3.1398
X4.0157Y-2.8543
X4.0157Y-2.8937
X4.0157Y-2.9331
X4.0157Y-2.9724
X4.0157Y-3.061
X4.0157Y-3.1004
T2
X3.4055Y-2.3376
X3.4055Y-2.436
X3.4055Y-2.5344
X3.4173Y-3.1772
X3.4744Y-2.3376
X3.4744Y-2.436
X3.4744Y-2.5344
X3.4744Y-3.1772
X3.5039Y-2.8346
X3.5315Y-3.1772
X3.5433Y-2.8346
X3.5827Y-2.8346
X3.6122Y-2.9528
X3.6122Y-3.002
X3.6122Y-3.0512
X3.6516Y-2.3179
X3.6516Y-2.5443
X3.6811Y-2.9528
X3.6811Y-3.002
X3.6811Y-3.0512
X3.7303Y-2.8937
X3.7303Y-3.1102
X3.7795Y-2.8937
X3.7795Y-3.1102
X3.8189Y-2.2343
X3.9764Y-2.4213
X4.0157Y-2.2343
X4.2126Y-2.2343
X4.4094Y-2.2343
X4.6063Y-2.2343
X4.7244Y-2.5
X4.7244Y-2.6083
X4.8031Y-2.2343
X4.8031Y-3.189
X4.9213Y-3.189
X5.0Y-2.2343
X5.1969Y-2.2343
X5.3937Y-2.2343
X5.5906Y-2.2343
X5.5906Y-2.4213
X5.5906Y-3.061
X5.5906Y-3.189
T4
X5.0689Y-2.5
X5.0689Y-2.5984
X5.0689Y-2.6969
X5.0689Y-2.7953
X5.0689Y-2.8937
X5.0689Y-2.9921
X5.3543Y-2.5
X5.3543Y-2.5984
X5.3543Y-2.6969
X5.3543Y-2.7953
X5.3543Y-2.8937
X5.3543Y-2.9921
T5
X4.3054Y-2.3077
X4.3054Y-2.4077
X4.3054Y-2.5077
X4.3054Y-2.6077
X4.3054Y-2.7077
X4.3054Y-2.8077
X4.3054Y-2.9077
X4.3054Y-3.0077
X4.3054Y-3.1077
X4.3054Y-3.2077
X4.4054Y-2.3077
X4.4054Y-2.4077
X4.4054Y-2.5077
X4.4054Y-2.6077
X4.4054Y-2.7077
X4.4054Y-2.8077
X4.4054Y-2.9077
X4.4054Y-3.0077
X4.4054Y-3.1077
X4.4054Y-3.2077
T3
G00X3.4665Y-2.2637
M15
G01X3.4154Y-2.2637
M16
G05
G00X3.4154Y-2.6038
M15
G01X3.4665Y-2.6038
M16
G05
G00X3.5719Y-2.2637
M15
G01X3.6112Y-2.2637
M16
G05
G00X3.5719Y-2.6038
M15
G01X3.6112Y-2.6038
M16
G05
T0
M30
