%TF.GenerationSoftware,KiCad,Pcbnew,6.0.1-79c1e3a40b~116~ubuntu20.04.1*%
%TF.CreationDate,2022-02-14T03:59:37+01:00*%
%TF.ProjectId,USB-to-UART-Bridge,5553422d-746f-42d5-9541-52542d427269,rev?*%
%TF.SameCoordinates,Original*%
%TF.FileFunction,Copper,L2,Bot*%
%TF.FilePolarity,Positive*%
%FSLAX46Y46*%
G04 Gerber Fmt 4.6, Leading zero omitted, Abs format (unit mm)*
G04 Created by KiCad (PCBNEW 6.0.1-79c1e3a40b~116~ubuntu20.04.1) date 2022-02-14 03:59:37*
%MOMM*%
%LPD*%
G01*
G04 APERTURE LIST*
G04 Aperture macros list*
%AMRoundRect*
0 Rectangle with rounded corners*
0 $1 Rounding radius*
0 $2 $3 $4 $5 $6 $7 $8 $9 X,Y pos of 4 corners*
0 Add a 4 corners polygon primitive as box body*
4,1,4,$2,$3,$4,$5,$6,$7,$8,$9,$2,$3,0*
0 Add four circle primitives for the rounded corners*
1,1,$1+$1,$2,$3*
1,1,$1+$1,$4,$5*
1,1,$1+$1,$6,$7*
1,1,$1+$1,$8,$9*
0 Add four rect primitives between the rounded corners*
20,1,$1+$1,$2,$3,$4,$5,0*
20,1,$1+$1,$4,$5,$6,$7,0*
20,1,$1+$1,$6,$7,$8,$9,0*
20,1,$1+$1,$8,$9,$2,$3,0*%
G04 Aperture macros list end*
%TA.AperFunction,ComponentPad*%
%ADD10R,1.700000X1.700000*%
%TD*%
%TA.AperFunction,ComponentPad*%
%ADD11O,1.700000X1.700000*%
%TD*%
%TA.AperFunction,ComponentPad*%
%ADD12RoundRect,0.250000X0.725000X-0.600000X0.725000X0.600000X-0.725000X0.600000X-0.725000X-0.600000X0*%
%TD*%
%TA.AperFunction,ComponentPad*%
%ADD13O,1.950000X1.700000*%
%TD*%
%TA.AperFunction,ComponentPad*%
%ADD14O,2.500000X1.200000*%
%TD*%
%TA.AperFunction,ComponentPad*%
%ADD15O,2.200000X1.200000*%
%TD*%
%TA.AperFunction,ViaPad*%
%ADD16C,0.600000*%
%TD*%
%TA.AperFunction,ViaPad*%
%ADD17C,0.800000*%
%TD*%
%TA.AperFunction,Conductor*%
%ADD18C,1.500000*%
%TD*%
%TA.AperFunction,Conductor*%
%ADD19C,0.300000*%
%TD*%
%TA.AperFunction,Conductor*%
%ADD20C,1.000000*%
%TD*%
%TA.AperFunction,Conductor*%
%ADD21C,0.800000*%
%TD*%
%TA.AperFunction,Conductor*%
%ADD22C,0.200000*%
%TD*%
G04 APERTURE END LIST*
D10*
%TO.P,J2,1,Pin_1*%
%TO.N,VBUS*%
X109356000Y-58616000D03*
D11*
%TO.P,J2,2,Pin_2*%
X111896000Y-58616000D03*
%TO.P,J2,3,Pin_3*%
%TO.N,+3V3*%
X109356000Y-61156000D03*
%TO.P,J2,4,Pin_4*%
X111896000Y-61156000D03*
%TO.P,J2,5,Pin_5*%
%TO.N,GND*%
X109356000Y-63696000D03*
%TO.P,J2,6,Pin_6*%
X111896000Y-63696000D03*
%TO.P,J2,7,Pin_7*%
%TO.N,/~{DCD}*%
X109356000Y-66236000D03*
%TO.P,J2,8,Pin_8*%
%TO.N,/~{RI}{slash}CLK*%
X111896000Y-66236000D03*
%TO.P,J2,9,Pin_9*%
%TO.N,/~{DTR}*%
X109356000Y-68776000D03*
%TO.P,J2,10,Pin_10*%
%TO.N,/SUSPEND*%
X111896000Y-68776000D03*
%TO.P,J2,11,Pin_11*%
%TO.N,/~{DSR}*%
X109356000Y-71316000D03*
%TO.P,J2,12,Pin_12*%
%TO.N,/~{SUSPEND}*%
X111896000Y-71316000D03*
%TO.P,J2,13,Pin_13*%
%TO.N,/TXD*%
X109356000Y-73856000D03*
%TO.P,J2,14,Pin_14*%
%TO.N,/~{TXT}{slash}GPIO0*%
X111896000Y-73856000D03*
%TO.P,J2,15,Pin_15*%
%TO.N,/RXD*%
X109356000Y-76396000D03*
%TO.P,J2,16,Pin_16*%
%TO.N,/~{RXT}{slash}GPIO1*%
X111896000Y-76396000D03*
%TO.P,J2,17,Pin_17*%
%TO.N,/~{RTS}*%
X109356000Y-78936000D03*
%TO.P,J2,18,Pin_18*%
%TO.N,/GPIO2*%
X111896000Y-78936000D03*
%TO.P,J2,19,Pin_19*%
%TO.N,/~{CTS}*%
X109356000Y-81476000D03*
%TO.P,J2,20,Pin_20*%
%TO.N,/GPIO3*%
X111896000Y-81476000D03*
%TD*%
D12*
%TO.P,J4,1,Pin_1*%
%TO.N,/~{DTR}*%
X128750000Y-76000000D03*
D13*
%TO.P,J4,2,Pin_2*%
%TO.N,/~{RTS}*%
X128750000Y-73500000D03*
%TO.P,J4,3,Pin_3*%
%TO.N,/RXD*%
X128750000Y-71000000D03*
%TO.P,J4,4,Pin_4*%
%TO.N,/TXD*%
X128750000Y-68500000D03*
%TO.P,J4,5,Pin_5*%
%TO.N,GND*%
X128750000Y-66000000D03*
%TO.P,J4,6,Pin_6*%
%TO.N,+3V3*%
X128750000Y-63500000D03*
%TD*%
D14*
%TO.P,J1,S1,SHIELD*%
%TO.N,Earth*%
X87400000Y-57497011D03*
X87400000Y-66137011D03*
D15*
X91225000Y-66137011D03*
X91225000Y-57497011D03*
%TD*%
D12*
%TO.P,J3,1,Pin_1*%
%TO.N,/EN*%
X136000000Y-76000000D03*
D13*
%TO.P,J3,2,Pin_2*%
%TO.N,/IO0*%
X136000000Y-73500000D03*
%TO.P,J3,3,Pin_3*%
%TO.N,/RXD*%
X136000000Y-71000000D03*
%TO.P,J3,4,Pin_4*%
%TO.N,/TXD*%
X136000000Y-68500000D03*
%TO.P,J3,5,Pin_5*%
%TO.N,GND*%
X136000000Y-66000000D03*
%TO.P,J3,6,Pin_6*%
%TO.N,+3V3*%
X136000000Y-63500000D03*
%TD*%
D16*
%TO.N,VBUS*%
X97562500Y-61550000D03*
D17*
X89000000Y-72000000D03*
X91000000Y-72000000D03*
X90000000Y-72000000D03*
%TO.N,GND*%
X91750000Y-75000000D03*
X91750000Y-77500000D03*
D16*
X99000000Y-70250000D03*
X97100000Y-79300000D03*
D17*
X120000000Y-66250000D03*
X97000000Y-56750000D03*
X120000000Y-63500000D03*
X107000000Y-56750000D03*
X112000000Y-56750000D03*
D16*
X100599500Y-66721993D03*
X93150000Y-61550000D03*
D17*
X101000000Y-61500000D03*
X142000000Y-56750000D03*
D16*
X100500000Y-68750000D03*
X86300000Y-76200000D03*
X100500000Y-70250000D03*
D17*
X137000000Y-56750000D03*
X117000000Y-56750000D03*
D16*
X87200000Y-76200000D03*
D17*
X93500000Y-76250000D03*
X93500000Y-75000000D03*
X132000000Y-56750000D03*
X142000000Y-81000000D03*
D16*
X99750000Y-69500000D03*
D17*
X94750000Y-79000000D03*
X94750000Y-73500000D03*
X92750000Y-64625000D03*
D16*
X94000000Y-56809022D03*
D17*
X96000000Y-79000000D03*
X96000000Y-73500000D03*
X91750000Y-76250000D03*
X142000000Y-61500000D03*
X122000000Y-56750000D03*
X127000000Y-56750000D03*
X102000000Y-56750000D03*
X122000000Y-81000000D03*
X125000000Y-81000000D03*
D16*
X99000000Y-68750000D03*
D17*
X92750000Y-58875000D03*
X142000000Y-77750000D03*
X93500000Y-77500000D03*
D16*
%TO.N,+3V3*%
X97750000Y-67250000D03*
X95600000Y-80700000D03*
X98500000Y-66500000D03*
X97750000Y-66500000D03*
D17*
X86800000Y-80700000D03*
X88250000Y-80700000D03*
X89700000Y-80700000D03*
D16*
X93950000Y-72350000D03*
D17*
%TO.N,Earth*%
X88250000Y-59375000D03*
X88250000Y-61875000D03*
X88250000Y-64375000D03*
X86500000Y-64375000D03*
X86500000Y-59375000D03*
X86500000Y-61875000D03*
D16*
%TO.N,/~{RXT}{slash}GPIO1*%
X101000000Y-79750000D03*
X102000000Y-75500000D03*
%TO.N,/~{TXT}{slash}GPIO0*%
X102000000Y-74500000D03*
X99500000Y-79750000D03*
%TO.N,/SUSPEND*%
X102000000Y-72500000D03*
%TO.N,/~{SUSPEND}*%
X102000000Y-73500000D03*
X98000000Y-76750000D03*
%TO.N,/GPIO2*%
X102000000Y-77750000D03*
%TO.N,/GPIO3*%
X102000000Y-78750000D03*
%TD*%
D18*
%TO.N,VBUS*%
X95000000Y-68000000D02*
X91000000Y-72000000D01*
X111896000Y-58616000D02*
X109356000Y-58616000D01*
X109356000Y-58616000D02*
X100634000Y-58616000D01*
X90000000Y-72000000D02*
X89000000Y-72000000D01*
X95000000Y-64250000D02*
X95000000Y-68000000D01*
X100634000Y-58616000D02*
X95000000Y-64250000D01*
X91000000Y-72000000D02*
X90000000Y-72000000D01*
D19*
%TO.N,+3V3*%
X97750000Y-67250000D02*
X97750000Y-68500000D01*
D18*
X139000000Y-65000000D02*
X137500000Y-63500000D01*
X128750000Y-63500000D02*
X136000000Y-63500000D01*
D20*
X114416938Y-83250000D02*
X107250000Y-83250000D01*
D21*
X98500000Y-66500000D02*
X97750000Y-66500000D01*
D19*
X93950000Y-72300000D02*
X93950000Y-72350000D01*
D18*
X111896000Y-61156000D02*
X126406000Y-61156000D01*
D21*
X97750000Y-66500000D02*
X97750000Y-67250000D01*
X109356000Y-61156000D02*
X103844000Y-61156000D01*
D18*
X89700000Y-80700000D02*
X88450000Y-80700000D01*
X126406000Y-61156000D02*
X128750000Y-63500000D01*
X88450000Y-80700000D02*
X86800000Y-80700000D01*
D19*
X97750000Y-68500000D02*
X93950000Y-72300000D01*
D18*
X109356000Y-61156000D02*
X111896000Y-61156000D01*
X137250000Y-83000000D02*
X139000000Y-81250000D01*
X137500000Y-63500000D02*
X136000000Y-63500000D01*
D21*
X103844000Y-61156000D02*
X98500000Y-66500000D01*
D18*
X95600000Y-80700000D02*
X89700000Y-80700000D01*
X99000000Y-83000000D02*
X96700000Y-80700000D01*
X96700000Y-80700000D02*
X95600000Y-80700000D01*
X113583469Y-83000000D02*
X137250000Y-83000000D01*
D21*
X97750000Y-67250000D02*
X98500000Y-66500000D01*
D18*
X139000000Y-81250000D02*
X139000000Y-65000000D01*
X107750000Y-83000000D02*
X99000000Y-83000000D01*
D21*
%TO.N,Earth*%
X91225000Y-66137011D02*
X87400000Y-66137011D01*
X91225000Y-57497011D02*
X87400000Y-57497011D01*
X87400000Y-57497011D02*
X87400000Y-66137011D01*
D19*
%TO.N,/TXD*%
X128750000Y-68500000D02*
X136000000Y-68500000D01*
%TO.N,/RXD*%
X128750000Y-71000000D02*
X136000000Y-71000000D01*
D22*
%TO.N,/~{RXT}{slash}GPIO1*%
X101000000Y-76500000D02*
X102000000Y-75500000D01*
X102400000Y-75100000D02*
X102000000Y-75500000D01*
X111896000Y-76396000D02*
X110600000Y-75100000D01*
X110600000Y-75100000D02*
X102400000Y-75100000D01*
X101000000Y-79750000D02*
X101000000Y-76500000D01*
%TO.N,/~{TXT}{slash}GPIO0*%
X99500000Y-77000000D02*
X102000000Y-74500000D01*
X111896000Y-73856000D02*
X110640000Y-72600000D01*
X110640000Y-72600000D02*
X103900000Y-72600000D01*
X103900000Y-72600000D02*
X102000000Y-74500000D01*
X99500000Y-79750000D02*
X99500000Y-77000000D01*
%TO.N,/SUSPEND*%
X107000000Y-67500000D02*
X102000000Y-72500000D01*
X110620000Y-67500000D02*
X107000000Y-67500000D01*
X111896000Y-68776000D02*
X110620000Y-67500000D01*
%TO.N,/~{SUSPEND}*%
X110580000Y-70000000D02*
X105500000Y-70000000D01*
X105500000Y-70000000D02*
X102000000Y-73500000D01*
X111896000Y-71316000D02*
X110580000Y-70000000D01*
X102000000Y-73500000D02*
X98750000Y-76750000D01*
X98750000Y-76750000D02*
X98000000Y-76750000D01*
%TO.N,/GPIO2*%
X102050000Y-77700000D02*
X102000000Y-77750000D01*
X111896000Y-78936000D02*
X110660000Y-77700000D01*
X110660000Y-77700000D02*
X102050000Y-77700000D01*
%TO.N,/GPIO3*%
X111896000Y-81476000D02*
X110620000Y-80200000D01*
X110620000Y-80200000D02*
X105450000Y-80200000D01*
X104000000Y-78750000D02*
X102000000Y-78750000D01*
X105450000Y-80200000D02*
X104000000Y-78750000D01*
%TD*%
%TA.AperFunction,Conductor*%
%TO.N,GND*%
G36*
X142238227Y-56235507D02*
G01*
X142249642Y-56238132D01*
X142260517Y-56235671D01*
X142271664Y-56235691D01*
X142271664Y-56235852D01*
X142281669Y-56235065D01*
X142353759Y-56239790D01*
X142478475Y-56247964D01*
X142491302Y-56249652D01*
X142709516Y-56293057D01*
X142722016Y-56296407D01*
X142913316Y-56361345D01*
X142932691Y-56367922D01*
X142944653Y-56372878D01*
X142999707Y-56400027D01*
X143144180Y-56471273D01*
X143155386Y-56477742D01*
X143340385Y-56601354D01*
X143350639Y-56609222D01*
X143517914Y-56755919D01*
X143527069Y-56765074D01*
X143673767Y-56932350D01*
X143681635Y-56942604D01*
X143805247Y-57127603D01*
X143811716Y-57138809D01*
X143910111Y-57338335D01*
X143915067Y-57350298D01*
X143986581Y-57560969D01*
X143989932Y-57573473D01*
X144029129Y-57770528D01*
X144033336Y-57791680D01*
X144035025Y-57804512D01*
X144047891Y-58000805D01*
X144047101Y-58010617D01*
X144047375Y-58010617D01*
X144047355Y-58021767D01*
X144044857Y-58032631D01*
X144047317Y-58043503D01*
X144047317Y-58043505D01*
X144047559Y-58044572D01*
X144050000Y-58066421D01*
X144050000Y-81999029D01*
X144047482Y-82021216D01*
X144044857Y-82032631D01*
X144047318Y-82043506D01*
X144047298Y-82054653D01*
X144047137Y-82054653D01*
X144047924Y-82064658D01*
X144046385Y-82088138D01*
X144036405Y-82240424D01*
X144035026Y-82261458D01*
X144033337Y-82274291D01*
X143994462Y-82469729D01*
X143989933Y-82492500D01*
X143986582Y-82505005D01*
X143977896Y-82530593D01*
X143915067Y-82715680D01*
X143910111Y-82727643D01*
X143811716Y-82927169D01*
X143805247Y-82938375D01*
X143681635Y-83123374D01*
X143673767Y-83133628D01*
X143541003Y-83285016D01*
X143527070Y-83300903D01*
X143517915Y-83310058D01*
X143350639Y-83456756D01*
X143340385Y-83464624D01*
X143155386Y-83588236D01*
X143144180Y-83594705D01*
X142965697Y-83682723D01*
X142944654Y-83693100D01*
X142932692Y-83698056D01*
X142722016Y-83769571D01*
X142709516Y-83772921D01*
X142491302Y-83816326D01*
X142478477Y-83818014D01*
X142282181Y-83830880D01*
X142272372Y-83830090D01*
X142272372Y-83830364D01*
X142261222Y-83830344D01*
X142250358Y-83827846D01*
X142239486Y-83830306D01*
X142239484Y-83830306D01*
X142238417Y-83830548D01*
X142216568Y-83832989D01*
X138006343Y-83832989D01*
X137948152Y-83814082D01*
X137912188Y-83764582D01*
X137912188Y-83703396D01*
X137934648Y-83665718D01*
X137938065Y-83662130D01*
X137941875Y-83658864D01*
X137960631Y-83634684D01*
X137968852Y-83625358D01*
X139661471Y-81932739D01*
X139663453Y-81930812D01*
X139719592Y-81877724D01*
X139723235Y-81874279D01*
X139726109Y-81870174D01*
X139726112Y-81870171D01*
X139756538Y-81826717D01*
X139760914Y-81820930D01*
X139794449Y-81779812D01*
X139797615Y-81775930D01*
X139799935Y-81771493D01*
X139799938Y-81771488D01*
X139810905Y-81750510D01*
X139817543Y-81739594D01*
X139831111Y-81720216D01*
X139831113Y-81720212D01*
X139833991Y-81716102D01*
X139857060Y-81662793D01*
X139860163Y-81656289D01*
X139887078Y-81604805D01*
X139894987Y-81577225D01*
X139899293Y-81565199D01*
X139908690Y-81543483D01*
X139910680Y-81538885D01*
X139912304Y-81531116D01*
X139922553Y-81482052D01*
X139924291Y-81475030D01*
X139940303Y-81419187D01*
X139942504Y-81390587D01*
X139944304Y-81377939D01*
X139949389Y-81353596D01*
X139950168Y-81349867D01*
X139950500Y-81343532D01*
X139950500Y-81290462D01*
X139950792Y-81282867D01*
X139951707Y-81270970D01*
X139955117Y-81226658D01*
X139951281Y-81196293D01*
X139950500Y-81183885D01*
X139950500Y-65015020D01*
X139950539Y-65012256D01*
X139952696Y-64935040D01*
X139952836Y-64930027D01*
X139942749Y-64872826D01*
X139941757Y-64865668D01*
X139935888Y-64807890D01*
X139927307Y-64780509D01*
X139924283Y-64768101D01*
X139920175Y-64744800D01*
X139920174Y-64744796D01*
X139919304Y-64739863D01*
X139897929Y-64685875D01*
X139895509Y-64679041D01*
X139888791Y-64657601D01*
X139878144Y-64623627D01*
X139875715Y-64619245D01*
X139875712Y-64619238D01*
X139864234Y-64598532D01*
X139858774Y-64586982D01*
X139848220Y-64560324D01*
X139816427Y-64511740D01*
X139812682Y-64505531D01*
X139786960Y-64459125D01*
X139786956Y-64459119D01*
X139784528Y-64454739D01*
X139765852Y-64432949D01*
X139758195Y-64422750D01*
X139742487Y-64398746D01*
X139738242Y-64394032D01*
X139700714Y-64356504D01*
X139695550Y-64350927D01*
X139662130Y-64311935D01*
X139662128Y-64311933D01*
X139658864Y-64308125D01*
X139634684Y-64289369D01*
X139625358Y-64281148D01*
X138182739Y-62838529D01*
X138180812Y-62836547D01*
X138127724Y-62780408D01*
X138124279Y-62776765D01*
X138120174Y-62773891D01*
X138120171Y-62773888D01*
X138076717Y-62743462D01*
X138070930Y-62739086D01*
X138029812Y-62705551D01*
X138025930Y-62702385D01*
X138021493Y-62700065D01*
X138021488Y-62700062D01*
X138000510Y-62689095D01*
X137989594Y-62682457D01*
X137970217Y-62668889D01*
X137970208Y-62668884D01*
X137966102Y-62666009D01*
X137912811Y-62642948D01*
X137906268Y-62639827D01*
X137859253Y-62615248D01*
X137859254Y-62615248D01*
X137854806Y-62612923D01*
X137849985Y-62611540D01*
X137849981Y-62611539D01*
X137827235Y-62605017D01*
X137815204Y-62600709D01*
X137793486Y-62591310D01*
X137793477Y-62591307D01*
X137788885Y-62589320D01*
X137783986Y-62588296D01*
X137783981Y-62588295D01*
X137732053Y-62577447D01*
X137725010Y-62575704D01*
X137674003Y-62561078D01*
X137669187Y-62559697D01*
X137664195Y-62559313D01*
X137664190Y-62559312D01*
X137640587Y-62557496D01*
X137627939Y-62555696D01*
X137603596Y-62550611D01*
X137599867Y-62549832D01*
X137593532Y-62549500D01*
X137540462Y-62549500D01*
X137532867Y-62549208D01*
X137476658Y-62544883D01*
X137471688Y-62545511D01*
X137471684Y-62545511D01*
X137446293Y-62548719D01*
X137433885Y-62549500D01*
X136602133Y-62549500D01*
X136554443Y-62537255D01*
X136540838Y-62529776D01*
X136344468Y-62467484D01*
X136339656Y-62466944D01*
X136339655Y-62466944D01*
X136186892Y-62449809D01*
X136186890Y-62449809D01*
X136184136Y-62449500D01*
X135823159Y-62449500D01*
X135820764Y-62449735D01*
X135820760Y-62449735D01*
X135674780Y-62464048D01*
X135674776Y-62464049D01*
X135669970Y-62464520D01*
X135665345Y-62465916D01*
X135665342Y-62465917D01*
X135552869Y-62499875D01*
X135472749Y-62524065D01*
X135468479Y-62526335D01*
X135468475Y-62526337D01*
X135446706Y-62537912D01*
X135400229Y-62549500D01*
X129352133Y-62549500D01*
X129304443Y-62537255D01*
X129290838Y-62529776D01*
X129094468Y-62467484D01*
X129089652Y-62466944D01*
X129084921Y-62465938D01*
X129085334Y-62463996D01*
X129033039Y-62438829D01*
X127088739Y-60494529D01*
X127086812Y-60492547D01*
X127033724Y-60436408D01*
X127030279Y-60432765D01*
X127026174Y-60429891D01*
X127026171Y-60429888D01*
X126982717Y-60399462D01*
X126976930Y-60395086D01*
X126935812Y-60361551D01*
X126931930Y-60358385D01*
X126927493Y-60356065D01*
X126927488Y-60356062D01*
X126906510Y-60345095D01*
X126895594Y-60338457D01*
X126876217Y-60324889D01*
X126876208Y-60324884D01*
X126872102Y-60322009D01*
X126818811Y-60298948D01*
X126812268Y-60295827D01*
X126765253Y-60271248D01*
X126765254Y-60271248D01*
X126760806Y-60268923D01*
X126755985Y-60267540D01*
X126755981Y-60267539D01*
X126733235Y-60261017D01*
X126721204Y-60256709D01*
X126699486Y-60247310D01*
X126699477Y-60247307D01*
X126694885Y-60245320D01*
X126689986Y-60244296D01*
X126689981Y-60244295D01*
X126638053Y-60233447D01*
X126631010Y-60231704D01*
X126580003Y-60217078D01*
X126575187Y-60215697D01*
X126570195Y-60215313D01*
X126570190Y-60215312D01*
X126546587Y-60213496D01*
X126533939Y-60211696D01*
X126509596Y-60206611D01*
X126505867Y-60205832D01*
X126499532Y-60205500D01*
X126446462Y-60205500D01*
X126438867Y-60205208D01*
X126382658Y-60200883D01*
X126377688Y-60201511D01*
X126377684Y-60201511D01*
X126352293Y-60204719D01*
X126339885Y-60205500D01*
X112371909Y-60205500D01*
X112324822Y-60193585D01*
X112309309Y-60185197D01*
X112309308Y-60185196D01*
X112305055Y-60182897D01*
X112241855Y-60163333D01*
X112112875Y-60123407D01*
X112112871Y-60123406D01*
X112108254Y-60121977D01*
X112103446Y-60121472D01*
X112103443Y-60121471D01*
X111908185Y-60100949D01*
X111908183Y-60100949D01*
X111903369Y-60100443D01*
X111843354Y-60105905D01*
X111703022Y-60118675D01*
X111703017Y-60118676D01*
X111698203Y-60119114D01*
X111500572Y-60177280D01*
X111469384Y-60193585D01*
X111468143Y-60194234D01*
X111422276Y-60205500D01*
X109831909Y-60205500D01*
X109784822Y-60193585D01*
X109769309Y-60185197D01*
X109769308Y-60185196D01*
X109765055Y-60182897D01*
X109701855Y-60163333D01*
X109572875Y-60123407D01*
X109572871Y-60123406D01*
X109568254Y-60121977D01*
X109563446Y-60121472D01*
X109563443Y-60121471D01*
X109368185Y-60100949D01*
X109368183Y-60100949D01*
X109363369Y-60100443D01*
X109303354Y-60105905D01*
X109163022Y-60118675D01*
X109163017Y-60118676D01*
X109158203Y-60119114D01*
X108960572Y-60177280D01*
X108956288Y-60179519D01*
X108956287Y-60179520D01*
X108906338Y-60205633D01*
X108778002Y-60272726D01*
X108774231Y-60275758D01*
X108621220Y-60398781D01*
X108621217Y-60398783D01*
X108617447Y-60401815D01*
X108614333Y-60405526D01*
X108614332Y-60405527D01*
X108518163Y-60520136D01*
X108466275Y-60552559D01*
X108442325Y-60555500D01*
X103889849Y-60555500D01*
X103876927Y-60554653D01*
X103844000Y-60550318D01*
X103837566Y-60551165D01*
X103804639Y-60555500D01*
X103687238Y-60570956D01*
X103541159Y-60631464D01*
X103415718Y-60727718D01*
X103411764Y-60732871D01*
X103395502Y-60754064D01*
X103386964Y-60763801D01*
X98280261Y-65870504D01*
X98225744Y-65898281D01*
X98210257Y-65899500D01*
X97795849Y-65899500D01*
X97782927Y-65898653D01*
X97750000Y-65894318D01*
X97743566Y-65895165D01*
X97710639Y-65899500D01*
X97593238Y-65914956D01*
X97447159Y-65975464D01*
X97321718Y-66071718D01*
X97225464Y-66197159D01*
X97164956Y-66343238D01*
X97144318Y-66500000D01*
X97145165Y-66506433D01*
X97148653Y-66532927D01*
X97149500Y-66545849D01*
X97149500Y-67204151D01*
X97148653Y-67217072D01*
X97144318Y-67250000D01*
X97164956Y-67406762D01*
X97225464Y-67552841D01*
X97321718Y-67678282D01*
X97326871Y-67682236D01*
X97360767Y-67708245D01*
X97395423Y-67758669D01*
X97399500Y-67786787D01*
X97399500Y-68313810D01*
X97380593Y-68372001D01*
X97370504Y-68383814D01*
X93931471Y-71822847D01*
X93881046Y-71847876D01*
X93881376Y-71849031D01*
X93875112Y-71850821D01*
X93875111Y-71850822D01*
X93804592Y-71870976D01*
X93750309Y-71886490D01*
X93750307Y-71886491D01*
X93743529Y-71888428D01*
X93622280Y-71964930D01*
X93617613Y-71970214D01*
X93617611Y-71970216D01*
X93532044Y-72067103D01*
X93532042Y-72067105D01*
X93527377Y-72072388D01*
X93466447Y-72202163D01*
X93465362Y-72209132D01*
X93465361Y-72209135D01*
X93451854Y-72295893D01*
X93444391Y-72343823D01*
X93445306Y-72350820D01*
X93445306Y-72350821D01*
X93460753Y-72468948D01*
X93462980Y-72485979D01*
X93465821Y-72492435D01*
X93465821Y-72492436D01*
X93507245Y-72586578D01*
X93520720Y-72617203D01*
X93552405Y-72654897D01*
X93608431Y-72721549D01*
X93608434Y-72721551D01*
X93612970Y-72726948D01*
X93618841Y-72730856D01*
X93618842Y-72730857D01*
X93631143Y-72739045D01*
X93732313Y-72806390D01*
X93827030Y-72835981D01*
X93862425Y-72847039D01*
X93862426Y-72847039D01*
X93869157Y-72849142D01*
X93940828Y-72850456D01*
X94005445Y-72851641D01*
X94005447Y-72851641D01*
X94012499Y-72851770D01*
X94019302Y-72849915D01*
X94019304Y-72849915D01*
X94094503Y-72829413D01*
X94150817Y-72814060D01*
X94272991Y-72739045D01*
X94280403Y-72730857D01*
X94364468Y-72637982D01*
X94369200Y-72632754D01*
X94419802Y-72528311D01*
X94428634Y-72510082D01*
X94431710Y-72503733D01*
X94433378Y-72493823D01*
X94454862Y-72366124D01*
X94454862Y-72366120D01*
X94455496Y-72362354D01*
X94455647Y-72350000D01*
X94455104Y-72346208D01*
X94454856Y-72342400D01*
X94455888Y-72342333D01*
X94465628Y-72286276D01*
X94483152Y-72262530D01*
X97963937Y-68781745D01*
X97980240Y-68768580D01*
X97982274Y-68767267D01*
X97982278Y-68767264D01*
X97989152Y-68762825D01*
X98008984Y-68737668D01*
X98012900Y-68733262D01*
X98012899Y-68733261D01*
X98015550Y-68730132D01*
X98018429Y-68727253D01*
X98025845Y-68716875D01*
X98029037Y-68712409D01*
X98031836Y-68708681D01*
X98044215Y-68692978D01*
X98061392Y-68671189D01*
X98063957Y-68663886D01*
X98064609Y-68662631D01*
X98069111Y-68656330D01*
X98082791Y-68610588D01*
X98084232Y-68606154D01*
X98097992Y-68566970D01*
X98097993Y-68566966D01*
X98100055Y-68561094D01*
X98100500Y-68555956D01*
X98100500Y-68553818D01*
X98100574Y-68552099D01*
X98100689Y-68550738D01*
X98102544Y-68544536D01*
X98100576Y-68494446D01*
X98100500Y-68490559D01*
X98100500Y-67786787D01*
X98119407Y-67728596D01*
X98139233Y-67708245D01*
X98173129Y-67682236D01*
X98178282Y-67678282D01*
X98198498Y-67651936D01*
X98207036Y-67642199D01*
X98892199Y-66957036D01*
X98901936Y-66948498D01*
X98923129Y-66932236D01*
X98928282Y-66928282D01*
X98948498Y-66901936D01*
X98957036Y-66892199D01*
X104063739Y-61785496D01*
X104118256Y-61757719D01*
X104133743Y-61756500D01*
X108443586Y-61756500D01*
X108501777Y-61775407D01*
X108521172Y-61794007D01*
X108593671Y-61885479D01*
X108593678Y-61885486D01*
X108596677Y-61889270D01*
X108753564Y-62022791D01*
X108757787Y-62025151D01*
X108757791Y-62025154D01*
X108874702Y-62090493D01*
X108933398Y-62123297D01*
X108937996Y-62124791D01*
X109124724Y-62185463D01*
X109124726Y-62185464D01*
X109129329Y-62186959D01*
X109333894Y-62211351D01*
X109338716Y-62210980D01*
X109338719Y-62210980D01*
X109406541Y-62205761D01*
X109539300Y-62195546D01*
X109737725Y-62140145D01*
X109746929Y-62135496D01*
X109783279Y-62117134D01*
X109827916Y-62106500D01*
X111417556Y-62106500D01*
X111465853Y-62119080D01*
X111473398Y-62123297D01*
X111477996Y-62124791D01*
X111664724Y-62185463D01*
X111664726Y-62185464D01*
X111669329Y-62186959D01*
X111873894Y-62211351D01*
X111878716Y-62210980D01*
X111878719Y-62210980D01*
X111946541Y-62205761D01*
X112079300Y-62195546D01*
X112277725Y-62140145D01*
X112286929Y-62135496D01*
X112323279Y-62117134D01*
X112367916Y-62106500D01*
X125971282Y-62106500D01*
X126029473Y-62125407D01*
X126041286Y-62135496D01*
X127563818Y-63658028D01*
X127588786Y-63700080D01*
X127646280Y-63895428D01*
X127648519Y-63899712D01*
X127648520Y-63899713D01*
X127663789Y-63928920D01*
X127741726Y-64077998D01*
X127744758Y-64081769D01*
X127866074Y-64232656D01*
X127870815Y-64238553D01*
X127874526Y-64241667D01*
X127874527Y-64241668D01*
X128008181Y-64353817D01*
X128028630Y-64370976D01*
X128209162Y-64470224D01*
X128213775Y-64471687D01*
X128213779Y-64471689D01*
X128320464Y-64505531D01*
X128405532Y-64532516D01*
X128410344Y-64533056D01*
X128410345Y-64533056D01*
X128563108Y-64550191D01*
X128563110Y-64550191D01*
X128565864Y-64550500D01*
X128926841Y-64550500D01*
X128929236Y-64550265D01*
X128929240Y-64550265D01*
X129075220Y-64535952D01*
X129075224Y-64535951D01*
X129080030Y-64535480D01*
X129084655Y-64534084D01*
X129084658Y-64534083D01*
X129265456Y-64479496D01*
X129277251Y-64475935D01*
X129281521Y-64473665D01*
X129281525Y-64473663D01*
X129303294Y-64462088D01*
X129349771Y-64450500D01*
X135397867Y-64450500D01*
X135445557Y-64462745D01*
X135459162Y-64470224D01*
X135655532Y-64532516D01*
X135660344Y-64533056D01*
X135660345Y-64533056D01*
X135813108Y-64550191D01*
X135813110Y-64550191D01*
X135815864Y-64550500D01*
X136176841Y-64550500D01*
X136179236Y-64550265D01*
X136179240Y-64550265D01*
X136325220Y-64535952D01*
X136325224Y-64535951D01*
X136330030Y-64535480D01*
X136334655Y-64534084D01*
X136334658Y-64534083D01*
X136515456Y-64479496D01*
X136527251Y-64475935D01*
X136531521Y-64473665D01*
X136531525Y-64473663D01*
X136553294Y-64462088D01*
X136599771Y-64450500D01*
X137065282Y-64450500D01*
X137123473Y-64469407D01*
X137135286Y-64479496D01*
X138020504Y-65364714D01*
X138048281Y-65419231D01*
X138049500Y-65434718D01*
X138049500Y-80815282D01*
X138030593Y-80873473D01*
X138020504Y-80885286D01*
X136885286Y-82020504D01*
X136830769Y-82048281D01*
X136815282Y-82049500D01*
X113535210Y-82049500D01*
X113532722Y-82049753D01*
X113532717Y-82049753D01*
X113396346Y-82063605D01*
X113396342Y-82063606D01*
X113391359Y-82064112D01*
X113207096Y-82121856D01*
X113038208Y-82215472D01*
X112891594Y-82341136D01*
X112888517Y-82345103D01*
X112776313Y-82489754D01*
X112776310Y-82489759D01*
X112773242Y-82493714D01*
X112771031Y-82498207D01*
X112768368Y-82502469D01*
X112766264Y-82501154D01*
X112730280Y-82538106D01*
X112684169Y-82549500D01*
X112514321Y-82549500D01*
X112456130Y-82530593D01*
X112420166Y-82481093D01*
X112420166Y-82419907D01*
X112460613Y-82367762D01*
X112461610Y-82367258D01*
X112465431Y-82364273D01*
X112620135Y-82243406D01*
X112620139Y-82243402D01*
X112623951Y-82240424D01*
X112758564Y-82084472D01*
X112769279Y-82065611D01*
X112857934Y-81909550D01*
X112857935Y-81909547D01*
X112860323Y-81905344D01*
X112873882Y-81864586D01*
X112923824Y-81714454D01*
X112923824Y-81714452D01*
X112925351Y-81709863D01*
X112932991Y-81649390D01*
X112947317Y-81535981D01*
X112951171Y-81505474D01*
X112951583Y-81476000D01*
X112946485Y-81424001D01*
X112931952Y-81275780D01*
X112931951Y-81275776D01*
X112931480Y-81270970D01*
X112871935Y-81073749D01*
X112775218Y-80891849D01*
X112645011Y-80732200D01*
X112486275Y-80600882D01*
X112335590Y-80519407D01*
X112309309Y-80505197D01*
X112309308Y-80505197D01*
X112305055Y-80502897D01*
X112212744Y-80474322D01*
X112112875Y-80443407D01*
X112112871Y-80443406D01*
X112108254Y-80441977D01*
X112103446Y-80441472D01*
X112103443Y-80441471D01*
X111908185Y-80420949D01*
X111908183Y-80420949D01*
X111903369Y-80420443D01*
X111843354Y-80425905D01*
X111703022Y-80438675D01*
X111703017Y-80438676D01*
X111698203Y-80439114D01*
X111621163Y-80461788D01*
X111505219Y-80495912D01*
X111505216Y-80495913D01*
X111500572Y-80497280D01*
X111461050Y-80517941D01*
X111400725Y-80528145D01*
X111345182Y-80500211D01*
X110870320Y-80025349D01*
X110867620Y-80022220D01*
X110865425Y-80017731D01*
X110829178Y-79984107D01*
X110826502Y-79981531D01*
X110812723Y-79967752D01*
X110809013Y-79965207D01*
X110805100Y-79961771D01*
X110790055Y-79947815D01*
X110783354Y-79941599D01*
X110772664Y-79937334D01*
X110753348Y-79927020D01*
X110751393Y-79925679D01*
X110751390Y-79925678D01*
X110743854Y-79920508D01*
X110717941Y-79914359D01*
X110704116Y-79909986D01*
X110685868Y-79902706D01*
X110685866Y-79902706D01*
X110679378Y-79900117D01*
X110673085Y-79899500D01*
X110666916Y-79899500D01*
X110644057Y-79896825D01*
X110643827Y-79896770D01*
X110643825Y-79896770D01*
X110634934Y-79894660D01*
X110606013Y-79898596D01*
X110592663Y-79899500D01*
X110116661Y-79899500D01*
X110058470Y-79880593D01*
X110022506Y-79831093D01*
X110022506Y-79769907D01*
X110055709Y-79722489D01*
X110083951Y-79700424D01*
X110218564Y-79544472D01*
X110237231Y-79511613D01*
X110317934Y-79369550D01*
X110317935Y-79369547D01*
X110320323Y-79365344D01*
X110325998Y-79348286D01*
X110383824Y-79174454D01*
X110383824Y-79174452D01*
X110385351Y-79169863D01*
X110390773Y-79126948D01*
X110410823Y-78968228D01*
X110411171Y-78965474D01*
X110411583Y-78936000D01*
X110407312Y-78892436D01*
X110391952Y-78735780D01*
X110391951Y-78735776D01*
X110391480Y-78730970D01*
X110385081Y-78709774D01*
X110341181Y-78564373D01*
X110331935Y-78533749D01*
X110235218Y-78351849D01*
X110105011Y-78192200D01*
X110085164Y-78175781D01*
X110052379Y-78124120D01*
X110056221Y-78063055D01*
X110095222Y-78015911D01*
X110148269Y-78000500D01*
X110494521Y-78000500D01*
X110552712Y-78019407D01*
X110564525Y-78029496D01*
X110919124Y-78384095D01*
X110946901Y-78438612D01*
X110935874Y-78501793D01*
X110928111Y-78515914D01*
X110925776Y-78520162D01*
X110924313Y-78524775D01*
X110924311Y-78524779D01*
X110870413Y-78694689D01*
X110863484Y-78716532D01*
X110862944Y-78721344D01*
X110862944Y-78721345D01*
X110844478Y-78885979D01*
X110840520Y-78921262D01*
X110840925Y-78926082D01*
X110857339Y-79121549D01*
X110857759Y-79126553D01*
X110859092Y-79131201D01*
X110859092Y-79131202D01*
X110913100Y-79319549D01*
X110914544Y-79324586D01*
X111008712Y-79507818D01*
X111136677Y-79669270D01*
X111140357Y-79672402D01*
X111140359Y-79672404D01*
X111248116Y-79764112D01*
X111293564Y-79802791D01*
X111297787Y-79805151D01*
X111297791Y-79805154D01*
X111403118Y-79864019D01*
X111473398Y-79903297D01*
X111477996Y-79904791D01*
X111664724Y-79965463D01*
X111664726Y-79965464D01*
X111669329Y-79966959D01*
X111873894Y-79991351D01*
X111878716Y-79990980D01*
X111878719Y-79990980D01*
X111946541Y-79985761D01*
X112079300Y-79975546D01*
X112277725Y-79920145D01*
X112282038Y-79917966D01*
X112282044Y-79917964D01*
X112457289Y-79829441D01*
X112457291Y-79829440D01*
X112461610Y-79827258D01*
X112489902Y-79805154D01*
X112620135Y-79703406D01*
X112620139Y-79703402D01*
X112623951Y-79700424D01*
X112758564Y-79544472D01*
X112777231Y-79511613D01*
X112857934Y-79369550D01*
X112857935Y-79369547D01*
X112860323Y-79365344D01*
X112865998Y-79348286D01*
X112923824Y-79174454D01*
X112923824Y-79174452D01*
X112925351Y-79169863D01*
X112930773Y-79126948D01*
X112950823Y-78968228D01*
X112951171Y-78965474D01*
X112951583Y-78936000D01*
X112947312Y-78892436D01*
X112931952Y-78735780D01*
X112931951Y-78735776D01*
X112931480Y-78730970D01*
X112925081Y-78709774D01*
X112881181Y-78564373D01*
X112871935Y-78533749D01*
X112775218Y-78351849D01*
X112645011Y-78192200D01*
X112615160Y-78167505D01*
X112490002Y-78063965D01*
X112490000Y-78063964D01*
X112486275Y-78060882D01*
X112351750Y-77988145D01*
X112309309Y-77965197D01*
X112309308Y-77965197D01*
X112305055Y-77962897D01*
X112241855Y-77943333D01*
X112112875Y-77903407D01*
X112112871Y-77903406D01*
X112108254Y-77901977D01*
X112103446Y-77901472D01*
X112103443Y-77901471D01*
X111908185Y-77880949D01*
X111908183Y-77880949D01*
X111903369Y-77880443D01*
X111843354Y-77885905D01*
X111703022Y-77898675D01*
X111703017Y-77898676D01*
X111698203Y-77899114D01*
X111683617Y-77903407D01*
X111505219Y-77955912D01*
X111505216Y-77955913D01*
X111500572Y-77957280D01*
X111461050Y-77977941D01*
X111400725Y-77988145D01*
X111345182Y-77960211D01*
X110910320Y-77525349D01*
X110907620Y-77522220D01*
X110905425Y-77517731D01*
X110869178Y-77484107D01*
X110866502Y-77481531D01*
X110852723Y-77467752D01*
X110849013Y-77465207D01*
X110845100Y-77461771D01*
X110830055Y-77447815D01*
X110823354Y-77441599D01*
X110812664Y-77437334D01*
X110793348Y-77427020D01*
X110791393Y-77425679D01*
X110791390Y-77425678D01*
X110783854Y-77420508D01*
X110757941Y-77414359D01*
X110744116Y-77409986D01*
X110725868Y-77402706D01*
X110725866Y-77402706D01*
X110719378Y-77400117D01*
X110713085Y-77399500D01*
X110706916Y-77399500D01*
X110684057Y-77396825D01*
X110683827Y-77396770D01*
X110683825Y-77396770D01*
X110674934Y-77394660D01*
X110646013Y-77398596D01*
X110632663Y-77399500D01*
X110065464Y-77399500D01*
X110007273Y-77380593D01*
X109971309Y-77331093D01*
X109971309Y-77269907D01*
X110004514Y-77222487D01*
X110080135Y-77163406D01*
X110080139Y-77163402D01*
X110083951Y-77160424D01*
X110109473Y-77130857D01*
X110150726Y-77083064D01*
X110218564Y-77004472D01*
X110221092Y-77000022D01*
X110317934Y-76829550D01*
X110317935Y-76829547D01*
X110320323Y-76825344D01*
X110322389Y-76819136D01*
X110383824Y-76634454D01*
X110383824Y-76634452D01*
X110385351Y-76629863D01*
X110411171Y-76425474D01*
X110411241Y-76420504D01*
X110411544Y-76398776D01*
X110411583Y-76396000D01*
X110409667Y-76376454D01*
X110391952Y-76195780D01*
X110391951Y-76195776D01*
X110391480Y-76190970D01*
X110331935Y-75993749D01*
X110235218Y-75811849D01*
X110105011Y-75652200D01*
X110012636Y-75575780D01*
X109979851Y-75524120D01*
X109983693Y-75463056D01*
X110022694Y-75415912D01*
X110075741Y-75400500D01*
X110434521Y-75400500D01*
X110492712Y-75419407D01*
X110504525Y-75429496D01*
X110919124Y-75844095D01*
X110946901Y-75898612D01*
X110935874Y-75961793D01*
X110928111Y-75975914D01*
X110925776Y-75980162D01*
X110924313Y-75984775D01*
X110924311Y-75984779D01*
X110910280Y-76029012D01*
X110863484Y-76176532D01*
X110862944Y-76181344D01*
X110862944Y-76181345D01*
X110841900Y-76368963D01*
X110840520Y-76381262D01*
X110857759Y-76586553D01*
X110859092Y-76591201D01*
X110859092Y-76591202D01*
X110900856Y-76736849D01*
X110914544Y-76784586D01*
X111008712Y-76967818D01*
X111136677Y-77129270D01*
X111140357Y-77132402D01*
X111140359Y-77132404D01*
X111236305Y-77214060D01*
X111293564Y-77262791D01*
X111297787Y-77265151D01*
X111297791Y-77265154D01*
X111350878Y-77294823D01*
X111473398Y-77363297D01*
X111477996Y-77364791D01*
X111664724Y-77425463D01*
X111664726Y-77425464D01*
X111669329Y-77426959D01*
X111873894Y-77451351D01*
X111878716Y-77450980D01*
X111878719Y-77450980D01*
X111946541Y-77445761D01*
X112079300Y-77435546D01*
X112277725Y-77380145D01*
X112282038Y-77377966D01*
X112282044Y-77377964D01*
X112457289Y-77289441D01*
X112457291Y-77289440D01*
X112461610Y-77287258D01*
X112474457Y-77277221D01*
X112620135Y-77163406D01*
X112620139Y-77163402D01*
X112623951Y-77160424D01*
X112649473Y-77130857D01*
X112690726Y-77083064D01*
X112758564Y-77004472D01*
X112761092Y-77000022D01*
X112857934Y-76829550D01*
X112857935Y-76829547D01*
X112860323Y-76825344D01*
X112862389Y-76819136D01*
X112917377Y-76653834D01*
X127574500Y-76653834D01*
X127577481Y-76685369D01*
X127622366Y-76813184D01*
X127626761Y-76819135D01*
X127626762Y-76819136D01*
X127680903Y-76892436D01*
X127702850Y-76922150D01*
X127708807Y-76926550D01*
X127760419Y-76964671D01*
X127811816Y-77002634D01*
X127939631Y-77047519D01*
X127945638Y-77048087D01*
X127945639Y-77048087D01*
X127968855Y-77050282D01*
X127968865Y-77050282D01*
X127971166Y-77050500D01*
X129528834Y-77050500D01*
X129531135Y-77050282D01*
X129531145Y-77050282D01*
X129554361Y-77048087D01*
X129554362Y-77048087D01*
X129560369Y-77047519D01*
X129688184Y-77002634D01*
X129739582Y-76964671D01*
X129791193Y-76926550D01*
X129797150Y-76922150D01*
X129819097Y-76892436D01*
X129873238Y-76819136D01*
X129873239Y-76819135D01*
X129877634Y-76813184D01*
X129922519Y-76685369D01*
X129925500Y-76653834D01*
X134824500Y-76653834D01*
X134827481Y-76685369D01*
X134872366Y-76813184D01*
X134876761Y-76819135D01*
X134876762Y-76819136D01*
X134930903Y-76892436D01*
X134952850Y-76922150D01*
X134958807Y-76926550D01*
X135010419Y-76964671D01*
X135061816Y-77002634D01*
X135189631Y-77047519D01*
X135195638Y-77048087D01*
X135195639Y-77048087D01*
X135218855Y-77050282D01*
X135218865Y-77050282D01*
X135221166Y-77050500D01*
X136778834Y-77050500D01*
X136781135Y-77050282D01*
X136781145Y-77050282D01*
X136804361Y-77048087D01*
X136804362Y-77048087D01*
X136810369Y-77047519D01*
X136938184Y-77002634D01*
X136989582Y-76964671D01*
X137041193Y-76926550D01*
X137047150Y-76922150D01*
X137069097Y-76892436D01*
X137123238Y-76819136D01*
X137123239Y-76819135D01*
X137127634Y-76813184D01*
X137172519Y-76685369D01*
X137175500Y-76653834D01*
X137175500Y-75346166D01*
X137172519Y-75314631D01*
X137127634Y-75186816D01*
X137047150Y-75077850D01*
X136938184Y-74997366D01*
X136810369Y-74952481D01*
X136804362Y-74951913D01*
X136804361Y-74951913D01*
X136781145Y-74949718D01*
X136781135Y-74949718D01*
X136778834Y-74949500D01*
X135221166Y-74949500D01*
X135218865Y-74949718D01*
X135218855Y-74949718D01*
X135195639Y-74951913D01*
X135195638Y-74951913D01*
X135189631Y-74952481D01*
X135061816Y-74997366D01*
X134952850Y-75077850D01*
X134872366Y-75186816D01*
X134827481Y-75314631D01*
X134824500Y-75346166D01*
X134824500Y-76653834D01*
X129925500Y-76653834D01*
X129925500Y-75346166D01*
X129922519Y-75314631D01*
X129877634Y-75186816D01*
X129797150Y-75077850D01*
X129688184Y-74997366D01*
X129560369Y-74952481D01*
X129554362Y-74951913D01*
X129554361Y-74951913D01*
X129531145Y-74949718D01*
X129531135Y-74949718D01*
X129528834Y-74949500D01*
X127971166Y-74949500D01*
X127968865Y-74949718D01*
X127968855Y-74949718D01*
X127945639Y-74951913D01*
X127945638Y-74951913D01*
X127939631Y-74952481D01*
X127811816Y-74997366D01*
X127702850Y-75077850D01*
X127622366Y-75186816D01*
X127577481Y-75314631D01*
X127574500Y-75346166D01*
X127574500Y-76653834D01*
X112917377Y-76653834D01*
X112923824Y-76634454D01*
X112923824Y-76634452D01*
X112925351Y-76629863D01*
X112951171Y-76425474D01*
X112951241Y-76420504D01*
X112951544Y-76398776D01*
X112951583Y-76396000D01*
X112949667Y-76376454D01*
X112931952Y-76195780D01*
X112931951Y-76195776D01*
X112931480Y-76190970D01*
X112871935Y-75993749D01*
X112775218Y-75811849D01*
X112645011Y-75652200D01*
X112553693Y-75576655D01*
X112490002Y-75523965D01*
X112490000Y-75523964D01*
X112486275Y-75520882D01*
X112374123Y-75460242D01*
X112309309Y-75425197D01*
X112309308Y-75425197D01*
X112305055Y-75422897D01*
X112232702Y-75400500D01*
X112112875Y-75363407D01*
X112112871Y-75363406D01*
X112108254Y-75361977D01*
X112103446Y-75361472D01*
X112103443Y-75361471D01*
X111908185Y-75340949D01*
X111908183Y-75340949D01*
X111903369Y-75340443D01*
X111843354Y-75345905D01*
X111703022Y-75358675D01*
X111703017Y-75358676D01*
X111698203Y-75359114D01*
X111500572Y-75417280D01*
X111496285Y-75419521D01*
X111496283Y-75419522D01*
X111461052Y-75437940D01*
X111400724Y-75448144D01*
X111345182Y-75420210D01*
X110850320Y-74925349D01*
X110847620Y-74922220D01*
X110845425Y-74917731D01*
X110809178Y-74884107D01*
X110806502Y-74881531D01*
X110792723Y-74867752D01*
X110789013Y-74865207D01*
X110785100Y-74861771D01*
X110770055Y-74847815D01*
X110763354Y-74841599D01*
X110752664Y-74837334D01*
X110733348Y-74827020D01*
X110731393Y-74825679D01*
X110731390Y-74825678D01*
X110723854Y-74820508D01*
X110697941Y-74814359D01*
X110684116Y-74809986D01*
X110665868Y-74802706D01*
X110665866Y-74802706D01*
X110659378Y-74800117D01*
X110653085Y-74799500D01*
X110646916Y-74799500D01*
X110624057Y-74796825D01*
X110623827Y-74796770D01*
X110623825Y-74796770D01*
X110614934Y-74794660D01*
X110586013Y-74798596D01*
X110572663Y-74799500D01*
X110142260Y-74799500D01*
X110084069Y-74780593D01*
X110048105Y-74731093D01*
X110048105Y-74669907D01*
X110077611Y-74627773D01*
X110076630Y-74626743D01*
X110080136Y-74623405D01*
X110083951Y-74620424D01*
X110218564Y-74464472D01*
X110238471Y-74429430D01*
X110317934Y-74289550D01*
X110317935Y-74289547D01*
X110320323Y-74285344D01*
X110331392Y-74252071D01*
X110383824Y-74094454D01*
X110383824Y-74094452D01*
X110385351Y-74089863D01*
X110386374Y-74081769D01*
X110409372Y-73899713D01*
X110411171Y-73885474D01*
X110411583Y-73856000D01*
X110396527Y-73702441D01*
X110391952Y-73655780D01*
X110391951Y-73655776D01*
X110391480Y-73650970D01*
X110377626Y-73605082D01*
X110342220Y-73487815D01*
X110331935Y-73453749D01*
X110235218Y-73271849D01*
X110105011Y-73112200D01*
X110060988Y-73075781D01*
X110028203Y-73024120D01*
X110032045Y-72963056D01*
X110071046Y-72915912D01*
X110124093Y-72900500D01*
X110474521Y-72900500D01*
X110532712Y-72919407D01*
X110544525Y-72929496D01*
X110919124Y-73304095D01*
X110946901Y-73358612D01*
X110935874Y-73421793D01*
X110925776Y-73440162D01*
X110924313Y-73444775D01*
X110924311Y-73444779D01*
X110905986Y-73502547D01*
X110863484Y-73636532D01*
X110862944Y-73641344D01*
X110862944Y-73641345D01*
X110857153Y-73692978D01*
X110840520Y-73841262D01*
X110857759Y-74046553D01*
X110914544Y-74244586D01*
X111008712Y-74427818D01*
X111136677Y-74589270D01*
X111140357Y-74592402D01*
X111140359Y-74592404D01*
X111181918Y-74627773D01*
X111293564Y-74722791D01*
X111297787Y-74725151D01*
X111297791Y-74725154D01*
X111337342Y-74747258D01*
X111473398Y-74823297D01*
X111477996Y-74824791D01*
X111664724Y-74885463D01*
X111664726Y-74885464D01*
X111669329Y-74886959D01*
X111873894Y-74911351D01*
X111878716Y-74910980D01*
X111878719Y-74910980D01*
X111946541Y-74905761D01*
X112079300Y-74895546D01*
X112277725Y-74840145D01*
X112282038Y-74837966D01*
X112282044Y-74837964D01*
X112457289Y-74749441D01*
X112457291Y-74749440D01*
X112461610Y-74747258D01*
X112473172Y-74738225D01*
X112620135Y-74623406D01*
X112620139Y-74623402D01*
X112623951Y-74620424D01*
X112758564Y-74464472D01*
X112778471Y-74429430D01*
X112857934Y-74289550D01*
X112857935Y-74289547D01*
X112860323Y-74285344D01*
X112871392Y-74252071D01*
X112923824Y-74094454D01*
X112923824Y-74094452D01*
X112925351Y-74089863D01*
X112926374Y-74081769D01*
X112949372Y-73899713D01*
X112951171Y-73885474D01*
X112951583Y-73856000D01*
X112936527Y-73702441D01*
X112931952Y-73655780D01*
X112931951Y-73655776D01*
X112931480Y-73650970D01*
X112917626Y-73605082D01*
X112883674Y-73492631D01*
X127569443Y-73492631D01*
X127571238Y-73512354D01*
X127583853Y-73650970D01*
X127588114Y-73697797D01*
X127646280Y-73895428D01*
X127741726Y-74077998D01*
X127870815Y-74238553D01*
X127874526Y-74241667D01*
X127874527Y-74241668D01*
X127931591Y-74289550D01*
X128028630Y-74370976D01*
X128032878Y-74373311D01*
X128032879Y-74373312D01*
X128071264Y-74394414D01*
X128209162Y-74470224D01*
X128213775Y-74471687D01*
X128213779Y-74471689D01*
X128383689Y-74525587D01*
X128405532Y-74532516D01*
X128410344Y-74533056D01*
X128410345Y-74533056D01*
X128563108Y-74550191D01*
X128563110Y-74550191D01*
X128565864Y-74550500D01*
X128926841Y-74550500D01*
X128929236Y-74550265D01*
X128929240Y-74550265D01*
X129075220Y-74535952D01*
X129075224Y-74535951D01*
X129080030Y-74535480D01*
X129084655Y-74534084D01*
X129084658Y-74534083D01*
X129197131Y-74500125D01*
X129277251Y-74475935D01*
X129459151Y-74379218D01*
X129618800Y-74249011D01*
X129750118Y-74090275D01*
X129848103Y-73909055D01*
X129909023Y-73712254D01*
X129910055Y-73702441D01*
X129930051Y-73512185D01*
X129930051Y-73512183D01*
X129930557Y-73507369D01*
X129929216Y-73492631D01*
X134819443Y-73492631D01*
X134821238Y-73512354D01*
X134833853Y-73650970D01*
X134838114Y-73697797D01*
X134896280Y-73895428D01*
X134991726Y-74077998D01*
X135120815Y-74238553D01*
X135124526Y-74241667D01*
X135124527Y-74241668D01*
X135181591Y-74289550D01*
X135278630Y-74370976D01*
X135282878Y-74373311D01*
X135282879Y-74373312D01*
X135321264Y-74394414D01*
X135459162Y-74470224D01*
X135463775Y-74471687D01*
X135463779Y-74471689D01*
X135633689Y-74525587D01*
X135655532Y-74532516D01*
X135660344Y-74533056D01*
X135660345Y-74533056D01*
X135813108Y-74550191D01*
X135813110Y-74550191D01*
X135815864Y-74550500D01*
X136176841Y-74550500D01*
X136179236Y-74550265D01*
X136179240Y-74550265D01*
X136325220Y-74535952D01*
X136325224Y-74535951D01*
X136330030Y-74535480D01*
X136334655Y-74534084D01*
X136334658Y-74534083D01*
X136447131Y-74500125D01*
X136527251Y-74475935D01*
X136709151Y-74379218D01*
X136868800Y-74249011D01*
X137000118Y-74090275D01*
X137098103Y-73909055D01*
X137159023Y-73712254D01*
X137160055Y-73702441D01*
X137180051Y-73512185D01*
X137180051Y-73512183D01*
X137180557Y-73507369D01*
X137167067Y-73359135D01*
X137162325Y-73307022D01*
X137162324Y-73307017D01*
X137161886Y-73302203D01*
X137103720Y-73104572D01*
X137100691Y-73098777D01*
X137034792Y-72972726D01*
X137008274Y-72922002D01*
X136988929Y-72897941D01*
X136882219Y-72765220D01*
X136882217Y-72765217D01*
X136879185Y-72761447D01*
X136863075Y-72747929D01*
X136725085Y-72632141D01*
X136725083Y-72632140D01*
X136721370Y-72629024D01*
X136709689Y-72622602D01*
X136545085Y-72532111D01*
X136540838Y-72529776D01*
X136536225Y-72528313D01*
X136536221Y-72528311D01*
X136349083Y-72468948D01*
X136344468Y-72467484D01*
X136339656Y-72466944D01*
X136339655Y-72466944D01*
X136186892Y-72449809D01*
X136186890Y-72449809D01*
X136184136Y-72449500D01*
X135823159Y-72449500D01*
X135820764Y-72449735D01*
X135820760Y-72449735D01*
X135674780Y-72464048D01*
X135674776Y-72464049D01*
X135669970Y-72464520D01*
X135665345Y-72465916D01*
X135665342Y-72465917D01*
X135563137Y-72496775D01*
X135472749Y-72524065D01*
X135290849Y-72620782D01*
X135131200Y-72750989D01*
X135128116Y-72754717D01*
X135128115Y-72754718D01*
X135007514Y-72900500D01*
X134999882Y-72909725D01*
X134971046Y-72963056D01*
X134909624Y-73076655D01*
X134901897Y-73090945D01*
X134894156Y-73115952D01*
X134861209Y-73222388D01*
X134840977Y-73287746D01*
X134840472Y-73292554D01*
X134840471Y-73292557D01*
X134823043Y-73458380D01*
X134819443Y-73492631D01*
X129929216Y-73492631D01*
X129917067Y-73359135D01*
X129912325Y-73307022D01*
X129912324Y-73307017D01*
X129911886Y-73302203D01*
X129853720Y-73104572D01*
X129850691Y-73098777D01*
X129784792Y-72972726D01*
X129758274Y-72922002D01*
X129738929Y-72897941D01*
X129632219Y-72765220D01*
X129632217Y-72765217D01*
X129629185Y-72761447D01*
X129613075Y-72747929D01*
X129475085Y-72632141D01*
X129475083Y-72632140D01*
X129471370Y-72629024D01*
X129459689Y-72622602D01*
X129295085Y-72532111D01*
X129290838Y-72529776D01*
X129286225Y-72528313D01*
X129286221Y-72528311D01*
X129099083Y-72468948D01*
X129094468Y-72467484D01*
X129089656Y-72466944D01*
X129089655Y-72466944D01*
X128936892Y-72449809D01*
X128936890Y-72449809D01*
X128934136Y-72449500D01*
X128573159Y-72449500D01*
X128570764Y-72449735D01*
X128570760Y-72449735D01*
X128424780Y-72464048D01*
X128424776Y-72464049D01*
X128419970Y-72464520D01*
X128415345Y-72465916D01*
X128415342Y-72465917D01*
X128313137Y-72496775D01*
X128222749Y-72524065D01*
X128040849Y-72620782D01*
X127881200Y-72750989D01*
X127878116Y-72754717D01*
X127878115Y-72754718D01*
X127757514Y-72900500D01*
X127749882Y-72909725D01*
X127721046Y-72963056D01*
X127659624Y-73076655D01*
X127651897Y-73090945D01*
X127644156Y-73115952D01*
X127611209Y-73222388D01*
X127590977Y-73287746D01*
X127590472Y-73292554D01*
X127590471Y-73292557D01*
X127573043Y-73458380D01*
X127569443Y-73492631D01*
X112883674Y-73492631D01*
X112882220Y-73487815D01*
X112871935Y-73453749D01*
X112775218Y-73271849D01*
X112645011Y-73112200D01*
X112630611Y-73100287D01*
X112490002Y-72983965D01*
X112490000Y-72983964D01*
X112486275Y-72980882D01*
X112356439Y-72910680D01*
X112309309Y-72885197D01*
X112309308Y-72885197D01*
X112305055Y-72882897D01*
X112204083Y-72851641D01*
X112112875Y-72823407D01*
X112112871Y-72823406D01*
X112108254Y-72821977D01*
X112103446Y-72821472D01*
X112103443Y-72821471D01*
X111908185Y-72800949D01*
X111908183Y-72800949D01*
X111903369Y-72800443D01*
X111843354Y-72805905D01*
X111703022Y-72818675D01*
X111703017Y-72818676D01*
X111698203Y-72819114D01*
X111640894Y-72835981D01*
X111505219Y-72875912D01*
X111505216Y-72875913D01*
X111500572Y-72877280D01*
X111461050Y-72897941D01*
X111400725Y-72908145D01*
X111345182Y-72880211D01*
X110890320Y-72425349D01*
X110887620Y-72422220D01*
X110885425Y-72417731D01*
X110868573Y-72402098D01*
X110849178Y-72384107D01*
X110846502Y-72381531D01*
X110832723Y-72367752D01*
X110829013Y-72365207D01*
X110825100Y-72361771D01*
X110813296Y-72350821D01*
X110803354Y-72341599D01*
X110792664Y-72337334D01*
X110773348Y-72327020D01*
X110771393Y-72325679D01*
X110771390Y-72325678D01*
X110763854Y-72320508D01*
X110737941Y-72314359D01*
X110724116Y-72309986D01*
X110705868Y-72302706D01*
X110705866Y-72302706D01*
X110699378Y-72300117D01*
X110693085Y-72299500D01*
X110686916Y-72299500D01*
X110664057Y-72296825D01*
X110663827Y-72296770D01*
X110663825Y-72296770D01*
X110654934Y-72294660D01*
X110627174Y-72298438D01*
X110626013Y-72298596D01*
X110612663Y-72299500D01*
X110091063Y-72299500D01*
X110032872Y-72280593D01*
X109996908Y-72231093D01*
X109996908Y-72169907D01*
X110030111Y-72122488D01*
X110083951Y-72080424D01*
X110090888Y-72072388D01*
X110172936Y-71977333D01*
X110218564Y-71924472D01*
X110239040Y-71888428D01*
X110317934Y-71749550D01*
X110317935Y-71749547D01*
X110320323Y-71745344D01*
X110322583Y-71738553D01*
X110383824Y-71554454D01*
X110383824Y-71554452D01*
X110385351Y-71549863D01*
X110391877Y-71498208D01*
X110410823Y-71348228D01*
X110411171Y-71345474D01*
X110411583Y-71316000D01*
X110409667Y-71296454D01*
X110391952Y-71115780D01*
X110391951Y-71115776D01*
X110391480Y-71110970D01*
X110364167Y-71020504D01*
X110333333Y-70918380D01*
X110331935Y-70913749D01*
X110235218Y-70731849D01*
X110105011Y-70572200D01*
X109988461Y-70475781D01*
X109955676Y-70424120D01*
X109959518Y-70363055D01*
X109998519Y-70315911D01*
X110051566Y-70300500D01*
X110414521Y-70300500D01*
X110472712Y-70319407D01*
X110484525Y-70329496D01*
X110919124Y-70764095D01*
X110946901Y-70818612D01*
X110935874Y-70881793D01*
X110925776Y-70900162D01*
X110924313Y-70904775D01*
X110924311Y-70904779D01*
X110893298Y-71002547D01*
X110863484Y-71096532D01*
X110862944Y-71101344D01*
X110862944Y-71101345D01*
X110849777Y-71218737D01*
X110840520Y-71301262D01*
X110844233Y-71345474D01*
X110849747Y-71411136D01*
X110857759Y-71506553D01*
X110859092Y-71511201D01*
X110859092Y-71511202D01*
X110882835Y-71594002D01*
X110914544Y-71704586D01*
X111008712Y-71887818D01*
X111136677Y-72049270D01*
X111140357Y-72052402D01*
X111140359Y-72052404D01*
X111209406Y-72111167D01*
X111293564Y-72182791D01*
X111297787Y-72185151D01*
X111297791Y-72185154D01*
X111391631Y-72237599D01*
X111473398Y-72283297D01*
X111477996Y-72284791D01*
X111664724Y-72345463D01*
X111664726Y-72345464D01*
X111669329Y-72346959D01*
X111873894Y-72371351D01*
X111878716Y-72370980D01*
X111878719Y-72370980D01*
X111946541Y-72365761D01*
X112079300Y-72355546D01*
X112277725Y-72300145D01*
X112282038Y-72297966D01*
X112282044Y-72297964D01*
X112457289Y-72209441D01*
X112457291Y-72209440D01*
X112461610Y-72207258D01*
X112465427Y-72204276D01*
X112620135Y-72083406D01*
X112620139Y-72083402D01*
X112623951Y-72080424D01*
X112630888Y-72072388D01*
X112712936Y-71977333D01*
X112758564Y-71924472D01*
X112779040Y-71888428D01*
X112857934Y-71749550D01*
X112857935Y-71749547D01*
X112860323Y-71745344D01*
X112862583Y-71738553D01*
X112923824Y-71554454D01*
X112923824Y-71554452D01*
X112925351Y-71549863D01*
X112931877Y-71498208D01*
X112950823Y-71348228D01*
X112951171Y-71345474D01*
X112951583Y-71316000D01*
X112949667Y-71296454D01*
X112931952Y-71115780D01*
X112931951Y-71115776D01*
X112931480Y-71110970D01*
X112904167Y-71020504D01*
X112895751Y-70992631D01*
X127569443Y-70992631D01*
X127571980Y-71020504D01*
X127581067Y-71120357D01*
X127588114Y-71197797D01*
X127646280Y-71395428D01*
X127741726Y-71577998D01*
X127870815Y-71738553D01*
X127874526Y-71741667D01*
X127874527Y-71741668D01*
X128008205Y-71853837D01*
X128028630Y-71870976D01*
X128032878Y-71873311D01*
X128032879Y-71873312D01*
X128060375Y-71888428D01*
X128209162Y-71970224D01*
X128213775Y-71971687D01*
X128213779Y-71971689D01*
X128383689Y-72025587D01*
X128405532Y-72032516D01*
X128410344Y-72033056D01*
X128410345Y-72033056D01*
X128563108Y-72050191D01*
X128563110Y-72050191D01*
X128565864Y-72050500D01*
X128926841Y-72050500D01*
X128929236Y-72050265D01*
X128929240Y-72050265D01*
X129075220Y-72035952D01*
X129075224Y-72035951D01*
X129080030Y-72035480D01*
X129084655Y-72034084D01*
X129084658Y-72034083D01*
X129202711Y-71998440D01*
X129277251Y-71975935D01*
X129459151Y-71879218D01*
X129618800Y-71749011D01*
X129659405Y-71699928D01*
X129747035Y-71594002D01*
X129747036Y-71594000D01*
X129750118Y-71590275D01*
X129848103Y-71409055D01*
X129848381Y-71409206D01*
X129886695Y-71364819D01*
X129937980Y-71350500D01*
X134812836Y-71350500D01*
X134871027Y-71369407D01*
X134900570Y-71403634D01*
X134989481Y-71573705D01*
X134989484Y-71573709D01*
X134991726Y-71577998D01*
X135120815Y-71738553D01*
X135124526Y-71741667D01*
X135124527Y-71741668D01*
X135258205Y-71853837D01*
X135278630Y-71870976D01*
X135282878Y-71873311D01*
X135282879Y-71873312D01*
X135310375Y-71888428D01*
X135459162Y-71970224D01*
X135463775Y-71971687D01*
X135463779Y-71971689D01*
X135633689Y-72025587D01*
X135655532Y-72032516D01*
X135660344Y-72033056D01*
X135660345Y-72033056D01*
X135813108Y-72050191D01*
X135813110Y-72050191D01*
X135815864Y-72050500D01*
X136176841Y-72050500D01*
X136179236Y-72050265D01*
X136179240Y-72050265D01*
X136325220Y-72035952D01*
X136325224Y-72035951D01*
X136330030Y-72035480D01*
X136334655Y-72034084D01*
X136334658Y-72034083D01*
X136452711Y-71998440D01*
X136527251Y-71975935D01*
X136709151Y-71879218D01*
X136868800Y-71749011D01*
X136909405Y-71699928D01*
X136997035Y-71594002D01*
X136997036Y-71594000D01*
X137000118Y-71590275D01*
X137098103Y-71409055D01*
X137126908Y-71316000D01*
X137157593Y-71216875D01*
X137157594Y-71216871D01*
X137159023Y-71212254D01*
X137160055Y-71202441D01*
X137180051Y-71012185D01*
X137180051Y-71012183D01*
X137180557Y-71007369D01*
X137169129Y-70881793D01*
X137162325Y-70807022D01*
X137162324Y-70807017D01*
X137161886Y-70802203D01*
X137103720Y-70604572D01*
X137008274Y-70422002D01*
X136956768Y-70357941D01*
X136882219Y-70265220D01*
X136882217Y-70265217D01*
X136879185Y-70261447D01*
X136721370Y-70129024D01*
X136702242Y-70118508D01*
X136545085Y-70032111D01*
X136540838Y-70029776D01*
X136536225Y-70028313D01*
X136536221Y-70028311D01*
X136349083Y-69968948D01*
X136344468Y-69967484D01*
X136339656Y-69966944D01*
X136339655Y-69966944D01*
X136186892Y-69949809D01*
X136186890Y-69949809D01*
X136184136Y-69949500D01*
X135823159Y-69949500D01*
X135820764Y-69949735D01*
X135820760Y-69949735D01*
X135674780Y-69964048D01*
X135674776Y-69964049D01*
X135669970Y-69964520D01*
X135665345Y-69965916D01*
X135665342Y-69965917D01*
X135552869Y-69999875D01*
X135472749Y-70024065D01*
X135290849Y-70120782D01*
X135131200Y-70250989D01*
X135128116Y-70254717D01*
X135128115Y-70254718D01*
X135033650Y-70368907D01*
X134999882Y-70409725D01*
X134901897Y-70590945D01*
X134901619Y-70590794D01*
X134863305Y-70635181D01*
X134812020Y-70649500D01*
X129937164Y-70649500D01*
X129878973Y-70630593D01*
X129849430Y-70596366D01*
X129760519Y-70426295D01*
X129760516Y-70426290D01*
X129758274Y-70422002D01*
X129706768Y-70357941D01*
X129632219Y-70265220D01*
X129632217Y-70265217D01*
X129629185Y-70261447D01*
X129471370Y-70129024D01*
X129452242Y-70118508D01*
X129295085Y-70032111D01*
X129290838Y-70029776D01*
X129286225Y-70028313D01*
X129286221Y-70028311D01*
X129099083Y-69968948D01*
X129094468Y-69967484D01*
X129089656Y-69966944D01*
X129089655Y-69966944D01*
X128936892Y-69949809D01*
X128936890Y-69949809D01*
X128934136Y-69949500D01*
X128573159Y-69949500D01*
X128570764Y-69949735D01*
X128570760Y-69949735D01*
X128424780Y-69964048D01*
X128424776Y-69964049D01*
X128419970Y-69964520D01*
X128415345Y-69965916D01*
X128415342Y-69965917D01*
X128302869Y-69999875D01*
X128222749Y-70024065D01*
X128040849Y-70120782D01*
X127881200Y-70250989D01*
X127878116Y-70254717D01*
X127878115Y-70254718D01*
X127783650Y-70368907D01*
X127749882Y-70409725D01*
X127651897Y-70590945D01*
X127590977Y-70787746D01*
X127590472Y-70792554D01*
X127590471Y-70792557D01*
X127577247Y-70918380D01*
X127569443Y-70992631D01*
X112895751Y-70992631D01*
X112873333Y-70918380D01*
X112871935Y-70913749D01*
X112775218Y-70731849D01*
X112645011Y-70572200D01*
X112486275Y-70440882D01*
X112342337Y-70363055D01*
X112309309Y-70345197D01*
X112309308Y-70345197D01*
X112305055Y-70342897D01*
X112217877Y-70315911D01*
X112112875Y-70283407D01*
X112112871Y-70283406D01*
X112108254Y-70281977D01*
X112103446Y-70281472D01*
X112103443Y-70281471D01*
X111908185Y-70260949D01*
X111908183Y-70260949D01*
X111903369Y-70260443D01*
X111850877Y-70265220D01*
X111703022Y-70278675D01*
X111703017Y-70278676D01*
X111698203Y-70279114D01*
X111683617Y-70283407D01*
X111505219Y-70335912D01*
X111505216Y-70335913D01*
X111500572Y-70337280D01*
X111461050Y-70357941D01*
X111400725Y-70368145D01*
X111345182Y-70340211D01*
X110830320Y-69825349D01*
X110827620Y-69822220D01*
X110825425Y-69817731D01*
X110789178Y-69784107D01*
X110786502Y-69781531D01*
X110772723Y-69767752D01*
X110769013Y-69765207D01*
X110765100Y-69761771D01*
X110750055Y-69747815D01*
X110743354Y-69741599D01*
X110732664Y-69737334D01*
X110713348Y-69727020D01*
X110711393Y-69725679D01*
X110711390Y-69725678D01*
X110703854Y-69720508D01*
X110677941Y-69714359D01*
X110664116Y-69709986D01*
X110645868Y-69702706D01*
X110645866Y-69702706D01*
X110639378Y-69700117D01*
X110633085Y-69699500D01*
X110626916Y-69699500D01*
X110604057Y-69696825D01*
X110603827Y-69696770D01*
X110603825Y-69696770D01*
X110594934Y-69694660D01*
X110567174Y-69698438D01*
X110566013Y-69698596D01*
X110552663Y-69699500D01*
X110162875Y-69699500D01*
X110104684Y-69680593D01*
X110068720Y-69631093D01*
X110068720Y-69569907D01*
X110087932Y-69535812D01*
X110146561Y-69467889D01*
X110218564Y-69384472D01*
X110237231Y-69351613D01*
X110317934Y-69209550D01*
X110317935Y-69209547D01*
X110320323Y-69205344D01*
X110333882Y-69164586D01*
X110383824Y-69014454D01*
X110383824Y-69014452D01*
X110385351Y-69009863D01*
X110397549Y-68913309D01*
X110410823Y-68808228D01*
X110411171Y-68805474D01*
X110411583Y-68776000D01*
X110411313Y-68773244D01*
X110391952Y-68575780D01*
X110391951Y-68575776D01*
X110391480Y-68570970D01*
X110388499Y-68561094D01*
X110333333Y-68378380D01*
X110331935Y-68373749D01*
X110235218Y-68191849D01*
X110105011Y-68032200D01*
X110036812Y-67975781D01*
X110004027Y-67924120D01*
X110007869Y-67863056D01*
X110046870Y-67815912D01*
X110099917Y-67800500D01*
X110454521Y-67800500D01*
X110512712Y-67819407D01*
X110524525Y-67829496D01*
X110919124Y-68224095D01*
X110946901Y-68278612D01*
X110935874Y-68341793D01*
X110925776Y-68360162D01*
X110924313Y-68364775D01*
X110924311Y-68364779D01*
X110883179Y-68494446D01*
X110863484Y-68556532D01*
X110862944Y-68561344D01*
X110862944Y-68561345D01*
X110843166Y-68737675D01*
X110840520Y-68761262D01*
X110857759Y-68966553D01*
X110859092Y-68971201D01*
X110859092Y-68971202D01*
X110893236Y-69090275D01*
X110914544Y-69164586D01*
X111008712Y-69347818D01*
X111136677Y-69509270D01*
X111140357Y-69512402D01*
X111140359Y-69512404D01*
X111184759Y-69550191D01*
X111293564Y-69642791D01*
X111297787Y-69645151D01*
X111297791Y-69645154D01*
X111396827Y-69700503D01*
X111473398Y-69743297D01*
X111477996Y-69744791D01*
X111664724Y-69805463D01*
X111664726Y-69805464D01*
X111669329Y-69806959D01*
X111873894Y-69831351D01*
X111878716Y-69830980D01*
X111878719Y-69830980D01*
X111946541Y-69825761D01*
X112079300Y-69815546D01*
X112277725Y-69760145D01*
X112282038Y-69757966D01*
X112282044Y-69757964D01*
X112457289Y-69669441D01*
X112457291Y-69669440D01*
X112461610Y-69667258D01*
X112498771Y-69638225D01*
X112620135Y-69543406D01*
X112620139Y-69543402D01*
X112623951Y-69540424D01*
X112627812Y-69535952D01*
X112686561Y-69467889D01*
X112758564Y-69384472D01*
X112777231Y-69351613D01*
X112857934Y-69209550D01*
X112857935Y-69209547D01*
X112860323Y-69205344D01*
X112873882Y-69164586D01*
X112923824Y-69014454D01*
X112923824Y-69014452D01*
X112925351Y-69009863D01*
X112937549Y-68913309D01*
X112950823Y-68808228D01*
X112951171Y-68805474D01*
X112951583Y-68776000D01*
X112951313Y-68773244D01*
X112931952Y-68575780D01*
X112931951Y-68575776D01*
X112931480Y-68570970D01*
X112928499Y-68561094D01*
X112907828Y-68492631D01*
X127569443Y-68492631D01*
X127572827Y-68529816D01*
X127586744Y-68682739D01*
X127588114Y-68697797D01*
X127646280Y-68895428D01*
X127741726Y-69077998D01*
X127757401Y-69097494D01*
X127840425Y-69200755D01*
X127870815Y-69238553D01*
X128028630Y-69370976D01*
X128032878Y-69373311D01*
X128032879Y-69373312D01*
X128053179Y-69384472D01*
X128209162Y-69470224D01*
X128213775Y-69471687D01*
X128213779Y-69471689D01*
X128382176Y-69525107D01*
X128405532Y-69532516D01*
X128410344Y-69533056D01*
X128410345Y-69533056D01*
X128563108Y-69550191D01*
X128563110Y-69550191D01*
X128565864Y-69550500D01*
X128926841Y-69550500D01*
X128929236Y-69550265D01*
X128929240Y-69550265D01*
X129075220Y-69535952D01*
X129075224Y-69535951D01*
X129080030Y-69535480D01*
X129084655Y-69534084D01*
X129084658Y-69534083D01*
X129197131Y-69500125D01*
X129277251Y-69475935D01*
X129459151Y-69379218D01*
X129618800Y-69249011D01*
X129750118Y-69090275D01*
X129848103Y-68909055D01*
X129848381Y-68909206D01*
X129886695Y-68864819D01*
X129937980Y-68850500D01*
X134812836Y-68850500D01*
X134871027Y-68869407D01*
X134900570Y-68903634D01*
X134989481Y-69073705D01*
X134989484Y-69073709D01*
X134991726Y-69077998D01*
X135007401Y-69097494D01*
X135090425Y-69200755D01*
X135120815Y-69238553D01*
X135278630Y-69370976D01*
X135282878Y-69373311D01*
X135282879Y-69373312D01*
X135303179Y-69384472D01*
X135459162Y-69470224D01*
X135463775Y-69471687D01*
X135463779Y-69471689D01*
X135632176Y-69525107D01*
X135655532Y-69532516D01*
X135660344Y-69533056D01*
X135660345Y-69533056D01*
X135813108Y-69550191D01*
X135813110Y-69550191D01*
X135815864Y-69550500D01*
X136176841Y-69550500D01*
X136179236Y-69550265D01*
X136179240Y-69550265D01*
X136325220Y-69535952D01*
X136325224Y-69535951D01*
X136330030Y-69535480D01*
X136334655Y-69534084D01*
X136334658Y-69534083D01*
X136447131Y-69500125D01*
X136527251Y-69475935D01*
X136709151Y-69379218D01*
X136868800Y-69249011D01*
X137000118Y-69090275D01*
X137098103Y-68909055D01*
X137138431Y-68778776D01*
X137157593Y-68716875D01*
X137157594Y-68716871D01*
X137159023Y-68712254D01*
X137160055Y-68702441D01*
X137180051Y-68512185D01*
X137180051Y-68512183D01*
X137180557Y-68507369D01*
X137171649Y-68409485D01*
X137162325Y-68307022D01*
X137162324Y-68307017D01*
X137161886Y-68302203D01*
X137103720Y-68104572D01*
X137097949Y-68093532D01*
X137010516Y-67926291D01*
X137008274Y-67922002D01*
X136965585Y-67868907D01*
X136882219Y-67765220D01*
X136882217Y-67765217D01*
X136879185Y-67761447D01*
X136852570Y-67739114D01*
X136725085Y-67632141D01*
X136725083Y-67632140D01*
X136721370Y-67629024D01*
X136702242Y-67618508D01*
X136545085Y-67532111D01*
X136540838Y-67529776D01*
X136536225Y-67528313D01*
X136536221Y-67528311D01*
X136349083Y-67468948D01*
X136344468Y-67467484D01*
X136339656Y-67466944D01*
X136339655Y-67466944D01*
X136186892Y-67449809D01*
X136186890Y-67449809D01*
X136184136Y-67449500D01*
X135823159Y-67449500D01*
X135820764Y-67449735D01*
X135820760Y-67449735D01*
X135674780Y-67464048D01*
X135674776Y-67464049D01*
X135669970Y-67464520D01*
X135665345Y-67465916D01*
X135665342Y-67465917D01*
X135552869Y-67499875D01*
X135472749Y-67524065D01*
X135290849Y-67620782D01*
X135131200Y-67750989D01*
X135128116Y-67754717D01*
X135128115Y-67754718D01*
X135007198Y-67900882D01*
X134999882Y-67909725D01*
X134901897Y-68090945D01*
X134901619Y-68090794D01*
X134863305Y-68135181D01*
X134812020Y-68149500D01*
X129937164Y-68149500D01*
X129878973Y-68130593D01*
X129849430Y-68096366D01*
X129760519Y-67926295D01*
X129760516Y-67926290D01*
X129758274Y-67922002D01*
X129715585Y-67868907D01*
X129632219Y-67765220D01*
X129632217Y-67765217D01*
X129629185Y-67761447D01*
X129602570Y-67739114D01*
X129475085Y-67632141D01*
X129475083Y-67632140D01*
X129471370Y-67629024D01*
X129452242Y-67618508D01*
X129295085Y-67532111D01*
X129290838Y-67529776D01*
X129286225Y-67528313D01*
X129286221Y-67528311D01*
X129099083Y-67468948D01*
X129094468Y-67467484D01*
X129089656Y-67466944D01*
X129089655Y-67466944D01*
X128936892Y-67449809D01*
X128936890Y-67449809D01*
X128934136Y-67449500D01*
X128573159Y-67449500D01*
X128570764Y-67449735D01*
X128570760Y-67449735D01*
X128424780Y-67464048D01*
X128424776Y-67464049D01*
X128419970Y-67464520D01*
X128415345Y-67465916D01*
X128415342Y-67465917D01*
X128302869Y-67499875D01*
X128222749Y-67524065D01*
X128040849Y-67620782D01*
X127881200Y-67750989D01*
X127878116Y-67754717D01*
X127878115Y-67754718D01*
X127757198Y-67900882D01*
X127749882Y-67909725D01*
X127730110Y-67946293D01*
X127681632Y-68035952D01*
X127651897Y-68090945D01*
X127639624Y-68130593D01*
X127609317Y-68228500D01*
X127590977Y-68287746D01*
X127590472Y-68292554D01*
X127590471Y-68292557D01*
X127581938Y-68373749D01*
X127569443Y-68492631D01*
X112907828Y-68492631D01*
X112873333Y-68378380D01*
X112871935Y-68373749D01*
X112775218Y-68191849D01*
X112645011Y-68032200D01*
X112583915Y-67981657D01*
X112490002Y-67903965D01*
X112490000Y-67903964D01*
X112486275Y-67900882D01*
X112335590Y-67819407D01*
X112309309Y-67805197D01*
X112309308Y-67805197D01*
X112305055Y-67802897D01*
X112241855Y-67783333D01*
X112112875Y-67743407D01*
X112112871Y-67743406D01*
X112108254Y-67741977D01*
X112103446Y-67741472D01*
X112103443Y-67741471D01*
X111908185Y-67720949D01*
X111908183Y-67720949D01*
X111903369Y-67720443D01*
X111843354Y-67725905D01*
X111703022Y-67738675D01*
X111703017Y-67738676D01*
X111698203Y-67739114D01*
X111645185Y-67754718D01*
X111505219Y-67795912D01*
X111505216Y-67795913D01*
X111500572Y-67797280D01*
X111461050Y-67817941D01*
X111400725Y-67828145D01*
X111345182Y-67800211D01*
X110870320Y-67325349D01*
X110867620Y-67322220D01*
X110865425Y-67317731D01*
X110829178Y-67284107D01*
X110826502Y-67281531D01*
X110812723Y-67267752D01*
X110809013Y-67265207D01*
X110805100Y-67261771D01*
X110794224Y-67251682D01*
X110783354Y-67241599D01*
X110772664Y-67237334D01*
X110753348Y-67227020D01*
X110751393Y-67225679D01*
X110751390Y-67225678D01*
X110743854Y-67220508D01*
X110717941Y-67214359D01*
X110704116Y-67209986D01*
X110685868Y-67202706D01*
X110685866Y-67202706D01*
X110679378Y-67200117D01*
X110673085Y-67199500D01*
X110666916Y-67199500D01*
X110644057Y-67196825D01*
X110643827Y-67196770D01*
X110643825Y-67196770D01*
X110634934Y-67194660D01*
X110607174Y-67198438D01*
X110606013Y-67198596D01*
X110592663Y-67199500D01*
X110116661Y-67199500D01*
X110058470Y-67180593D01*
X110022506Y-67131093D01*
X110022506Y-67069907D01*
X110055709Y-67022489D01*
X110083951Y-67000424D01*
X110108395Y-66972106D01*
X110168963Y-66901936D01*
X110218564Y-66844472D01*
X110237231Y-66811613D01*
X110317934Y-66669550D01*
X110317935Y-66669547D01*
X110320323Y-66665344D01*
X110333882Y-66624586D01*
X110383824Y-66474454D01*
X110383824Y-66474452D01*
X110385351Y-66469863D01*
X110411171Y-66265474D01*
X110411583Y-66236000D01*
X110410138Y-66221262D01*
X110840520Y-66221262D01*
X110857759Y-66426553D01*
X110859092Y-66431201D01*
X110859092Y-66431202D01*
X110891967Y-66545849D01*
X110914544Y-66624586D01*
X111008712Y-66807818D01*
X111136677Y-66969270D01*
X111140357Y-66972402D01*
X111140359Y-66972404D01*
X111199206Y-67022486D01*
X111293564Y-67102791D01*
X111297787Y-67105151D01*
X111297791Y-67105154D01*
X111344204Y-67131093D01*
X111473398Y-67203297D01*
X111477996Y-67204791D01*
X111664724Y-67265463D01*
X111664726Y-67265464D01*
X111669329Y-67266959D01*
X111873894Y-67291351D01*
X111878716Y-67290980D01*
X111878719Y-67290980D01*
X111946541Y-67285761D01*
X112079300Y-67275546D01*
X112277725Y-67220145D01*
X112282038Y-67217966D01*
X112282044Y-67217964D01*
X112457289Y-67129441D01*
X112457291Y-67129440D01*
X112461610Y-67127258D01*
X112531818Y-67072406D01*
X112620135Y-67003406D01*
X112620139Y-67003402D01*
X112623951Y-67000424D01*
X112648395Y-66972106D01*
X112708963Y-66901936D01*
X112758564Y-66844472D01*
X112777231Y-66811613D01*
X112857934Y-66669550D01*
X112857935Y-66669547D01*
X112860323Y-66665344D01*
X112873882Y-66624586D01*
X112923824Y-66474454D01*
X112923824Y-66474452D01*
X112925351Y-66469863D01*
X112951171Y-66265474D01*
X112951583Y-66236000D01*
X112949667Y-66216454D01*
X112931952Y-66035780D01*
X112931951Y-66035776D01*
X112931480Y-66030970D01*
X112871935Y-65833749D01*
X112775218Y-65651849D01*
X112645011Y-65492200D01*
X112525957Y-65393710D01*
X112490002Y-65363965D01*
X112490000Y-65363964D01*
X112486275Y-65360882D01*
X112305055Y-65262897D01*
X112241855Y-65243333D01*
X112112875Y-65203407D01*
X112112871Y-65203406D01*
X112108254Y-65201977D01*
X112103446Y-65201472D01*
X112103443Y-65201471D01*
X111908185Y-65180949D01*
X111908183Y-65180949D01*
X111903369Y-65180443D01*
X111843354Y-65185905D01*
X111703022Y-65198675D01*
X111703017Y-65198676D01*
X111698203Y-65199114D01*
X111500572Y-65257280D01*
X111496288Y-65259519D01*
X111496287Y-65259520D01*
X111485428Y-65265197D01*
X111318002Y-65352726D01*
X111314231Y-65355758D01*
X111161220Y-65478781D01*
X111161217Y-65478783D01*
X111157447Y-65481815D01*
X111154333Y-65485526D01*
X111154332Y-65485527D01*
X111145585Y-65495952D01*
X111025024Y-65639630D01*
X111022689Y-65643878D01*
X111022688Y-65643879D01*
X111015955Y-65656126D01*
X110925776Y-65820162D01*
X110924313Y-65824775D01*
X110924311Y-65824779D01*
X110894918Y-65917440D01*
X110863484Y-66016532D01*
X110862944Y-66021344D01*
X110862944Y-66021345D01*
X110843224Y-66197159D01*
X110840520Y-66221262D01*
X110410138Y-66221262D01*
X110409667Y-66216454D01*
X110391952Y-66035780D01*
X110391951Y-66035776D01*
X110391480Y-66030970D01*
X110331935Y-65833749D01*
X110235218Y-65651849D01*
X110105011Y-65492200D01*
X109985957Y-65393710D01*
X109950002Y-65363965D01*
X109950000Y-65363964D01*
X109946275Y-65360882D01*
X109765055Y-65262897D01*
X109701855Y-65243333D01*
X109572875Y-65203407D01*
X109572871Y-65203406D01*
X109568254Y-65201977D01*
X109563446Y-65201472D01*
X109563443Y-65201471D01*
X109368185Y-65180949D01*
X109368183Y-65180949D01*
X109363369Y-65180443D01*
X109303354Y-65185905D01*
X109163022Y-65198675D01*
X109163017Y-65198676D01*
X109158203Y-65199114D01*
X108960572Y-65257280D01*
X108956288Y-65259519D01*
X108956287Y-65259520D01*
X108945428Y-65265197D01*
X108778002Y-65352726D01*
X108774231Y-65355758D01*
X108621220Y-65478781D01*
X108621217Y-65478783D01*
X108617447Y-65481815D01*
X108614333Y-65485526D01*
X108614332Y-65485527D01*
X108605585Y-65495952D01*
X108485024Y-65639630D01*
X108482689Y-65643878D01*
X108482688Y-65643879D01*
X108475955Y-65656126D01*
X108385776Y-65820162D01*
X108384313Y-65824775D01*
X108384311Y-65824779D01*
X108354918Y-65917440D01*
X108323484Y-66016532D01*
X108322944Y-66021344D01*
X108322944Y-66021345D01*
X108303224Y-66197159D01*
X108300520Y-66221262D01*
X108317759Y-66426553D01*
X108319092Y-66431201D01*
X108319092Y-66431202D01*
X108351967Y-66545849D01*
X108374544Y-66624586D01*
X108468712Y-66807818D01*
X108596677Y-66969270D01*
X108662289Y-67025110D01*
X108694347Y-67077221D01*
X108689653Y-67138226D01*
X108649998Y-67184821D01*
X108598123Y-67199500D01*
X107053508Y-67199500D01*
X107049383Y-67199197D01*
X107044658Y-67197575D01*
X106995239Y-67199430D01*
X106991526Y-67199500D01*
X106972052Y-67199500D01*
X106967622Y-67200325D01*
X106962429Y-67200661D01*
X106946398Y-67201263D01*
X106941925Y-67201431D01*
X106932792Y-67201774D01*
X106924398Y-67205380D01*
X106924395Y-67205381D01*
X106922217Y-67206317D01*
X106901266Y-67212683D01*
X106889947Y-67214791D01*
X106875489Y-67223703D01*
X106867272Y-67228768D01*
X106854404Y-67235452D01*
X106836358Y-67243205D01*
X106836357Y-67243206D01*
X106829937Y-67245964D01*
X106825051Y-67249978D01*
X106820687Y-67254342D01*
X106802632Y-67268613D01*
X106794652Y-67273532D01*
X106776982Y-67296769D01*
X106768190Y-67306839D01*
X102104366Y-71970663D01*
X102049849Y-71998440D01*
X102033762Y-71999657D01*
X101954505Y-71999172D01*
X101938427Y-71999074D01*
X101938426Y-71999074D01*
X101931376Y-71999031D01*
X101924599Y-72000968D01*
X101924598Y-72000968D01*
X101800309Y-72036490D01*
X101800307Y-72036491D01*
X101793529Y-72038428D01*
X101672280Y-72114930D01*
X101667613Y-72120214D01*
X101667611Y-72120216D01*
X101582044Y-72217103D01*
X101582042Y-72217105D01*
X101577377Y-72222388D01*
X101516447Y-72352163D01*
X101515362Y-72359132D01*
X101515361Y-72359135D01*
X101505409Y-72423058D01*
X101494391Y-72493823D01*
X101495306Y-72500820D01*
X101495306Y-72500821D01*
X101510525Y-72617203D01*
X101512980Y-72635979D01*
X101515821Y-72642435D01*
X101515821Y-72642436D01*
X101566817Y-72758332D01*
X101570720Y-72767203D01*
X101613987Y-72818675D01*
X101658431Y-72871549D01*
X101658434Y-72871551D01*
X101662970Y-72876948D01*
X101668841Y-72880856D01*
X101668842Y-72880857D01*
X101723897Y-72917505D01*
X101761860Y-72965489D01*
X101764369Y-73026623D01*
X101730464Y-73077556D01*
X101721867Y-73083643D01*
X101687183Y-73105527D01*
X101672280Y-73114930D01*
X101667613Y-73120214D01*
X101667611Y-73120216D01*
X101582044Y-73217103D01*
X101582042Y-73217105D01*
X101577377Y-73222388D01*
X101516447Y-73352163D01*
X101494391Y-73493823D01*
X101495306Y-73500820D01*
X101495306Y-73500822D01*
X101498107Y-73522242D01*
X101486905Y-73582393D01*
X101469947Y-73605082D01*
X98654525Y-76420504D01*
X98600008Y-76448281D01*
X98584521Y-76449500D01*
X98447173Y-76449500D01*
X98388982Y-76430593D01*
X98372174Y-76415123D01*
X98337005Y-76374307D01*
X98337004Y-76374306D01*
X98332400Y-76368963D01*
X98212095Y-76290985D01*
X98074739Y-76249907D01*
X97991497Y-76249398D01*
X97938427Y-76249074D01*
X97938426Y-76249074D01*
X97931376Y-76249031D01*
X97924599Y-76250968D01*
X97924598Y-76250968D01*
X97800309Y-76286490D01*
X97800307Y-76286491D01*
X97793529Y-76288428D01*
X97672280Y-76364930D01*
X97667613Y-76370214D01*
X97667611Y-76370216D01*
X97582044Y-76467103D01*
X97582042Y-76467105D01*
X97577377Y-76472388D01*
X97574381Y-76478770D01*
X97574380Y-76478771D01*
X97567172Y-76494123D01*
X97516447Y-76602163D01*
X97515362Y-76609132D01*
X97515361Y-76609135D01*
X97500680Y-76703430D01*
X97494391Y-76743823D01*
X97495306Y-76750820D01*
X97495306Y-76750821D01*
X97503279Y-76811791D01*
X97512980Y-76885979D01*
X97515821Y-76892435D01*
X97515821Y-76892436D01*
X97563157Y-77000014D01*
X97570720Y-77017203D01*
X97597867Y-77049498D01*
X97658431Y-77121549D01*
X97658434Y-77121551D01*
X97662970Y-77126948D01*
X97668841Y-77130856D01*
X97668842Y-77130857D01*
X97681143Y-77139045D01*
X97782313Y-77206390D01*
X97882920Y-77237821D01*
X97912425Y-77247039D01*
X97912426Y-77247039D01*
X97919157Y-77249142D01*
X97990828Y-77250456D01*
X98055445Y-77251641D01*
X98055447Y-77251641D01*
X98062499Y-77251770D01*
X98069302Y-77249915D01*
X98069304Y-77249915D01*
X98144503Y-77229413D01*
X98200817Y-77214060D01*
X98322991Y-77139045D01*
X98330403Y-77130857D01*
X98373662Y-77083064D01*
X98426730Y-77052610D01*
X98447060Y-77050500D01*
X98696492Y-77050500D01*
X98700617Y-77050803D01*
X98705342Y-77052425D01*
X98754761Y-77050570D01*
X98758474Y-77050500D01*
X98777948Y-77050500D01*
X98782378Y-77049675D01*
X98787571Y-77049339D01*
X98803602Y-77048737D01*
X98808075Y-77048569D01*
X98817208Y-77048226D01*
X98825602Y-77044620D01*
X98825605Y-77044619D01*
X98827783Y-77043683D01*
X98848734Y-77037317D01*
X98860053Y-77035209D01*
X98882729Y-77021232D01*
X98895596Y-77014548D01*
X98913642Y-77006795D01*
X98913643Y-77006794D01*
X98920063Y-77004036D01*
X98924949Y-77000022D01*
X98929313Y-76995658D01*
X98947368Y-76981387D01*
X98955348Y-76976468D01*
X98973018Y-76953231D01*
X98981810Y-76943161D01*
X99028103Y-76896868D01*
X99082620Y-76869091D01*
X99143052Y-76878662D01*
X99186317Y-76921927D01*
X99196989Y-76971709D01*
X99196771Y-76976171D01*
X99194660Y-76985066D01*
X99197617Y-77006795D01*
X99198596Y-77013987D01*
X99199500Y-77027337D01*
X99199500Y-79297333D01*
X99180593Y-79355524D01*
X99172061Y-79364737D01*
X99172280Y-79364930D01*
X99082044Y-79467103D01*
X99082042Y-79467105D01*
X99077377Y-79472388D01*
X99016447Y-79602163D01*
X99015362Y-79609132D01*
X99015361Y-79609135D01*
X99005511Y-79672404D01*
X98994391Y-79743823D01*
X98995306Y-79750820D01*
X98995306Y-79750821D01*
X98996416Y-79759312D01*
X99012980Y-79885979D01*
X99015821Y-79892435D01*
X99015821Y-79892436D01*
X99059182Y-79990980D01*
X99070720Y-80017203D01*
X99116845Y-80072076D01*
X99158431Y-80121549D01*
X99158434Y-80121551D01*
X99162970Y-80126948D01*
X99168841Y-80130856D01*
X99168842Y-80130857D01*
X99181143Y-80139045D01*
X99282313Y-80206390D01*
X99382920Y-80237821D01*
X99412425Y-80247039D01*
X99412426Y-80247039D01*
X99419157Y-80249142D01*
X99490828Y-80250456D01*
X99555445Y-80251641D01*
X99555447Y-80251641D01*
X99562499Y-80251770D01*
X99569302Y-80249915D01*
X99569304Y-80249915D01*
X99644503Y-80229413D01*
X99700817Y-80214060D01*
X99822991Y-80139045D01*
X99830403Y-80130857D01*
X99914468Y-80037982D01*
X99919200Y-80032754D01*
X99965005Y-79938212D01*
X99978634Y-79910082D01*
X99981710Y-79903733D01*
X99982882Y-79896770D01*
X100004862Y-79766124D01*
X100004862Y-79766120D01*
X100005496Y-79762354D01*
X100005556Y-79757496D01*
X100005600Y-79753826D01*
X100005647Y-79750000D01*
X99985323Y-79608082D01*
X99954486Y-79540260D01*
X99928905Y-79483996D01*
X99928904Y-79483995D01*
X99925984Y-79477572D01*
X99879192Y-79423267D01*
X99837007Y-79374309D01*
X99837005Y-79374307D01*
X99832400Y-79368963D01*
X99832512Y-79368866D01*
X99802998Y-79319549D01*
X99800500Y-79297449D01*
X99800500Y-77165479D01*
X99819407Y-77107288D01*
X99829496Y-77095475D01*
X100528103Y-76396868D01*
X100582620Y-76369091D01*
X100643052Y-76378662D01*
X100686317Y-76421927D01*
X100696989Y-76471709D01*
X100696771Y-76476171D01*
X100694660Y-76485066D01*
X100695893Y-76494123D01*
X100698596Y-76513987D01*
X100699500Y-76527337D01*
X100699500Y-79297333D01*
X100680593Y-79355524D01*
X100672061Y-79364737D01*
X100672280Y-79364930D01*
X100582044Y-79467103D01*
X100582042Y-79467105D01*
X100577377Y-79472388D01*
X100516447Y-79602163D01*
X100515362Y-79609132D01*
X100515361Y-79609135D01*
X100505511Y-79672404D01*
X100494391Y-79743823D01*
X100495306Y-79750820D01*
X100495306Y-79750821D01*
X100496416Y-79759312D01*
X100512980Y-79885979D01*
X100515821Y-79892435D01*
X100515821Y-79892436D01*
X100559182Y-79990980D01*
X100570720Y-80017203D01*
X100616845Y-80072076D01*
X100658431Y-80121549D01*
X100658434Y-80121551D01*
X100662970Y-80126948D01*
X100668841Y-80130856D01*
X100668842Y-80130857D01*
X100681143Y-80139045D01*
X100782313Y-80206390D01*
X100882920Y-80237821D01*
X100912425Y-80247039D01*
X100912426Y-80247039D01*
X100919157Y-80249142D01*
X100990828Y-80250456D01*
X101055445Y-80251641D01*
X101055447Y-80251641D01*
X101062499Y-80251770D01*
X101069302Y-80249915D01*
X101069304Y-80249915D01*
X101144503Y-80229413D01*
X101200817Y-80214060D01*
X101322991Y-80139045D01*
X101330403Y-80130857D01*
X101414468Y-80037982D01*
X101419200Y-80032754D01*
X101465005Y-79938212D01*
X101478634Y-79910082D01*
X101481710Y-79903733D01*
X101482882Y-79896770D01*
X101504862Y-79766124D01*
X101504862Y-79766120D01*
X101505496Y-79762354D01*
X101505556Y-79757496D01*
X101505600Y-79753826D01*
X101505647Y-79750000D01*
X101485323Y-79608082D01*
X101454486Y-79540260D01*
X101428905Y-79483996D01*
X101428904Y-79483995D01*
X101425984Y-79477572D01*
X101379192Y-79423267D01*
X101337007Y-79374309D01*
X101337005Y-79374307D01*
X101332400Y-79368963D01*
X101332512Y-79368866D01*
X101302998Y-79319549D01*
X101300500Y-79297449D01*
X101300500Y-78781689D01*
X101310462Y-78751028D01*
X101300500Y-78709774D01*
X101300500Y-77781689D01*
X101310462Y-77751028D01*
X101300500Y-77709774D01*
X101300500Y-76665479D01*
X101319407Y-76607288D01*
X101329496Y-76595475D01*
X101895959Y-76029012D01*
X101950476Y-76001235D01*
X101967774Y-76000033D01*
X102012090Y-76000846D01*
X102055446Y-76001641D01*
X102055448Y-76001641D01*
X102062499Y-76001770D01*
X102069302Y-75999915D01*
X102069304Y-75999915D01*
X102144503Y-75979413D01*
X102200817Y-75964060D01*
X102322991Y-75889045D01*
X102363678Y-75844095D01*
X102414468Y-75787982D01*
X102419200Y-75782754D01*
X102481710Y-75653733D01*
X102503517Y-75524120D01*
X102504862Y-75516124D01*
X102504862Y-75516120D01*
X102505496Y-75512354D01*
X102505647Y-75500000D01*
X102507238Y-75500019D01*
X102520835Y-75446620D01*
X102567902Y-75407525D01*
X102604529Y-75400500D01*
X108636456Y-75400500D01*
X108694647Y-75419407D01*
X108730611Y-75468907D01*
X108730611Y-75530093D01*
X108698490Y-75576655D01*
X108621220Y-75638781D01*
X108621217Y-75638783D01*
X108617447Y-75641815D01*
X108614333Y-75645526D01*
X108614332Y-75645527D01*
X108499185Y-75782754D01*
X108485024Y-75799630D01*
X108482689Y-75803878D01*
X108482688Y-75803879D01*
X108475955Y-75816126D01*
X108385776Y-75980162D01*
X108384313Y-75984775D01*
X108384311Y-75984779D01*
X108370280Y-76029012D01*
X108323484Y-76176532D01*
X108322944Y-76181344D01*
X108322944Y-76181345D01*
X108301900Y-76368963D01*
X108300520Y-76381262D01*
X108317759Y-76586553D01*
X108319092Y-76591201D01*
X108319092Y-76591202D01*
X108360856Y-76736849D01*
X108374544Y-76784586D01*
X108468712Y-76967818D01*
X108596677Y-77129270D01*
X108600357Y-77132402D01*
X108600359Y-77132404D01*
X108653067Y-77177261D01*
X108696306Y-77214060D01*
X108709287Y-77225108D01*
X108741347Y-77277221D01*
X108736653Y-77338226D01*
X108696998Y-77384821D01*
X108645123Y-77399500D01*
X102402997Y-77399500D01*
X102344806Y-77380593D01*
X102337917Y-77375103D01*
X102337006Y-77374308D01*
X102332400Y-77368963D01*
X102212095Y-77290985D01*
X102074739Y-77249907D01*
X101991497Y-77249398D01*
X101938427Y-77249074D01*
X101938426Y-77249074D01*
X101931376Y-77249031D01*
X101924599Y-77250968D01*
X101924598Y-77250968D01*
X101800309Y-77286490D01*
X101800307Y-77286491D01*
X101793529Y-77288428D01*
X101672280Y-77364930D01*
X101667613Y-77370214D01*
X101667611Y-77370216D01*
X101582044Y-77467103D01*
X101582042Y-77467105D01*
X101577377Y-77472388D01*
X101516447Y-77602163D01*
X101515362Y-77609134D01*
X101497321Y-77725005D01*
X101487737Y-77743938D01*
X101497664Y-77768853D01*
X101512065Y-77878982D01*
X101512980Y-77885979D01*
X101515821Y-77892435D01*
X101515821Y-77892436D01*
X101520649Y-77903407D01*
X101570720Y-78017203D01*
X101614182Y-78068907D01*
X101658431Y-78121549D01*
X101658434Y-78121551D01*
X101662970Y-78126948D01*
X101668841Y-78130856D01*
X101668842Y-78130857D01*
X101723897Y-78167505D01*
X101761860Y-78215489D01*
X101764369Y-78276623D01*
X101730464Y-78327556D01*
X101721867Y-78333643D01*
X101672280Y-78364930D01*
X101667613Y-78370214D01*
X101667611Y-78370216D01*
X101582044Y-78467103D01*
X101582042Y-78467105D01*
X101577377Y-78472388D01*
X101574381Y-78478770D01*
X101574380Y-78478771D01*
X101568357Y-78491599D01*
X101516447Y-78602163D01*
X101515362Y-78609134D01*
X101497321Y-78725005D01*
X101487737Y-78743938D01*
X101497664Y-78768853D01*
X101512065Y-78878982D01*
X101512980Y-78885979D01*
X101515821Y-78892435D01*
X101515821Y-78892436D01*
X101547959Y-78965474D01*
X101570720Y-79017203D01*
X101598709Y-79050500D01*
X101658431Y-79121549D01*
X101658434Y-79121551D01*
X101662970Y-79126948D01*
X101668841Y-79130856D01*
X101668842Y-79130857D01*
X101681143Y-79139045D01*
X101782313Y-79206390D01*
X101882920Y-79237821D01*
X101912425Y-79247039D01*
X101912426Y-79247039D01*
X101919157Y-79249142D01*
X101990828Y-79250456D01*
X102055445Y-79251641D01*
X102055447Y-79251641D01*
X102062499Y-79251770D01*
X102069302Y-79249915D01*
X102069304Y-79249915D01*
X102144503Y-79229413D01*
X102200817Y-79214060D01*
X102322991Y-79139045D01*
X102330403Y-79130857D01*
X102373662Y-79083064D01*
X102426730Y-79052610D01*
X102447060Y-79050500D01*
X103834521Y-79050500D01*
X103892712Y-79069407D01*
X103904525Y-79079496D01*
X105199680Y-80374651D01*
X105202380Y-80377780D01*
X105204575Y-80382269D01*
X105211278Y-80388487D01*
X105240822Y-80415893D01*
X105243498Y-80418469D01*
X105257277Y-80432248D01*
X105260987Y-80434793D01*
X105264900Y-80438229D01*
X105286646Y-80458401D01*
X105295132Y-80461787D01*
X105295134Y-80461788D01*
X105297337Y-80462667D01*
X105316648Y-80472978D01*
X105318607Y-80474322D01*
X105318610Y-80474323D01*
X105326146Y-80479493D01*
X105335038Y-80481603D01*
X105335040Y-80481604D01*
X105352066Y-80485644D01*
X105365885Y-80490014D01*
X105390622Y-80499883D01*
X105396915Y-80500500D01*
X105403085Y-80500500D01*
X105425941Y-80503175D01*
X105435066Y-80505340D01*
X105463988Y-80501404D01*
X105477337Y-80500500D01*
X108611581Y-80500500D01*
X108669772Y-80519407D01*
X108705736Y-80568907D01*
X108705736Y-80630093D01*
X108673615Y-80676655D01*
X108621220Y-80718781D01*
X108621217Y-80718783D01*
X108617447Y-80721815D01*
X108614333Y-80725526D01*
X108614332Y-80725527D01*
X108504609Y-80856290D01*
X108485024Y-80879630D01*
X108482689Y-80883878D01*
X108482688Y-80883879D01*
X108475955Y-80896126D01*
X108385776Y-81060162D01*
X108323484Y-81256532D01*
X108322944Y-81261344D01*
X108322944Y-81261345D01*
X108304463Y-81426112D01*
X108300520Y-81461262D01*
X108306627Y-81533991D01*
X108317166Y-81659487D01*
X108317759Y-81666553D01*
X108319092Y-81671201D01*
X108319092Y-81671202D01*
X108347849Y-81771488D01*
X108374544Y-81864586D01*
X108376759Y-81868896D01*
X108381296Y-81877724D01*
X108468712Y-82047818D01*
X108596677Y-82209270D01*
X108600357Y-82212402D01*
X108600359Y-82212404D01*
X108680264Y-82280408D01*
X108753564Y-82342791D01*
X108757787Y-82345151D01*
X108757791Y-82345154D01*
X108791658Y-82364081D01*
X108833230Y-82408974D01*
X108840475Y-82469729D01*
X108810625Y-82523139D01*
X108755082Y-82548804D01*
X108743360Y-82549500D01*
X108644170Y-82549500D01*
X108585979Y-82530593D01*
X108560031Y-82502669D01*
X108557672Y-82498863D01*
X108506955Y-82417066D01*
X108374279Y-82276765D01*
X108370174Y-82273891D01*
X108370171Y-82273888D01*
X108220208Y-82168884D01*
X108216102Y-82166009D01*
X108211506Y-82164020D01*
X108211504Y-82164019D01*
X108043481Y-82091309D01*
X108043482Y-82091309D01*
X108038885Y-82089320D01*
X107872944Y-82054653D01*
X107853592Y-82050610D01*
X107853590Y-82050610D01*
X107849867Y-82049832D01*
X107843532Y-82049500D01*
X99434718Y-82049500D01*
X99376527Y-82030593D01*
X99364714Y-82020504D01*
X97382739Y-80038529D01*
X97380812Y-80036547D01*
X97327724Y-79980408D01*
X97324279Y-79976765D01*
X97320174Y-79973891D01*
X97320171Y-79973888D01*
X97276717Y-79943462D01*
X97270930Y-79939086D01*
X97269859Y-79938212D01*
X97225930Y-79902385D01*
X97221493Y-79900065D01*
X97221488Y-79900062D01*
X97200510Y-79889095D01*
X97189594Y-79882457D01*
X97170217Y-79868889D01*
X97170208Y-79868884D01*
X97166102Y-79866009D01*
X97112811Y-79842948D01*
X97106268Y-79839827D01*
X97059253Y-79815248D01*
X97059254Y-79815248D01*
X97054806Y-79812923D01*
X97049985Y-79811540D01*
X97049981Y-79811539D01*
X97027235Y-79805017D01*
X97015204Y-79800709D01*
X96993486Y-79791310D01*
X96993477Y-79791307D01*
X96988885Y-79789320D01*
X96983986Y-79788296D01*
X96983981Y-79788295D01*
X96932053Y-79777447D01*
X96925010Y-79775704D01*
X96874003Y-79761078D01*
X96869187Y-79759697D01*
X96864195Y-79759313D01*
X96864190Y-79759312D01*
X96840587Y-79757496D01*
X96827939Y-79755696D01*
X96803596Y-79750611D01*
X96799867Y-79749832D01*
X96793532Y-79749500D01*
X96740462Y-79749500D01*
X96732867Y-79749208D01*
X96676658Y-79744883D01*
X96671688Y-79745511D01*
X96671684Y-79745511D01*
X96646293Y-79748719D01*
X96633885Y-79749500D01*
X86751741Y-79749500D01*
X86749253Y-79749753D01*
X86749248Y-79749753D01*
X86612877Y-79763605D01*
X86612873Y-79763606D01*
X86607890Y-79764112D01*
X86423627Y-79821856D01*
X86254739Y-79915472D01*
X86224256Y-79941599D01*
X86129217Y-80023058D01*
X86108125Y-80041136D01*
X86105048Y-80045103D01*
X85992844Y-80189754D01*
X85992841Y-80189759D01*
X85989773Y-80193714D01*
X85904519Y-80366974D01*
X85886886Y-80434667D01*
X85865724Y-80515912D01*
X85855845Y-80553837D01*
X85845739Y-80746671D01*
X85874614Y-80937599D01*
X85941290Y-81118821D01*
X85943930Y-81123079D01*
X85943931Y-81123081D01*
X86026675Y-81256532D01*
X86043045Y-81282934D01*
X86175721Y-81423235D01*
X86179826Y-81426109D01*
X86179829Y-81426112D01*
X86254651Y-81478502D01*
X86333898Y-81533991D01*
X86338494Y-81535980D01*
X86338496Y-81535981D01*
X86406015Y-81565199D01*
X86511115Y-81610680D01*
X86645938Y-81638846D01*
X86696408Y-81649390D01*
X86696410Y-81649390D01*
X86700133Y-81650168D01*
X86706468Y-81650500D01*
X96265282Y-81650500D01*
X96323473Y-81669407D01*
X96335286Y-81679496D01*
X98317261Y-83661471D01*
X98319193Y-83663459D01*
X98321570Y-83665973D01*
X98347810Y-83721246D01*
X98336551Y-83781386D01*
X98292092Y-83823423D01*
X98249634Y-83832989D01*
X87283960Y-83832989D01*
X87261773Y-83830471D01*
X87250358Y-83827846D01*
X87239483Y-83830307D01*
X87228336Y-83830287D01*
X87228336Y-83830126D01*
X87218331Y-83830913D01*
X87146241Y-83826188D01*
X87021525Y-83818014D01*
X87008698Y-83816326D01*
X86790484Y-83772921D01*
X86777984Y-83769571D01*
X86567308Y-83698056D01*
X86555346Y-83693100D01*
X86534304Y-83682723D01*
X86355820Y-83594705D01*
X86344614Y-83588236D01*
X86159615Y-83464624D01*
X86149361Y-83456756D01*
X85982085Y-83310058D01*
X85972930Y-83300903D01*
X85958997Y-83285016D01*
X85826233Y-83133628D01*
X85818365Y-83123374D01*
X85694753Y-82938375D01*
X85688284Y-82927169D01*
X85589889Y-82727643D01*
X85584933Y-82715680D01*
X85522104Y-82530593D01*
X85513418Y-82505005D01*
X85510067Y-82492500D01*
X85505538Y-82469729D01*
X85466663Y-82274291D01*
X85464974Y-82261459D01*
X85463596Y-82240424D01*
X85452109Y-82065170D01*
X85452899Y-82055361D01*
X85452625Y-82055361D01*
X85452645Y-82044211D01*
X85455143Y-82033347D01*
X85452683Y-82022475D01*
X85452683Y-82022473D01*
X85452441Y-82021406D01*
X85450000Y-81999557D01*
X85450000Y-72046671D01*
X88045739Y-72046671D01*
X88074614Y-72237599D01*
X88141290Y-72418821D01*
X88143930Y-72423079D01*
X88143931Y-72423081D01*
X88206544Y-72524065D01*
X88243045Y-72582934D01*
X88375721Y-72723235D01*
X88379826Y-72726109D01*
X88379829Y-72726112D01*
X88516017Y-72821471D01*
X88533898Y-72833991D01*
X88538494Y-72835980D01*
X88538496Y-72835981D01*
X88635929Y-72878144D01*
X88711115Y-72910680D01*
X88831779Y-72935888D01*
X88896408Y-72949390D01*
X88896410Y-72949390D01*
X88900133Y-72950168D01*
X88906468Y-72950500D01*
X90984964Y-72950500D01*
X90987728Y-72950539D01*
X91064958Y-72952696D01*
X91069972Y-72952836D01*
X91127157Y-72942753D01*
X91134343Y-72941756D01*
X91187123Y-72936395D01*
X91187127Y-72936394D01*
X91192110Y-72935888D01*
X91196887Y-72934391D01*
X91196892Y-72934390D01*
X91219479Y-72927311D01*
X91231892Y-72924285D01*
X91236285Y-72923511D01*
X91255194Y-72920177D01*
X91255198Y-72920176D01*
X91260137Y-72919305D01*
X91314123Y-72897931D01*
X91320961Y-72895509D01*
X91371593Y-72879642D01*
X91376373Y-72878144D01*
X91380759Y-72875713D01*
X91401466Y-72864236D01*
X91413014Y-72858777D01*
X91430712Y-72851770D01*
X91439675Y-72848221D01*
X91488262Y-72816426D01*
X91494471Y-72812681D01*
X91540871Y-72786962D01*
X91540875Y-72786959D01*
X91545261Y-72784528D01*
X91567045Y-72765857D01*
X91577255Y-72758191D01*
X91601254Y-72742487D01*
X91605968Y-72738242D01*
X91643496Y-72700714D01*
X91649073Y-72695550D01*
X91688065Y-72662130D01*
X91688067Y-72662128D01*
X91691875Y-72658864D01*
X91710631Y-72634684D01*
X91718852Y-72625358D01*
X95661471Y-68682739D01*
X95663453Y-68680812D01*
X95719592Y-68627724D01*
X95723235Y-68624279D01*
X95726109Y-68620175D01*
X95726112Y-68620171D01*
X95756541Y-68576713D01*
X95760908Y-68570938D01*
X95797615Y-68525931D01*
X95810904Y-68500511D01*
X95817541Y-68489595D01*
X95818788Y-68487815D01*
X95833991Y-68466102D01*
X95857051Y-68412813D01*
X95860172Y-68406269D01*
X95871912Y-68383814D01*
X95887077Y-68354806D01*
X95894983Y-68327234D01*
X95899291Y-68315204D01*
X95908690Y-68293486D01*
X95908693Y-68293477D01*
X95910680Y-68288885D01*
X95911704Y-68283986D01*
X95911705Y-68283981D01*
X95922553Y-68232053D01*
X95924296Y-68225010D01*
X95938922Y-68174003D01*
X95940303Y-68169187D01*
X95942504Y-68140587D01*
X95944304Y-68127939D01*
X95949389Y-68103596D01*
X95950168Y-68099867D01*
X95950500Y-68093532D01*
X95950500Y-68040462D01*
X95950792Y-68032867D01*
X95954732Y-67981657D01*
X95955117Y-67976658D01*
X95951281Y-67946293D01*
X95950500Y-67933885D01*
X95950500Y-64684718D01*
X95969407Y-64626527D01*
X95979496Y-64614714D01*
X100998714Y-59595496D01*
X101053231Y-59567719D01*
X101068718Y-59566500D01*
X108279097Y-59566500D01*
X108337288Y-59585407D01*
X108348062Y-59596625D01*
X108349137Y-59595550D01*
X108356029Y-59602442D01*
X108361448Y-59610552D01*
X108427769Y-59654867D01*
X108437332Y-59656769D01*
X108437334Y-59656770D01*
X108460005Y-59661279D01*
X108486252Y-59666500D01*
X110225748Y-59666500D01*
X110251995Y-59661279D01*
X110274666Y-59656770D01*
X110274668Y-59656769D01*
X110284231Y-59654867D01*
X110350552Y-59610552D01*
X110355971Y-59602442D01*
X110362863Y-59595550D01*
X110365819Y-59598506D01*
X110398540Y-59572655D01*
X110432903Y-59566500D01*
X111417556Y-59566500D01*
X111465853Y-59579080D01*
X111473398Y-59583297D01*
X111477996Y-59584791D01*
X111664724Y-59645463D01*
X111664726Y-59645464D01*
X111669329Y-59646959D01*
X111873894Y-59671351D01*
X111878716Y-59670980D01*
X111878719Y-59670980D01*
X111949259Y-59665552D01*
X112079300Y-59655546D01*
X112277725Y-59600145D01*
X112282038Y-59597966D01*
X112282044Y-59597964D01*
X112457289Y-59509441D01*
X112457291Y-59509440D01*
X112461610Y-59507258D01*
X112465427Y-59504276D01*
X112620135Y-59383406D01*
X112620139Y-59383402D01*
X112623951Y-59380424D01*
X112635098Y-59367511D01*
X112703671Y-59288067D01*
X112758564Y-59224472D01*
X112809878Y-59134143D01*
X112857934Y-59049550D01*
X112857935Y-59049547D01*
X112860323Y-59045344D01*
X112877689Y-58993142D01*
X112923824Y-58854454D01*
X112923824Y-58854452D01*
X112925351Y-58849863D01*
X112951171Y-58645474D01*
X112951583Y-58616000D01*
X112941107Y-58509152D01*
X112931952Y-58415780D01*
X112931951Y-58415776D01*
X112931480Y-58410970D01*
X112916508Y-58361379D01*
X112873333Y-58218380D01*
X112871935Y-58213749D01*
X112775218Y-58031849D01*
X112645011Y-57872200D01*
X112627618Y-57857811D01*
X112490002Y-57743965D01*
X112490000Y-57743964D01*
X112486275Y-57740882D01*
X112363032Y-57674245D01*
X112309309Y-57645197D01*
X112309308Y-57645197D01*
X112305055Y-57642897D01*
X112235764Y-57621448D01*
X112112875Y-57583407D01*
X112112871Y-57583406D01*
X112108254Y-57581977D01*
X112103446Y-57581472D01*
X112103443Y-57581471D01*
X111908185Y-57560949D01*
X111908183Y-57560949D01*
X111903369Y-57560443D01*
X111847800Y-57565500D01*
X111703022Y-57578675D01*
X111703017Y-57578676D01*
X111698203Y-57579114D01*
X111500572Y-57637280D01*
X111468143Y-57654234D01*
X111422276Y-57665500D01*
X110432903Y-57665500D01*
X110374712Y-57646593D01*
X110363938Y-57635375D01*
X110362863Y-57636450D01*
X110355971Y-57629558D01*
X110350552Y-57621448D01*
X110284231Y-57577133D01*
X110274668Y-57575231D01*
X110274666Y-57575230D01*
X110251995Y-57570721D01*
X110225748Y-57565500D01*
X108486252Y-57565500D01*
X108460005Y-57570721D01*
X108437334Y-57575230D01*
X108437332Y-57575231D01*
X108427769Y-57577133D01*
X108361448Y-57621448D01*
X108356029Y-57629558D01*
X108349137Y-57636450D01*
X108346181Y-57633494D01*
X108313460Y-57659345D01*
X108279097Y-57665500D01*
X100649020Y-57665500D01*
X100646256Y-57665461D01*
X100569040Y-57663304D01*
X100564027Y-57663164D01*
X100506826Y-57673251D01*
X100499668Y-57674243D01*
X100441890Y-57680112D01*
X100414509Y-57688693D01*
X100402102Y-57691717D01*
X100398444Y-57692362D01*
X100378800Y-57695825D01*
X100378796Y-57695826D01*
X100373863Y-57696696D01*
X100319875Y-57718071D01*
X100313048Y-57720489D01*
X100257627Y-57737856D01*
X100253245Y-57740285D01*
X100253238Y-57740288D01*
X100232532Y-57751766D01*
X100220986Y-57757224D01*
X100194324Y-57767780D01*
X100145740Y-57799573D01*
X100139531Y-57803318D01*
X100093125Y-57829040D01*
X100093119Y-57829044D01*
X100088739Y-57831472D01*
X100066949Y-57850148D01*
X100056750Y-57857805D01*
X100032746Y-57873513D01*
X100028032Y-57877758D01*
X99990504Y-57915286D01*
X99984927Y-57920450D01*
X99942125Y-57957136D01*
X99939048Y-57961103D01*
X99923369Y-57981316D01*
X99915148Y-57990642D01*
X94338529Y-63567261D01*
X94336547Y-63569188D01*
X94276765Y-63625721D01*
X94273891Y-63629826D01*
X94273888Y-63629829D01*
X94243462Y-63673283D01*
X94239088Y-63679068D01*
X94202385Y-63724070D01*
X94200065Y-63728507D01*
X94200062Y-63728512D01*
X94189095Y-63749490D01*
X94182457Y-63760406D01*
X94168889Y-63779783D01*
X94168884Y-63779792D01*
X94166009Y-63783898D01*
X94142951Y-63837183D01*
X94139827Y-63843732D01*
X94112923Y-63895194D01*
X94111540Y-63900015D01*
X94111539Y-63900019D01*
X94105017Y-63922765D01*
X94100709Y-63934796D01*
X94091310Y-63956514D01*
X94091307Y-63956523D01*
X94089320Y-63961115D01*
X94088296Y-63966014D01*
X94088295Y-63966019D01*
X94077447Y-64017947D01*
X94075704Y-64024990D01*
X94059697Y-64080813D01*
X94059313Y-64085805D01*
X94059312Y-64085810D01*
X94057496Y-64109413D01*
X94055696Y-64122061D01*
X94052382Y-64137925D01*
X94049832Y-64150133D01*
X94049500Y-64156468D01*
X94049500Y-64209538D01*
X94049208Y-64217133D01*
X94044883Y-64273342D01*
X94045511Y-64278312D01*
X94045511Y-64278316D01*
X94048719Y-64303707D01*
X94049500Y-64316115D01*
X94049500Y-67565282D01*
X94030593Y-67623473D01*
X94020504Y-67635286D01*
X90635286Y-71020504D01*
X90580769Y-71048281D01*
X90565282Y-71049500D01*
X88951741Y-71049500D01*
X88949253Y-71049753D01*
X88949248Y-71049753D01*
X88812877Y-71063605D01*
X88812873Y-71063606D01*
X88807890Y-71064112D01*
X88623627Y-71121856D01*
X88454739Y-71215472D01*
X88450930Y-71218737D01*
X88334213Y-71318776D01*
X88308125Y-71341136D01*
X88305048Y-71345103D01*
X88192844Y-71489754D01*
X88192841Y-71489759D01*
X88189773Y-71493714D01*
X88104519Y-71666974D01*
X88103255Y-71671828D01*
X88057398Y-71847876D01*
X88055845Y-71853837D01*
X88045739Y-72046671D01*
X85450000Y-72046671D01*
X85450000Y-67459396D01*
X85468907Y-67401205D01*
X85518407Y-67365241D01*
X85564486Y-67361615D01*
X85645152Y-67374391D01*
X85645157Y-67374391D01*
X85649000Y-67375000D01*
X93001000Y-67375000D01*
X93047926Y-67371307D01*
X93078519Y-67366462D01*
X93079763Y-67366200D01*
X93079777Y-67366197D01*
X93095908Y-67362794D01*
X93108346Y-67360170D01*
X93207929Y-67312860D01*
X93257429Y-67276896D01*
X93290125Y-67245964D01*
X93307993Y-67229060D01*
X93307994Y-67229058D01*
X93313655Y-67223703D01*
X93327707Y-67197918D01*
X93364222Y-67130912D01*
X93364224Y-67130907D01*
X93366411Y-67126894D01*
X93374243Y-67102791D01*
X93384115Y-67072406D01*
X93384115Y-67072404D01*
X93385318Y-67068703D01*
X93395660Y-67003406D01*
X93399391Y-66979848D01*
X93399391Y-66979843D01*
X93400000Y-66976000D01*
X93400000Y-65387749D01*
X93395250Y-65352726D01*
X93389607Y-65311128D01*
X93389160Y-65307832D01*
X93375109Y-65256992D01*
X93351510Y-65197348D01*
X93283162Y-65110841D01*
X93279714Y-65107833D01*
X93279711Y-65107830D01*
X93239471Y-65072727D01*
X93237055Y-65070619D01*
X93172653Y-65027686D01*
X93097245Y-65006507D01*
X93070915Y-64999112D01*
X93070913Y-64999112D01*
X93066510Y-64997875D01*
X93061958Y-64997469D01*
X93061954Y-64997468D01*
X93009447Y-64992782D01*
X93009443Y-64992782D01*
X93005567Y-64992436D01*
X92911925Y-64998820D01*
X92803856Y-65023571D01*
X92780200Y-65026058D01*
X92746410Y-65025527D01*
X92743678Y-65025484D01*
X92743676Y-65025484D01*
X92737696Y-65025390D01*
X92707219Y-65024911D01*
X92683660Y-65021684D01*
X92625809Y-65006507D01*
X92626999Y-65001973D01*
X92626996Y-65001972D01*
X92625806Y-65006507D01*
X92613066Y-65003165D01*
X92590950Y-64994408D01*
X92566637Y-64981207D01*
X92566630Y-64981203D01*
X92554874Y-64974820D01*
X92554869Y-64974818D01*
X92552162Y-64973348D01*
X92517514Y-64959788D01*
X92485737Y-64947351D01*
X92485734Y-64947350D01*
X92482867Y-64946228D01*
X92479881Y-64945470D01*
X92479879Y-64945469D01*
X92438607Y-64934987D01*
X92438602Y-64934986D01*
X92435629Y-64934231D01*
X92432582Y-64933850D01*
X92432576Y-64933849D01*
X92398706Y-64929615D01*
X92361783Y-64925000D01*
X91149500Y-64925000D01*
X91091309Y-64906093D01*
X91055345Y-64856593D01*
X91050500Y-64826000D01*
X91050500Y-64654226D01*
X91050042Y-64650882D01*
X91036122Y-64549262D01*
X91036121Y-64549258D01*
X91035206Y-64542579D01*
X91032529Y-64536393D01*
X91032528Y-64536389D01*
X90977986Y-64410350D01*
X90977984Y-64410346D01*
X90975305Y-64404156D01*
X90880386Y-64286941D01*
X90874887Y-64283033D01*
X90762940Y-64203476D01*
X90762939Y-64203475D01*
X90757442Y-64199569D01*
X90751097Y-64197285D01*
X90751094Y-64197283D01*
X90621880Y-64150763D01*
X90621877Y-64150762D01*
X90615532Y-64148478D01*
X90571586Y-64145251D01*
X90471842Y-64137925D01*
X90471839Y-64137925D01*
X90465109Y-64137431D01*
X90458494Y-64138765D01*
X90458492Y-64138765D01*
X90420609Y-64146404D01*
X90317257Y-64167244D01*
X90182868Y-64235718D01*
X90177905Y-64240281D01*
X90177903Y-64240283D01*
X90108931Y-64303707D01*
X90071844Y-64337810D01*
X90068284Y-64343552D01*
X89996626Y-64459125D01*
X89992365Y-64465997D01*
X89950285Y-64610836D01*
X89949500Y-64621526D01*
X89949500Y-64826000D01*
X89930593Y-64884191D01*
X89881093Y-64920155D01*
X89850500Y-64925000D01*
X89449000Y-64925000D01*
X89390809Y-64906093D01*
X89354845Y-64856593D01*
X89350000Y-64826000D01*
X89350000Y-58674000D01*
X89368907Y-58615809D01*
X89418407Y-58579845D01*
X89449000Y-58575000D01*
X89862033Y-58575000D01*
X89920224Y-58593907D01*
X89956188Y-58643407D01*
X89958869Y-58694585D01*
X89958754Y-58695127D01*
X89956467Y-58701479D01*
X89945420Y-58851902D01*
X89975233Y-58999754D01*
X90043707Y-59134143D01*
X90048270Y-59139106D01*
X90048272Y-59139108D01*
X90101872Y-59197397D01*
X90145799Y-59245167D01*
X90151541Y-59248727D01*
X90268247Y-59321088D01*
X90268249Y-59321089D01*
X90273986Y-59324646D01*
X90418825Y-59366726D01*
X90423995Y-59367106D01*
X90423997Y-59367106D01*
X90427714Y-59367379D01*
X90427721Y-59367379D01*
X90429515Y-59367511D01*
X90537785Y-59367511D01*
X90541128Y-59367053D01*
X90541129Y-59367053D01*
X90642749Y-59353133D01*
X90642753Y-59353132D01*
X90649432Y-59352217D01*
X90655618Y-59349540D01*
X90655622Y-59349539D01*
X90781661Y-59294997D01*
X90781665Y-59294995D01*
X90787855Y-59292316D01*
X90905070Y-59197397D01*
X90946494Y-59139108D01*
X90988535Y-59079951D01*
X90988536Y-59079950D01*
X90992442Y-59074453D01*
X90994726Y-59068108D01*
X90994728Y-59068105D01*
X91041248Y-58938891D01*
X91041249Y-58938888D01*
X91043533Y-58932543D01*
X91054580Y-58782120D01*
X91053246Y-58775506D01*
X91053246Y-58775501D01*
X91036725Y-58693568D01*
X91043758Y-58632788D01*
X91085173Y-58587750D01*
X91133772Y-58575000D01*
X92361053Y-58575000D01*
X92363973Y-58574650D01*
X92363981Y-58574650D01*
X92428914Y-58566878D01*
X92428922Y-58566877D01*
X92431851Y-58566526D01*
X92435619Y-58565611D01*
X92474393Y-58556195D01*
X92474400Y-58556193D01*
X92477257Y-58555499D01*
X92510112Y-58543232D01*
X92541282Y-58531594D01*
X92541287Y-58531592D01*
X92544053Y-58530559D01*
X92546677Y-58529205D01*
X92546683Y-58529202D01*
X92585529Y-58509152D01*
X92598724Y-58502341D01*
X92621021Y-58494050D01*
X92625741Y-58492917D01*
X92691974Y-58477015D01*
X92715605Y-58474280D01*
X92751266Y-58474467D01*
X92751271Y-58474467D01*
X92788595Y-58474662D01*
X92812190Y-58477643D01*
X92903797Y-58500654D01*
X92907245Y-58501021D01*
X92983636Y-58509152D01*
X92983639Y-58509152D01*
X92987086Y-58509519D01*
X92994242Y-58509275D01*
X93039020Y-58507752D01*
X93039029Y-58507751D01*
X93041797Y-58507657D01*
X93044549Y-58507251D01*
X93044552Y-58507251D01*
X93101055Y-58498921D01*
X93101056Y-58498921D01*
X93108346Y-58497846D01*
X93116337Y-58494050D01*
X93203799Y-58452498D01*
X93203798Y-58452498D01*
X93207929Y-58450536D01*
X93257429Y-58414572D01*
X93313655Y-58361379D01*
X93323336Y-58343613D01*
X93364222Y-58268588D01*
X93364224Y-58268583D01*
X93366411Y-58264570D01*
X93382924Y-58213749D01*
X93384115Y-58210082D01*
X93384115Y-58210080D01*
X93385318Y-58206379D01*
X93400000Y-58113676D01*
X93400000Y-56674000D01*
X93396307Y-56627074D01*
X93391462Y-56596481D01*
X93385170Y-56566654D01*
X93337860Y-56467071D01*
X93301896Y-56417571D01*
X93285296Y-56400024D01*
X93259040Y-56344762D01*
X93270282Y-56284618D01*
X93314728Y-56242568D01*
X93357213Y-56232989D01*
X142216040Y-56232989D01*
X142238227Y-56235507D01*
G37*
%TD.AperFunction*%
%TD*%
%TA.AperFunction,Conductor*%
%TO.N,Earth*%
G36*
X93059191Y-56593907D02*
G01*
X93095155Y-56643407D01*
X93100000Y-56674000D01*
X93100000Y-58113676D01*
X93081093Y-58171867D01*
X93031593Y-58207831D01*
X92976882Y-58209693D01*
X92844231Y-58176373D01*
X92844228Y-58176373D01*
X92838441Y-58174919D01*
X92752841Y-58174471D01*
X92674861Y-58174062D01*
X92674859Y-58174062D01*
X92668895Y-58174031D01*
X92663099Y-58175423D01*
X92663095Y-58175423D01*
X92555703Y-58201207D01*
X92504032Y-58213612D01*
X92497596Y-58216934D01*
X92406459Y-58263973D01*
X92361053Y-58275000D01*
X90780345Y-58275000D01*
X90742459Y-58267464D01*
X90662759Y-58234451D01*
X90656762Y-58231967D01*
X90539361Y-58216511D01*
X90460639Y-58216511D01*
X90343238Y-58231967D01*
X90337241Y-58234451D01*
X90257541Y-58267464D01*
X90219655Y-58275000D01*
X89050000Y-58275000D01*
X89050000Y-65225000D01*
X89911410Y-65225000D01*
X89969601Y-65243907D01*
X89989951Y-65263732D01*
X90071718Y-65370293D01*
X90197159Y-65466547D01*
X90343238Y-65527055D01*
X90500000Y-65547693D01*
X90656762Y-65527055D01*
X90802841Y-65466547D01*
X90928282Y-65370293D01*
X91010048Y-65263733D01*
X91060472Y-65229077D01*
X91088590Y-65225000D01*
X92361783Y-65225000D01*
X92409021Y-65236997D01*
X92423489Y-65244852D01*
X92484989Y-65278244D01*
X92484991Y-65278245D01*
X92490235Y-65281092D01*
X92549680Y-65296687D01*
X92648464Y-65322603D01*
X92648468Y-65322604D01*
X92654233Y-65324116D01*
X92660194Y-65324210D01*
X92660197Y-65324210D01*
X92738965Y-65325447D01*
X92823760Y-65326779D01*
X92829575Y-65325447D01*
X92829577Y-65325447D01*
X92978899Y-65291248D01*
X93039842Y-65296687D01*
X93085949Y-65336909D01*
X93100000Y-65387749D01*
X93100000Y-66976000D01*
X93081093Y-67034191D01*
X93031593Y-67070155D01*
X93001000Y-67075000D01*
X85649000Y-67075000D01*
X85590809Y-67056093D01*
X85554845Y-67006593D01*
X85550000Y-66976000D01*
X85550000Y-58067897D01*
X85551504Y-58050706D01*
X85553124Y-58041519D01*
X85554628Y-58032989D01*
X85553124Y-58024461D01*
X85553124Y-58019843D01*
X85552208Y-58002110D01*
X85566798Y-57798118D01*
X85568809Y-57784137D01*
X85617359Y-57560959D01*
X85621338Y-57547406D01*
X85701151Y-57333417D01*
X85707019Y-57320568D01*
X85816476Y-57120114D01*
X85824112Y-57108232D01*
X85960979Y-56925397D01*
X85970229Y-56914721D01*
X86131732Y-56753218D01*
X86142408Y-56743968D01*
X86325242Y-56607101D01*
X86337124Y-56599465D01*
X86359750Y-56587110D01*
X86407196Y-56575000D01*
X93001000Y-56575000D01*
X93059191Y-56593907D01*
G37*
%TD.AperFunction*%
%TD*%
M02*
